<svg xmlns="http://www.w3.org/2000/svg" xml:space="preserve" width="245.1px" height="296.1px" x="0px" y="0px" baseProfile="tiny" overflow="visible" version="1.2" viewBox="0 0 245.1 296.1"><path fill="#8675B4" d="M49.2 193.6s-4.2 58.2 2 82.1l.5 3s-7.6 4.5-7.2 6.6 20.2-1.1 20.2-5.6c0-1.9-1.2-1.9-1.2-1.9S82 259.4 88.7 253s21.6-18.2 21.6-18.2 16.6 12.5 26.3 22c9.6 9.5 19 19.8 19 19.8s-1.9 2-1.9 3.5 4.6 3.3 9.6 4c5 .7 10.5 1.9 10.5.2s-6.8-5.4-6.8-5.4 3.8-27.9 3.8-42.8c0-14.9-1.1-29.7-1.1-29.7L151.9 194"/><path fill="#F7BCAB" d="m46.1 177.7-9.7 6.9s-20.5-19.8-21.2-22c0 0 .8-2.6 4.4-6.6 3.6-4 20.6-21.1 23.9-24.4 3.4-3.3 8.6-7.6 8.6-7.6l7.5.6 49.6-5.4 62.5.3s7 8.8 9.8 13c2.8 4.1 20 32.3 20 32.3s-6.7 7.6-10.6 11.7c-3.9 4.1-8 7-8 7s-1.6-4.4-9.2-7c0 0 3.9-6.1 3.9-7.2 0-1-11.5-10.1-11.5-10.1l2.1 18.5c-.3-.7-8.3 4.9-8.3 4.9s-24.1-18.3-25.4-18.3c-1.3 0-6.1 5.9-5.6 10.5l24.4 17.4-.6 1s-31.7.4-48.9.4-54.5-.8-54.5-.8.2-19.4 1-27.1l-8.1 3.7 3.9 8.3z"/><path fill="#F7BCAB" stroke="#231815" stroke-miterlimit="10" stroke-width="1.5" d="M58.9 124.6s-42.2-.6-42.3-33.8c0-18.9 25.2-35.2 25.2-35.2s-5.7-41.9-4-41.9c1.6 0 31.4 29.2 31.4 29.2S83 37.4 113 37.4c23.6 0 39.1 4.9 39.1 4.9s28.4-28 29.1-27.7c.8.4-1.2 40.9-1.2 40.9s19.2 9.8 19.2 31.3-20.8 35.2-47 39.1"/><path fill="#F7BCAB" stroke="#231815" stroke-miterlimit="10" stroke-width="1.5" d="M56.6 112.2c0-10.5 7.6-25.2 22.8-25.2s28 12.6 31.7 12.6 15.2-10 25.2-10 19.8 8.9 19.8 21-6.9 23.6-21.4 23.6-18.1-11.1-28.3-11.1-13.5 11.1-29.4 11.1-20.4-12.2-20.4-22z"/><path fill="#FCE2C2" d="M174.3 176.5s6.1 2.8 8.5 7.2l-2.9 2.1s-1.6-5.4-7-7.7l1.4-1.6z"/><path fill="#F7BCAB" stroke="#231815" stroke-miterlimit="10" stroke-width="1.5" d="M120.7 130.2s-2.4 4.6-14.1 4.6-14.6-4.5-14.6-4.5"/><path fill="#FCE2C2" d="m46.3 178.6-9.5 6.5 8.7 8.5.7-4.3 2.1-.1.5-6.5z"/><path fill="none" stroke="#231815" stroke-miterlimit="10" stroke-width="1.5" d="M51.9 124s-12.8 11.7-17.7 16.5S15 160.4 15 162.2C15 164 46 194 46 194l.2-4.2 2.4-.1.2-6.7-7.1-13.8 9-4.1M36.6 184.8l9.7-6.7"/><circle cx="80.8" cy="111.3" r="7.9" fill="#813C00" stroke="#231815" stroke-miterlimit="10" stroke-width="1.5"/><circle cx="133.2" cy="111.3" r="5.1" fill="#813C00" stroke="#231815" stroke-miterlimit="10" stroke-width="1.5"/><path fill="none" stroke="#231815" stroke-linecap="round" stroke-miterlimit="10" stroke-width="1.5" d="M52.6 147.9s-2.3 24.3-3.8 46c-1 14.5-1.1 40.5-1.1 55.6 0 15.1 3.6 29.1 3.6 29.1s-7.1 4.6-7.1 6.5c0 2 8.2 1 14.5-.9 6.3-2 6.6-3.5 6.6-4.5s-1-2-1-2"/><path fill="none" stroke="#231815" stroke-miterlimit="10" stroke-width="1.5" d="M63.7 278.1s18.8-19 25.4-25.1c6.6-6.1 21.2-18.1 21.2-18.1s11.5 7.6 26.4 22.7c15 15.1 18.6 19.2 18.6 19.2s-1.7 1.7-1.7 2.8c0 1.1-1.7 2.6 9.7 4.8 8.7 1.7 11.1 1 11.1 0s-1.3-2.6-7.1-5.8c0 0 3.7-25.6 3.7-48 0-15-.9-24.5-.9-24.5M48.8 193.2s28.7.8 59.3.8 44.5-.4 44.5-.4M172.6 120.4s8.5 10.1 17.2 24.4 12.2 19.7 12.2 20.1c0 .5-12.6 14.4-22.4 21.5M165.7 159s12 9.2 12 10-5.4 9.1-5.4 9.1M135.7 164.8s1.5 3-.9 7.2c-1.5 2.6-3.3 4.5-5.7 3.1"/><path fill="#FCE2DF" stroke="#231815" stroke-miterlimit="10" stroke-width="1.5" d="M172.2 204.6s19.9 13.6 25.6 17.6c5.7 4 30 20.8 30.7 20.8.7 0 3.7-2.9 3.7-6s-.9-3.4-3.2-5c-2.2-1.6-41.7-30.3-50.5-36.1"/><path fill="#FED972" stroke="#231815" stroke-miterlimit="10" stroke-width="1.5" d="M153.5 191.9s-1 1.8-1 4.9c0 3.2 2.8 11.9 10.6 11.9s16.8-10.9 16.8-18.3-4-12.3-10.4-12.3c-6.3 0-10.1 4.9-10.1 4.9"/><path fill="#FED972" d="M135.4 164.8c-1.6-.2-3.5 1-5.1 4.1-1.5 3.1-1.6 5.4-1.2 5.9s10 6.8 10 6.8 5-1.9 6.2-8.9l-9.9-7.9z"/><path fill="#D20037" d="m139.6 182 22.7 16s3.9-1.1 5.7-8.2l-22.3-17.4s-.6 3.4-2 5.2c-1.3 1.8-4.1 4.4-4.1 4.4z"/><path fill="none" stroke="#231815" stroke-miterlimit="10" stroke-width="1.5" d="M145.8 172.4s-.9 3.5-2.1 5.4-4.5 4.2-4.5 4.2"/><path fill="none" stroke="#231815" stroke-miterlimit="10" stroke-width="1.5" d="M168.1 189.8c0 .6.2 5.5-5.4 8.4-.8.4-32.2-22.1-33.6-23.2-1.3-1.1 1.8-12.5 6.6-10.2 2.4 1.1 9.1 6.9 16 12.4 7.3 5.7 16.4 12 16.4 12.6zM173.6 176.1s2.9.8 5.7 3.5c1.8 1.7 3.8 4.2 3.8 4.2"/><circle cx="142.5" cy="153.3" r="1.1" fill="#231815"/><circle cx="76.2" cy="154.5" r="1.1" fill="#231815"/><path fill="#231815" d="M41.5 58.8c-1.5 2-1.3 5.5.7 7 2 1.6 33.6 12.6 35.9 13.6 2.4 1 7.4-1.9 4.9-5.4-2.5-3.5-30.6-18-35-18s-5.3 1.1-6.5 2.8zM161.2 46.7c-1.8 0-5.7 3.1-8.2 5.1-2.6 2-21.6 16.7-24.1 19.6-2.5 2.9-2.8 4.4-1.8 5.9s2.4 2.6 5.8 1.1c3.4-1.4 32-19.6 33.5-21.6 1.6-2 3.4-4.6.2-7.4s-4-2.7-5.4-2.7z"/><circle cx="61.3" cy="82.7" r="4.8" fill="#231815"/><circle cx="149.9" cy="78.1" r="7.6" fill="#231815"/><path fill="none" stroke="#231815" stroke-linecap="round" stroke-miterlimit="10" stroke-width="1.5" d="M163.1 143.7s3.6 18.7 5 34.6"/></svg>