<svg xmlns="http://www.w3.org/2000/svg" viewBox="0 0 362 522" width="362" height="522"><g stroke-width="2" fill="none" stroke-linecap="butt"><path d="M 215.42 382.77L 225.28 381.69A 3.29 3.29 27.2 0 0 226.59 381.27Q 231.8 378.29 237.81 377.24A 1.27 0.89 -39.35 0 0 237.97 377.19L 247.37 373.39A 1.1 1.1 -81.97 0 0 247.82 373.05Q 248.44 372.26 249.66 372.12Q 253.52 371.69 255.65 370.43A 0.1 0.09 57.17 0 1 255.77 370.46L 255.92 370.66A 0.32 0.3 52.77 0 1 255.87 371.08Q 253.1 373.49 249.16 375.04A 1.39 1.39 54.7 0 0 248.76 377.38Q 250.89 379.22 251.4 382.6Q 252.12 387.43 252.93 392.57C 254.43 402.07 254.67 413.94 255.23 421.21Q 255.63 426.45 255.13 431.98Q 254.78 435.87 254.63 442.77C 254.45 451.53 252.58 462.72 251.28 470.5C 250.54 474.89 249.03 478.06 247.96 482.51Q 247 486.45 244.65 491.83Q 243.92 493.47 244.24 496.79A 0.98 0.97 -77.7 0 0 244.71 497.53Q 249.8 500.5 255.85 501.58C 261.48 502.58 265.69 504.41 271.16 505.01Q 275.19 505.46 278.64 502.35C 281.09 500.15 281.5 496.5 279.52 494.05Q 278.45 492.73 274.74 491.4C 271.95 490.4 269.35 489.47 266.75 487.76A 1.63 1.63 -75.52 0 1 266.02 486.52Q 265.59 480.93 266.32 479.3Q 269.13 473.01 269.8 466.51Q 270.7 457.87 272.34 449.64Q 273.81 442.27 273.92 437.24Q 274.45 414.28 273.71 404.75Q 273.47 401.57 271.05 394.91A 9.84 9.2 -60.74 0 1 270.55 392.88Q 270.25 390.64 269.79 385Q 269.4 380.14 266.33 372.78Q 265.42 370.61 266.38 367.53C 267 365.55 269.56 364.47 271.06 363.5A 12.18 12.15 -83.73 0 0 273 361.94Q 284.6 350.44 286.36 348.11Q 294.39 337.51 300.61 324.8C 302.38 321.18 303.05 317.74 304.38 314.39C 306.18 309.84 307.27 303.14 308.7 298.37C 310.06 293.86 310.49 289.69 310.49 285.63A 1.36 1.35 -82.24 0 0 309.52 284.34Q 308.09 283.92 306.74 282.84Q 304.75 281.24 293.68 270.88Q 291.68 269.01 288.95 267.13C 285.59 264.83 284.18 263.18 281.28 261.66Q 279.98 260.97 278.82 259.25A 1.16 1.15 -33.83 0 0 277.22 258.94L 270.79 263.23A 0.98 0.93 1.43 0 0 270.58 263.42Q 267.15 267.58 261.29 265.38A 1.11 1.09 -0.47 0 1 260.67 264.78L 258.12 258.83A 1.32 1.31 0.78 0 0 257.46 258.16Q 256.49 257.71 256.22 257.27A 1.59 1.59 28.57 0 1 256.01 256.56L 255.82 252.62A 0.89 0.89 -31.48 0 0 255.5 251.98Q 253.41 250.27 252.62 247.8A 0.81 0.8 -24.54 0 1 252.97 246.87Q 255.61 245.28 257.93 241.2A 2.02 1.97 0.73 0 1 258.74 240.43C 260.9 239.35 262.2 237.52 264.05 236.66C 270.55 233.63 274.89 233.42 281.22 235.52Q 284.98 236.77 286.67 237.68Q 301.58 245.72 314.96 257.78A 0.78 0.78 -62.17 0 0 316.24 257.38C 316.85 254.85 317.59 251.1 317.68 247.86Q 317.81 242.66 318.18 235.74Q 318.33 232.99 319.66 224.73C 320.48 219.63 320.04 212.94 319.85 200.82C 319.72 192.72 320.32 185.89 321.16 177.56Q 322.25 166.8 320.41 155.43A 1.42 1.41 81.49 0 0 318.82 154.25Q 310.05 155.48 300.24 153.99Q 297.68 153.61 295.2 151.98A 0.65 0.65 -64.5 0 0 294.22 152.33Q 293.06 156.1 291.37 162.71Q 290.95 164.34 288.88 166.47A 1.97 1.89 -14.95 0 0 288.4 167.26Q 287.83 168.99 287.69 169.18C 281.64 177.2 272.84 180.71 263.3 175.69Q 259.69 173.79 259.01 173.64A 1.49 1.44 86.88 0 1 258.46 173.13L 252.64 164.05A 1.18 1.13 -67.54 0 1 252.47 163.61L 251.66 158.72A 0.71 0.7 67.18 0 0 250.55 158.26Q 248.59 159.71 246.04 159.75C 240.01 159.84 234.37 160.17 228.98 159.86Q 225.69 159.67 222.97 158.1A 0.47 0.47 -71.46 0 0 222.27 158.45Q 221.31 165.78 217.39 172.42A 5.55 5.3 -7.87 0 1 216.43 173.63Q 215.36 174.63 212.87 177.44Q 212.16 178.24 207.06 181.3A 5.85 5.82 -60.2 0 1 204.08 182.12L 189.31 182.12A 5.04 4.94 55.8 0 1 187.38 181.73C 178.28 177.84 174.71 171.79 170.89 162.69C 169.98 160.53 169.9 157.33 169.42 155.33A 0.33 0.33 -43.02 0 0 168.9 155.13L 163.26 159.16A 1.19 1.11 -70.19 0 1 162.89 159.35L 154.86 161.71A 1.74 1.72 -54.77 0 1 154.41 161.79Q 137.64 162.75 130.38 161.12Q 123.39 159.55 114.36 154.81Q 107.83 151.39 103.12 145.59Q 98.88 140.37 95.01 133.15A 6.45 6.41 24.85 0 1 94.41 131.53Q 93.79 128.76 92.46 124.31Q 91.8 122.1 91.14 116.8Q 90.71 113.41 91.29 109.21Q 92.55 100.06 94.59 94.56Q 101.68 75.46 119.53 67.16Q 126.96 63.71 136.03 63.27Q 146.1 62.79 153.08 64.22Q 167.56 67.2 179.65 78.14Q 187.05 84.85 190.24 94.01A 0.92 0.91 -22.13 0 0 191.49 94.53Q 194.19 93.26 196.08 91.08A 0.72 0.61 4.49 0 1 196.3 90.92L 205.51 86.41A 6.97 6.84 -64 0 1 207.03 85.87L 208.55 85.53A 6.23 6.15 26.9 0 0 209.58 85.2Q 215.11 82.91 218.76 82.51Q 230.91 81.17 247.49 82.53Q 251.33 82.84 257.46 85.28A 7.86 7.25 25.03 0 0 258.52 85.61L 263.22 86.68A 1.27 1.25 -10.81 0 1 263.94 87.16Q 264.29 87.63 264.83 87.86A 0.72 0.72 -63.24 0 0 265.74 87.56L 271.12 78.01A 3.6 3.4 -9.72 0 1 271.72 77.21L 279.2 69.74A 4.77 4.58 -80.51 0 1 280.37 68.87C 285.11 66.37 287.33 64.92 291.39 63.92Q 298.3 62.23 306.78 61.39Q 307.45 61.32 307.52 60.73Q 307.53 60.68 307.2 60.64A 0.75 0.73 89.94 0 1 306.56 59.99C 306.22 57.06 304.65 56.02 303.03 53.9C 299.33 49.06 296.94 45.58 293.93 42.25Q 288.23 35.93 278.12 29.29Q 267.94 22.6 257.12 17.54Q 254.02 16.09 251.55 15.51C 243.73 13.65 235.73 10.28 227.33 8.63A 15.76 15.74 -28.78 0 1 224.64 7.85Q 220.82 6.36 219.72 6.3Q 203.61 5.43 200.28 5.13Q 184.4 3.7 176.98 4.22Q 170.99 4.65 157.98 5.9Q 150.79 6.6 143.05 8.9C 139.81 9.86 135.88 10.05 132.97 11.22Q 126.05 14 124.05 14.53C 118.47 16.01 115.21 16.66 112.38 18.68Q 110.87 19.75 109.4 20.23A 3.92 3.86 -72.97 0 0 108.16 20.9C 104.76 23.63 100.7 25.02 97.05 27.54Q 96.34 28.04 95.37 28.27A 1.7 1.69 -75.22 0 0 94.52 28.77Q 91.57 31.87 86.43 34.45A 1.32 1.09 -77.07 0 0 86.17 34.65L 83.23 37.7A 0.68 0.65 12.81 0 1 82.91 37.89L 81.02 38.47A 0.68 0.67 84.33 0 0 80.54 39.06C 80.34 41.4 78.53 41.9 77.18 43.35Q 70.39 50.61 64.55 58.22A 1.81 1.69 -16.48 0 0 64.35 58.56L 61.05 66.26A 1.08 0.85 -19.9 0 1 60.92 66.47L 58.78 69.36A 1.14 1.1 77.85 0 0 58.63 69.6L 50.87 87.55A 6.51 6.49 -28.55 0 0 50.44 89Q 49.34 95.48 46.95 100.72A 5.83 5.64 61.78 0 0 46.48 102.38Q 44.58 118.29 43.89 126.9C 43.28 134.64 41.72 143.25 41.74 151Q 41.77 162.51 42.19 186.4Q 42.22 187.97 42.49 191.6C 42.94 197.71 40.35 203.54 37.37 211.14Q 36.83 212.51 36.03 217.53C 35.06 223.63 32.74 229.24 32.11 235.13Q 31.49 240.9 31.06 243.09C 29.8 249.45 29.66 255.05 29.14 262.15Q 28.92 265.19 29.32 268.33C 29.95 273.26 30.12 276.76 31.23 282.47Q 31.83 285.56 32.29 290.63A 2.14 1.89 -59.87 0 0 32.36 290.98L 36.57 304.93A 1.86 1.67 -72.91 0 0 36.76 305.34Q 38.8 308.55 40.18 312.64A 6.41 6.27 -70.93 0 0 40.78 313.91Q 44.13 319.21 46.23 326.35A 0.2 0.04 79.1 0 0 46.25 326.4L 51.08 333.68A 0.07 0.07 -76.34 0 0 51.11 333.71C 53.26 334.88 54.27 337.17 55.7 338.97Q 67.03 353.18 82.72 364.89A 4.51 4.36 3.24 0 1 83.8 366.06C 86.22 369.9 90.1 371.16 90.3 376.4A 2.23 2.21 30.69 0 0 90.56 377.4L 93.69 383.42A 0.9 0.7 -69.1 0 1 93.78 383.71L 94.26 388.11A 3.9 3.88 -61.1 0 0 94.64 389.44Q 97.42 395.04 97.63 397.2Q 98.4 405.36 101.32 413.56A 3.95 3.75 35.39 0 1 101.52 414.58Q 102.63 438.79 101.56 465.01Q 101.46 467.34 101.14 468.65Q 98.54 479.33 98.3 480.81C 97.14 487.95 93.4 495.4 90.63 501.12Q 90.03 502.34 90.4 504.45A 1.75 1.68 -72.37 0 0 90.82 505.3C 95.51 510.54 102.35 513.2 109.42 516.37C 114.13 518.48 117.63 518.67 121.79 516.04C 125.82 513.49 128.68 512.37 127.73 506.79A 0.86 0.85 7.59 0 0 127.22 506.13L 124.97 505.16A 0.38 0.38 -64.35 0 1 124.76 504.95L 123.96 503.08A 1.27 1.27 -21.34 0 0 123.29 502.41Q 118.79 500.5 114.5 498.5C 108.4 495.64 115.38 490.58 115.23 487.77Q 115.22 487.54 118.19 478.11Q 119.31 474.54 120.19 468.26Q 122.09 454.7 122.39 445.57C 122.55 440.93 123.76 433.7 123.26 428.25C 122.62 421.28 122.16 414.76 121.04 407.4Q 120.23 402.07 120.01 399.51C 119.6 394.79 117.35 389.86 116.39 385.74Q 115.49 381.91 114.83 377.32A 0.68 0.67 0.37 0 1 115.61 376.56Q 123.61 377.8 129.81 380.42C 133.54 381.99 137.56 382.06 141.94 383.46Q 149.97 386.03 161.74 386.05Q 191.6 386.09 198.22 385.86Q 200.68 385.78 203.33 385.45A 5.12 4.69 -55.67 0 0 204.14 385.26Q 206.19 384.57 207.74 384.51C 211.03 384.37 213.43 383.68 217.13 383.12Q 217.03 383.11 215.42 382.95A 0.09 0.09 85.24 0 1 215.42 382.77" stroke="rgba(128,94,14,1)" vector-effect="non-scaling-stroke"/><path d="M 169.06 138.76A 4.06 4.04 62.82 0 0 169.79 136.47Q 169.81 128.46 173.35 121.34A 4.62 4.56 63.05 0 0 173.78 119.99Q 174.26 117.07 174.85 116.14Q 177.19 112.4 178.53 109.08Q 179.37 107.01 185.45 99.51A 2.23 2.18 72.16 0 0 185.88 98.65C 187.23 92.95 184.38 89.97 180.93 84.84Q 178.97 81.93 176.45 79.72Q 160.16 65.43 138.09 66.34C 134.14 66.5 129.81 67.74 126.07 68.19A 3.14 3.12 21.56 0 0 124.44 68.89C 122.5 70.49 119.48 71.54 117.04 73.73Q 112.12 78.13 109.35 81.63A 8.41 7.63 80.84 0 0 108.57 82.83C 106.4 87 106.16 90.53 104.43 97.71C 102.92 103.99 102.99 111.15 104.17 116.12C 105.74 122.7 107.09 129.74 111.3 134.56Q 112.13 135.52 112.31 136.31C 112.65 137.81 114.52 137.92 115.82 138.89Q 122.28 143.68 130.25 147.31A 4.42 4.29 61.12 0 0 131.2 147.6Q 141.87 149.46 153.07 148.11Q 156.06 147.75 159.21 145.96Q 164.17 143.15 167.41 141.07A 0.24 0.1 -67.5 0 0 167.47 141.01L 169.06 138.76" stroke="rgba(128,128,128,1)" vector-effect="non-scaling-stroke"/><path d="M 278.48 96.83L 287.02 108.77A 2.07 1.58 -82.37 0 1 287.18 109.05L 291.45 118.46A 4.44 3.92 31.1 0 1 291.74 119.38L 294.74 135.17A 0.87 0.8 24.18 0 0 294.83 135.38Q 297.15 138.82 298.51 139.39Q 302.59 141.1 306.46 143.03A 5.17 5.14 61.67 0 0 308.08 143.52Q 315.62 144.55 324.14 143.77A 11.71 11.58 29.36 0 0 328.08 142.69C 333.2 140.25 339.34 137.83 340.31 134.23Q 342.22 127.18 344.43 122.81Q 345.65 120.39 345.8 117.87Q 346.27 109.69 346.03 101.22C 345.94 98.34 346.05 95.37 344.92 93.06Q 342.74 88.61 340.91 83.84Q 339.13 79.16 335.43 76.58Q 332.12 74.28 331.06 73.01A 0.65 0.61 83.49 0 0 330.87 72.85L 323.92 68.71A 2.81 2.75 63.97 0 0 322.96 68.37Q 318.51 67.7 314.52 67.81Q 304.48 68.09 304.37 68.11C 300.51 68.76 297.99 70.79 294.7 72.32A 4.09 4.09 7.84 0 0 293.34 73.35Q 291.42 75.57 289.6 76.02A 2.93 2.86 15.28 0 0 288.3 76.74Q 284.79 80.06 284.4 80.9Q 282.81 84.33 280.64 86.39A 1.62 1.6 -20.58 0 0 280.13 87.49C 279.99 90.89 279.9 94.26 278.47 96.42A 0.37 0.34 45.29 0 0 278.48 96.83" stroke="rgba(128,128,128,1)" vector-effect="non-scaling-stroke"/><path d="M 220.7 145.54C 221.65 144.53 221.72 141.19 221.92 138.82A 0.68 0.68 -77.17 0 0 221.48 138.12Q 220.59 137.79 220.11 137.64Q 218.96 137.28 218.25 135.98Q 217.24 134.14 215.06 134.04A 1.24 1.24 2.35 0 1 213.88 132.76L 214.2 121.31A 1.17 1.16 88.35 0 1 215.26 120.18Q 217.88 119.92 218.01 117.75A 1.08 1.07 81.22 0 1 218.68 116.83Q 226.58 113.62 235.1 112.89C 237.84 112.65 240.31 113.44 242.86 113.61C 247.13 113.91 256.21 116.64 257.61 121.4Q 258.83 125.57 257.35 131.73A 1.03 1.02 77.14 0 1 257 132.29L 252.56 135.92A 1.13 1.1 -18.33 0 0 252.15 136.71C 251.54 145.04 252.81 149.83 255.27 159.56Q 256.67 165.1 258.57 167.59Q 261.8 171.83 265.27 173.02Q 272.88 175.62 277.89 173.21Q 283.29 170.61 287.11 164.32Q 288.52 162 291.05 151.14Q 291.31 150.03 291.34 149.81C 292.14 144.11 292.81 136.5 290.89 131.36A 4.63 4.32 -61.46 0 1 290.66 130.47Q 288.93 119.38 282.7 108.48A 1.13 1.07 -1.72 0 0 282.17 108.01L 281.65 107.78A 1.62 1.6 87.05 0 1 280.86 107.06Q 276.35 98.84 268.99 94.2C 266.25 92.47 264.7 90.33 261.87 89.93Q 260.68 89.76 257.35 88.39Q 253.58 86.84 250.77 86.43Q 240.69 84.99 224.26 85.58Q 218.51 85.78 215.19 86.76Q 208.43 88.75 201.57 92.08C 193.98 95.77 185.51 103.96 181.54 111.62Q 179.73 115.1 178.77 116.55A 1.79 1.26 -84.35 0 0 178.66 116.76L 174.38 127.37A 1.89 1.67 -35.18 0 0 174.25 127.92C 173.76 133.37 171.97 138.7 172.03 143.9Q 172.1 150.38 172.3 151.26Q 173.53 156.63 174.24 162.31A 5.03 4.99 30.75 0 0 174.56 163.55C 177.63 171.23 182.89 177.7 191.45 178.74Q 199.35 179.7 206.5 177.8A 3.25 3.17 -72.25 0 0 207.82 177.1Q 213.27 172.33 217.07 164.65A 3.81 3.79 -27.51 0 0 217.41 163.58L 220.45 146.03A 0.97 0.94 -18.98 0 1 220.7 145.54" stroke="rgba(128,94,14,1)" vector-effect="non-scaling-stroke"/><path d="M 222.57 152.45Q 222.25 153.71 222.49 154.71A 0.91 0.9 87.04 0 0 223.23 155.38Q 236.18 157.52 249.71 155.6A 0.34 0.34 82.13 0 0 249.99 155.22L 247.6 138.5A 0.47 0.46 84.02 0 0 247.11 138.1C 244.04 138.31 241.03 139.43 238.33 139.7Q 231.62 140.38 225.31 138.08A 0.79 0.78 8.2 0 0 224.26 138.86Q 224.59 144.93 223.34 151.47A 0.48 0.48 79.4 0 1 223.13 151.78Q 223.06 151.82 222.97 151.88A 1.05 1.01 80.96 0 0 222.57 152.45" stroke="rgba(128,94,14,1)" vector-effect="non-scaling-stroke"/><path d="M 325.1 182.31Q 324.15 186.8 324.03 191.75Q 323.79 201.74 324.29 211.19A 2.62 2.35 -61.6 0 0 324.49 212.02L 328.54 221.15A 0.67 0.53 -83.74 0 0 328.61 221.26Q 331.54 225.3 332.22 229.99A 4.55 4.54 27.21 0 0 332.69 231.45L 335.5 236.75A 2.61 2.48 28.62 0 1 335.77 237.59Q 336.35 242.4 338.95 248.03A 7.17 7.1 -62.48 0 1 339.52 249.87Q 340.45 255.49 339.94 265.78Q 339.81 268.32 337.71 268.43A 1.26 1.26 -76.49 0 0 336.7 269.05L 335.87 270.48A 1.04 1.01 -73.83 0 1 334.95 271L 331.45 270.9A 1.64 1.54 56.3 0 1 330.85 270.76L 320.33 266.22A 6.62 6.33 -12.59 0 1 318.79 265.29Q 314.04 261.48 310.87 259.35C 308.42 257.71 305.71 254.51 303.24 253.5A 2.11 2.11 84.18 0 1 302.32 252.75C 300.77 250.51 298.53 249.31 296.59 247.75Q 295.19 246.62 292.27 245.01C 284.86 240.91 280.1 237.87 272.87 237.9A 3.61 3.51 34.54 0 0 271.69 238.1L 264.84 240.38A 1.51 1.45 13.6 0 0 264.31 240.69L 258.87 245.46A 0.63 0.56 86.83 0 0 258.71 245.66L 256.8 248.96A 0.46 0.45 0.26 0 0 257.42 249.58Q 260.83 247.69 262.68 245.98Q 264.23 244.54 265.81 244.28Q 267.76 243.95 269.37 244.2A 0.61 0.61 -50.38 0 1 269.48 245.37L 267.09 246.23A 1.18 1.12 -76.16 0 0 266.73 246.46L 258.72 254.48A 0.99 0.99 9.22 0 0 259.86 256.06L 265.14 253.42A 1.89 1.83 -79.61 0 0 265.56 253.12Q 268.77 250.17 273.28 249.88A 0.8 0.8 13.05 0 1 274.03 251.08L 273.78 251.51A 0.24 0.1 -22.5 0 1 273.72 251.57C 268.45 254.92 266.08 256.43 262.66 260.8A 0.47 0.46 30.56 0 0 262.85 261.51C 265.65 262.68 267.53 261.43 269.8 259.3A 4.18 4.15 -78.35 0 1 271.05 258.47Q 273.53 257.38 275.51 255.75Q 277.47 254.13 279.5 255.39Q 282.39 257.18 290.73 263.61Q 295.24 267.09 301.35 272.51Q 311.9 281.87 320.6 287.57C 326.25 291.28 336.92 291.08 342.96 290.09Q 348.68 289.16 353.02 284.04C 354.05 282.82 354.19 281.15 355.16 279.85A 4.63 4.51 -18.68 0 0 355.85 278.5Q 359 268.33 357.4 257.1C 356.8 252.91 354.69 249.04 354.13 244.84Q 353.53 240.36 352.16 237.03C 350.58 233.19 349.91 228.96 348.16 224.65Q 346.41 220.33 342.08 209.88C 339.61 203.93 336.19 198.51 333.18 192.38Q 331.7 189.35 330.25 187.11Q 327.01 182.08 326.98 182.03A 1.02 1.01 -53.41 0 0 325.1 182.31" stroke="rgba(128,94,14,1)" vector-effect="non-scaling-stroke"/><path d="M 29 294.55L 25.58 293.64A 1.79 1.72 75.26 0 1 24.74 293.13Q 22.9 291.1 19.51 288.26C 17.84 286.85 17.79 284.68 15.27 283.76A 0.95 0.93 -7.38 0 1 14.82 283.42L 12.94 280.8A 1.67 1.64 -10.27 0 0 12 280.16Q 10.01 279.66 9.49 276.91A 0.98 0.97 7.03 0 0 8.92 276.19L 7.38 275.53A 0.95 0.95 -89.23 0 0 6.12 276.76Q 7.1 279.21 8.72 281.06A 2.74 2.68 -72.37 0 1 9.34 282.29L 10.34 286.82A 1.21 1.14 20.64 0 0 10.58 287.31L 13.07 290.26A 2.44 2.43 -71.46 0 1 13.59 291.31Q 14.92 297.82 19.05 305A 2.36 2.32 -87.55 0 0 19.7 305.72Q 21.41 306.95 21.65 307.58Q 23.15 311.53 26.68 312.21A 1.91 1.91 -10.37 0 1 27.94 313.08C 29.13 315 33.17 316.38 35.14 316.63A 1.11 1.1 -14.45 0 1 35.89 317.07Q 36.63 318.04 37.31 317.84A 0.57 0.56 73.3 0 0 37.69 317.13Q 37.21 315.57 33.78 307.95Q 32.28 304.63 31.73 299.55A 1.97 1.92 -70.21 0 0 31.22 298.43Q 29.68 296.79 29.48 295.1A 0.67 0.64 4.84 0 0 29 294.55" stroke="rgba(128,94,14,1)" vector-effect="non-scaling-stroke"/><path d="M 55.37 128.57A 0.59 0.59 -58.16 0 0 54.27 128.83Q 53.71 135.82 53.95 143.65Q 54.07 147.5 55.48 149.58C 60.29 156.65 64.16 156.39 72.2 155.97C 74.81 155.84 78.16 150.91 79.04 149.15A 5.08 4.93 65.2 0 0 79.43 148.04Q 81.15 140.07 80.34 131.21Q 80.16 129.26 79.58 128.19A 0.67 0.58 57.21 0 0 78.66 127.92Q 78.46 128.09 78.41 128.43Q 77.94 131.49 75.74 146.86A 1.33 1.31 -22.21 0 1 75.47 147.49L 72.5 151.25A 1.37 1.35 -75.5 0 1 71.68 151.74Q 67.25 152.56 63.2 151.8A 1.61 1.57 72.25 0 1 62.37 151.36L 58.67 147.66A 2.52 2.46 -71.32 0 1 57.96 146.18L 56.26 130.51A 2.73 2.57 -65.59 0 0 55.9 129.46L 55.37 128.57" stroke="rgba(128,94,14,1)" vector-effect="non-scaling-stroke"/><path d="M 71.18 187.48Q 71.52 185.07 70.97 182.62A 0.54 0.53 -5.77 0 1 71.51 181.97L 71.52 181.97A 0.14 0.14 2.21 0 1 71.65 182.11Q 71.49 195.49 71.94 214.5Q 72.11 221.5 73.73 231.93C 75.44 242.88 75.78 254.17 78.1 265.19Q 79.43 271.49 80.9 281.57Q 81.27 284.12 83.38 288.89A 6.04 5.81 27.19 0 1 83.74 289.94Q 84.52 293.04 86.67 296.96A 1.35 1.34 86.52 0 0 87.34 297.56Q 89.27 298.31 89.82 299Q 91.59 301.2 93.99 301.64Q 101.15 302.94 110.17 301.51A 2.6 2.38 -58.85 0 0 110.85 301.31L 119.14 297.54A 1.51 1.44 8.53 0 0 119.61 297.21Q 121.67 295.02 124.72 293.49A 7.7 7.57 -77.47 0 0 126.14 292.57Q 129.98 289.39 133.39 287.31Q 133.78 287.08 134.67 285.57A 1.33 1.27 -5.82 0 1 135.02 285.16L 162.87 262.42A 0.4 0.4 -40.84 0 1 163.43 262.46C 166.9 266.37 169.87 270.54 175.15 266.59Q 177.79 264.61 180.08 263.29Q 182.3 262.01 182.14 258.69A 0.66 0.66 88.75 0 1 182.8 258L 185.2 258A 0.87 0.87 -45 0 0 186.07 257.13L 186.07 247.26A 1.99 1.98 -72.72 0 0 185.22 245.63Q 182.28 243.62 181.38 241.09A 0.95 0.92 -1.57 0 0 180.73 240.49Q 178.54 239.93 177.65 238A 1.73 1.69 3.42 0 0 176.98 237.26Q 171.13 233.81 165.48 236.26Q 157.46 239.74 147.87 246.09Q 139.26 251.79 129.39 258.89Q 124.45 262.43 122.24 263.62Q 120.45 264.58 114.71 267.74Q 114.7 267.75 113.7 268.17C 110.88 269.36 110.86 272.61 106.8 271.94A 0.94 0.94 -1.81 0 1 106.03 271.22Q 104.91 266.24 103.06 256.18Q 102.19 251.42 102.06 247.25C 101.88 241.56 101.7 235.93 100.62 230.25Q 99.86 226.29 99.64 222.2A 10.54 10.22 -54.11 0 0 99.37 220.33C 97.33 211.95 98.1 203 96.76 194.58C 95.69 187.77 95.97 180.73 93.48 174.51A 0.58 0.58 37.23 0 0 92.37 174.66Q 91.83 179.66 92.09 182.57Q 93.19 195.14 93.97 206.55Q 94.54 214.92 96.56 229Q 97.73 237.13 98.34 248.14C 98.84 257.12 101.66 266.67 102.37 274.95A 0.83 0.81 -86.62 0 0 103 275.67Q 106.73 276.55 110.55 275.37A 1.67 1.63 -77.68 0 0 111.34 274.85Q 113.41 272.44 116.81 270.56C 122.53 267.4 124.62 266.64 129.39 262.98Q 134.01 259.44 138.12 256.87Q 145.28 252.4 150.75 248.36C 154.15 245.84 158.65 243.58 162.16 241.7C 165.25 240.05 169.85 238.01 172.62 239.75Q 177.37 242.76 181.12 246.55A 2.4 2.28 -77.28 0 1 181.67 247.47Q 182.28 249.37 182.2 251.73A 0.77 0.77 8.54 0 0 182.77 252.5Q 183.02 252.57 183.21 252.75A 0.43 0.43 -32.86 0 1 183.05 253.48Q 181.84 253.86 181.29 253.5A 1.19 1.15 86.48 0 1 180.95 253.19L 175.82 246.51A 0.88 0.87 26.23 0 0 174.25 247.04L 174.25 248.74A 2.54 2.54 21.99 0 0 175.03 250.57Q 179.63 255.03 177.3 261.69A 0.42 0.42 -47.07 0 1 176.51 261.72L 173.74 255.25A 1.88 1.87 78.26 0 0 172.02 254.12L 171.07 254.12A 1.31 1.31 74.85 0 0 169.94 256.09Q 172.35 260.23 172.87 263.16A 1.08 1.07 67.41 0 1 172.44 264.21Q 171.97 264.56 172.01 264.81A 0.59 0.59 -66.88 0 1 170.94 265.24C 168.42 261.42 164.44 253.65 159.88 260.69Q 159.13 261.85 157.54 262.26A 2.31 2.23 -71.52 0 0 156.64 262.73Q 149.23 269.04 139.77 276.7C 138.01 278.12 137.51 279.81 135.04 280.37A 1.22 1.2 4.89 0 0 134.21 281.06L 133.56 282.56A 1.48 1.46 88.42 0 1 132.88 283.29Q 130.55 284.48 127.94 287.06A 1.98 0.71 -48.69 0 1 127.74 287.23L 119.11 293.25A 2.07 1.58 7.63 0 1 118.83 293.41L 110.87 297.51A 1 0.95 -64.9 0 1 110.64 297.6Q 102.55 299.35 95.08 297.82A 2.35 2.34 73.01 0 1 93.92 297.2Q 88.1 291.43 87.11 289.09Q 84.97 284.07 84.31 279.14C 83.47 272.87 82.41 268.4 80.94 261.12C 79.79 255.48 79.97 248.02 79.27 243.74C 78.21 237.23 78.16 229.93 76.45 223.04A 7.26 6.82 38.01 0 1 76.26 221.81Q 76.17 220.19 75.41 201.12Q 75.37 200.1 75.11 198.4Q 74.91 197.05 74.81 195.67Q 74.34 188.58 73.53 179.1A 0.78 0.77 87.58 0 0 72.76 178.39L 71.21 178.39A 0.26 0.25 3.74 0 0 70.95 178.61Q 70.22 183.21 70.59 187.46A 0.3 0.3 46.72 0 0 71.18 187.48" stroke="rgba(128,94,14,1)" vector-effect="non-scaling-stroke"/></g><path d="M 191.17 0Q 204.26 1.71 216.52 2.51Q 219.49 2.7 222.04 3.7Q 226.56 5.47 233.37 6.14A 13.77 13.39 -31.78 0 1 236.46 6.82L 265.59 16.84A 0.45 0.12 14.87 0 1 265.66 16.88Q 268.13 18.65 272.6 20.85Q 274.62 21.84 280.61 27.08A 2.69 2.62 76.72 0 0 281.27 27.5Q 282.24 27.92 283.97 29.04Q 291.91 34.18 297.14 39.43Q 299.41 41.71 309 55.84A 6.61 6.28 18.76 0 1 309.63 57.04Q 310.39 59.02 312.36 61.35C 313.35 62.51 314.77 62.44 315.89 63.26A 2.54 2.5 65.53 0 0 317.11 63.73Q 322.05 64.26 322.83 64.69Q 326.43 66.72 330.59 68.27A 3.38 3.26 -13.05 0 1 331.66 68.91Q 338.32 74.85 339.37 76.11Q 342.17 79.47 344.51 82.79Q 345.64 84.39 346.82 88.69C 347.73 92.01 349.61 95.03 349.91 99.25Q 350.4 106.04 349.85 118.53Q 349.8 119.68 347.67 123.64Q 346.91 125.04 345.27 130.9A 2.34 2.31 -16.23 0 1 344.73 131.87Q 342.65 134.12 341.87 136.49A 3.24 3.18 74.51 0 1 341.3 137.52Q 334.94 145.32 327.18 151.09A 1.98 1.97 -67.97 0 1 326.36 151.44Q 323.4 151.94 323.88 155.06Q 324.4 158.4 324.37 161.09C 324.32 164.31 324.8 167.93 325.22 170.72A 8.39 8.31 24.41 0 0 326.49 174.05Q 330.98 180.97 334.61 187.07Q 335.33 188.28 336.13 190.11Q 336.73 191.47 338.1 193.09A 4.19 4.09 13.86 0 1 338.77 194.17L 342.88 203.75A 1.21 1 21.04 0 0 343.01 203.98C 346.05 208.13 347.41 213.15 349.53 217.49Q 349.68 217.8 350.49 220.91A 4.97 4.6 26.07 0 0 350.85 221.84Q 353.18 226.23 353.54 227.74Q 355.11 234.24 355.65 235.33Q 357.48 239.03 358.08 242.8C 358.99 248.59 360.59 254.3 362 259.97L 362 269.88C 361.42 272.38 360.81 274.98 359.79 277.3Q 358.29 280.77 357.39 284.12Q 356.99 285.63 353.76 288.79A 0.29 0.24 4.73 0 1 353.69 288.84L 346.42 292.99A 5.68 5.64 28.47 0 1 343.9 293.73Q 335.97 294.14 327.26 293.82Q 325.1 293.74 322.24 291.59A 1.68 0.95 60.48 0 0 322.04 291.47L 315.46 288.14A 0.99 0.99 -73.25 0 0 314.03 288.91C 313.76 291.19 313.9 292.59 313.24 294.86Q 311.51 300.78 310.79 302.69A 1.16 0.6 -45.75 0 0 310.72 302.92L 309.52 310.36A 1.17 0.97 66.26 0 1 309.46 310.57Q 306.67 316.77 305.62 322.61A 1.8 1.8 -20.34 0 1 305.22 323.48Q 303.4 325.73 302.26 329.29C 301.45 331.85 299.97 334.41 298.93 335.83A 3.15 3.07 72.57 0 0 298.5 336.68Q 296.29 343.64 291.35 349.36Q 283.32 358.66 274.17 365.66A 2.38 2.29 -7.47 0 0 273.46 366.55Q 273.46 366.56 273.43 366.7A 0.94 0.94 1.51 0 1 272.72 367.37Q 268.9 368.15 270.06 372.71C 271.12 376.91 272.87 380.71 273.77 384.8A 7.6 6.73 41.49 0 1 273.93 386.1Q 274.1 393.37 275.66 399.29A 6 5.83 -53.66 0 1 275.86 400.74Q 276.14 423.19 275.9 448.75Q 275.88 450.85 275.51 452.75Q 274.07 460.35 273.74 468.29A 6.61 6.37 55.75 0 1 273.44 470.04C 272.85 471.9 272.63 473.22 271.81 474.73Q 269.51 478.95 269.91 484.16A 2.85 2.83 6.92 0 0 271.87 486.65L 279.21 489.01A 0.87 0.73 -11.58 0 1 279.49 489.16L 283.06 492.17A 1.77 1.73 -83.65 0 1 283.49 492.72C 285.57 496.89 285.32 503.41 280.9 506.15C 276.6 508.82 274.03 509.53 268.89 508.41Q 261.3 506.76 253.14 505.27A 1.49 1.42 60.45 0 1 252.81 505.17L 241.01 499.97A 1.31 1.29 5.23 0 1 240.26 499.08Q 239.28 494.92 240.6 490.42A 2.49 2.35 71.93 0 1 240.93 489.72Q 242.72 487.13 243.5 484.02C 244.71 479.26 245.52 477.58 247.29 472A 11.37 9.38 -85.33 0 0 247.68 470.45Q 247.79 469.83 248.24 462.52Q 248.35 460.78 249.13 454.62Q 251.33 437.24 251.59 432.94Q 252.34 420.28 250.5 405.25Q 249.64 398.17 248.66 395.7A 3.8 3.77 -58.79 0 1 248.4 394.62C 247.83 387.92 248 384.22 245.23 379.86A 1.12 1.11 -17.74 0 0 244.22 379.35Q 241.65 379.5 239.62 381.23A 1.54 1.52 -69.6 0 1 238.89 381.57Q 232.82 382.62 227.34 384.95A 8.05 7.71 -62.92 0 1 226.13 385.37C 223.91 385.97 220.5 386.06 217.39 386.87Q 211.03 388.52 207.8 389.44A 6.31 6.28 -54.13 0 1 206.27 389.69Q 191.16 390.26 187.75 390.45Q 187.01 390.49 186.71 390.97A 0.42 0.41 26.17 0 1 186.2 391.14Q 185.88 391.02 178.78 391.62Q 177.44 391.74 168.66 391.44A 0.35 0.35 26.38 0 1 168.45 390.82L 168.85 390.5A 0.13 0.13 -64.23 0 0 168.77 390.27L 148.91 389.7A 9.38 9.15 52.56 0 1 146.78 389.39Q 141.73 388.02 138.74 387.04Q 135.95 386.13 134.71 386.03Q 133.22 385.91 131.29 385.63A 4.07 4.02 65.35 0 1 129.73 385.04Q 125.81 382.54 121 381.4A 0.93 0.93 6.67 0 0 119.86 382.3C 119.85 386.39 122.53 391.31 123.62 394.41A 5.42 5.26 -56.43 0 1 123.91 395.96Q 124.38 407.41 124.75 409.24Q 126.03 415.6 126.08 419.24Q 126.13 422.35 126.62 427.16C 127.4 434.89 126.91 440.76 126.22 449Q 125.71 455.08 125.4 456.42C 124.05 462.34 123.97 469.9 123.79 474.5Q 123.76 475.42 121.96 479.55A 19.02 18.34 64.52 0 0 120.98 482.48C 120.12 486.09 119.58 490.71 117.15 493.3A 1.18 1.18 -50.63 0 0 117.32 495.06Q 119.44 496.6 125.46 500.17Q 128.77 502.13 129.5 503.99C 130.89 507.53 130.9 514.63 127.78 517.17A 5.7 2.15 -42.84 0 0 127.17 517.69Q 127.09 517.77 123.03 519.98C 118.95 522.22 114.96 522.33 110.53 520.69Q 103.85 518.2 99.23 515.64Q 96.7 514.24 94.46 513.3C 88.76 510.9 84.21 505.41 86.88 499.02A 5.65 5.65 77.72 0 1 87.92 497.4Q 89.6 495.59 90.39 491.86A 6.67 6.43 65.31 0 1 90.98 490.17Q 92.94 486.32 93.75 482.43Q 94.06 480.91 95.53 475.06C 96.58 470.85 97.71 467.32 97.8 463.23Q 98.34 438.1 98.05 421.51Q 97.89 412.61 95.02 403.71A 15.72 15.72 81.44 0 1 94.32 400.21Q 94.09 397.58 93.49 394.76Q 93.39 394.26 92.91 393.91A 1.35 1.33 -74.56 0 1 92.39 392.98Q 92.23 391.34 91.12 389.75A 3.14 3.13 -68.38 0 1 90.63 388.61Q 89.15 381.45 88.03 379.8Q 86.27 377.23 86.16 376.44Q 85.93 374.82 85.41 374.04C 84.33 372.42 84.45 370.37 82.07 369.51Q 78.44 368.2 75.39 364.88Q 74.65 364.08 73.04 363.59A 0.87 0.86 2.43 0 1 72.46 362.96Q 72.36 362.53 70.91 361.2Q 60.68 351.88 58.15 348.68Q 54.22 343.69 50.61 339.68Q 49.61 338.56 48.55 336.31A 4.12 4.07 11.92 0 0 47.91 335.34Q 44.52 331.51 42.95 326.15A 0.77 0.73 16.85 0 0 42.75 325.8L 40.04 322.93A 0.33 0.31 80.28 0 0 39.92 322.84L 29.52 318.35A 2.16 2.12 -6.01 0 1 28.65 317.66Q 27.57 316.22 25.25 315.79A 0.73 0.71 72.16 0 1 24.87 315.59L 18.27 309.1A 0.39 0.18 25.1 0 1 18.22 309.04Q 16.77 306.34 15.29 304.89A 2.19 2.17 9.78 0 1 14.87 304.3L 10.67 295.7A 3.71 3.5 28.4 0 1 10.34 294.7L 9.67 290.78A 1.5 1.49 -69.87 0 0 9.38 290.15L 7.3 287.6A 2.95 2.95 -29.14 0 1 6.7 286.4Q 5.6 281.87 3.88 279.76C 2.03 277.47 1.92 275.07 0.58 272.18A 1.33 1.33 70.3 0 1 1.45 270.33Q 2.38 270.09 3.72 270.58Q 6.33 271.53 8.93 272.37A 2.11 1.95 -10.87 0 1 9.75 272.88L 21.55 285.06A 0.28 0.27 -76.97 0 1 21.62 285.18Q 22.52 288.85 26.76 290.31A 0.81 0.81 -72.61 0 0 27.81 289.76C 28.61 286.79 27.51 283.67 27.04 281.94A 27.77 27.67 37.3 0 1 26.08 274.94Q 26.05 271.84 25.51 266.44C 25.42 265.51 25.99 264.47 25.85 263.73Q 25.34 261.03 26.06 257.7A 3.37 3.35 48.46 0 0 26.12 256.67C 25.67 251.83 27.37 246.13 27.74 241.45Q 28.21 235.63 28.38 233.28A 8.91 8.03 -38.21 0 1 28.65 231.71Q 29.39 229.04 31.4 223.55Q 31.41 223.51 31.42 223.47L 32.45 216.71A 4.69 4.53 -29.95 0 1 32.79 215.53Q 34.06 212.59 35.44 207.29Q 36.77 202.16 37.52 199.33Q 38.86 194.31 38.81 188.25C 38.76 183.02 37.63 175.73 37.83 169.58Q 37.99 164.88 38.09 152.01C 38.11 148.7 38.83 144.12 38.47 139.95A 3.54 3.4 -43.83 0 1 38.51 138.97C 40.06 130.17 38.97 120.99 41.23 112.48Q 42.13 109.08 42.72 105.11A 1.32 1.28 71.74 0 1 43.07 104.39Q 43.71 103.73 43.78 102.74Q 44.1 98.08 45.24 94.51C 45.99 92.14 45.88 90.19 46.43 87.93A 3.65 3.49 72.41 0 1 47.12 86.52Q 49.28 83.8 50.12 79.28A 1.91 1.78 -29 0 1 50.24 78.91L 54.81 68.97A 1.69 1.56 -16.05 0 1 54.95 68.74C 57.23 65.9 57.69 63.2 59.95 60.34Q 61.24 58.71 61.57 58.19Q 62.87 56.16 67.32 50.06Q 67.91 49.26 68.52 47.45A 1.34 1.31 84.69 0 1 69.11 46.72Q 71.27 45.48 72.19 43.06A 1.69 1.64 -7.67 0 1 72.78 42.31Q 74.68 41.01 76.29 38.67A 1.25 1.2 -79.86 0 1 76.95 38.19L 79.46 37.46A 0.29 0.28 67.05 0 0 79.62 37.05Q 79.38 36.63 80.17 34.87A 1.09 1.07 5.46 0 1 80.92 34.26L 82.99 33.79A 1.44 1.37 -74.74 0 0 83.75 33.33Q 83.87 33.19 87.17 29.6Q 88.57 28.08 90.61 27.55A 2.45 2.43 14.8 0 0 91.7 26.92Q 94.25 24.36 96.98 23.64A 1.91 1.87 12.46 0 0 97.93 23.05C 100.47 20.05 103.95 20.33 106.36 17.27A 1.87 1.82 -78.02 0 1 107.29 16.65L 111.54 15.41A 0.66 0.64 9.95 0 0 111.88 15.18L 112.22 14.75A 0.87 0.85 12.04 0 1 112.68 14.46Q 116.71 13.55 122.09 11A 6.08 5.78 23.23 0 1 122.98 10.67Q 129.21 9.04 134.68 6.41A 0.74 0.57 -52.63 0 1 134.9 6.35L 140.95 5.54A 2.16 2.14 -66.42 0 0 141.95 5.14L 142.25 4.92A 0.45 0.43 19.74 0 1 142.43 4.84L 151.96 2.54A 9.14 8.12 6.71 0 1 153.22 2.32L 174.76 0L 191.17 0ZM 322.59 222.6Q 322.57 223.04 322.74 223.23A 0.48 0.48 -40.46 0 0 323.39 223.28Q 323.76 222.97 323.83 222.96A 0.29 0.29 11.01 0 1 324.13 223.4Q 323.77 223.93 323.4 224.49Q 322.93 225.17 322.78 226.77Q 322.35 231.54 321.46 235.96Q 320.26 242.02 320.15 245.14Q 319.84 254.21 320.02 259.46A 4.54 4.52 -71.85 0 0 321.73 262.86L 324.77 265.27A 0.61 0.43 -9.83 0 0 324.96 265.36L 334.28 267.85A 1.19 1.18 10.54 0 0 335.76 266.84Q 336.71 258.3 335.77 249.83Q 335.53 247.7 333.43 243.95A 3.98 3.22 24.93 0 1 333.19 243.46Q 332.46 241.71 331.87 238.06Q 331.66 236.81 330.24 233.67Q 329.73 232.52 328.85 231.79A 0.33 0.28 -84.85 0 1 328.76 231.66L 325.64 223.18A 1.14 1.14 74.66 0 0 324.36 222.45Q 323.41 222.62 322.96 222.39A 0.25 0.25 15.18 0 0 322.59 222.6ZM 180.57 390.23A 0.22 0.22 50.56 0 0 180.53 390.66L 183.6 391.19A 0.22 0.21 -79.47 0 0 183.85 391.01L 183.9 390.69A 0.32 0.31 -84.42 0 0 183.6 390.32L 180.57 390.23Z" fill="#000000"/><path d="M 215.42 382.77A 0.09 0.09 7.37 0 0 215.42 382.95Q 217.03 383.11 217.13 383.12C 213.43 383.68 211.03 384.37 207.74 384.51Q 206.19 384.57 204.14 385.26A 5.12 4.69 -55.67 0 1 203.33 385.45Q 200.68 385.78 198.22 385.86Q 191.6 386.09 161.74 386.05Q 149.97 386.03 141.94 383.46C 137.56 382.06 133.54 381.99 129.81 380.42Q 123.61 377.8 115.61 376.56A 0.68 0.67 0.37 0 0 114.83 377.32Q 115.49 381.91 116.39 385.74C 117.35 389.86 119.6 394.79 120.01 399.51Q 120.23 402.07 121.04 407.4C 122.16 414.76 122.62 421.28 123.26 428.25C 123.76 433.7 122.55 440.93 122.39 445.57Q 122.09 454.7 120.19 468.26Q 119.31 474.54 118.19 478.11Q 115.22 487.54 115.23 487.77C 115.38 490.58 108.4 495.64 114.5 498.5Q 118.79 500.5 123.29 502.41A 1.27 1.27 -43.05 0 1 123.96 503.08L 124.76 504.95A 0.38 0.38 -72.66 0 0 124.97 505.16L 127.22 506.13A 0.86 0.85 7.59 0 1 127.73 506.79C 128.68 512.37 125.82 513.49 121.79 516.04C 117.63 518.67 114.13 518.48 109.42 516.37C 102.35 513.2 95.51 510.54 90.82 505.3A 1.75 1.68 -72.37 0 1 90.4 504.45Q 90.03 502.34 90.63 501.12C 93.4 495.4 97.14 487.95 98.3 480.81Q 98.54 479.33 101.14 468.65Q 101.46 467.34 101.56 465.01Q 102.63 438.79 101.52 414.58A 3.95 3.75 35.39 0 0 101.32 413.56Q 98.4 405.36 97.63 397.2Q 97.42 395.04 94.64 389.44A 3.9 3.88 -61.1 0 1 94.26 388.11L 93.78 383.71A 0.9 0.7 -69.1 0 0 93.69 383.42L 90.56 377.4A 2.23 2.21 30.69 0 1 90.3 376.4C 90.1 371.16 86.22 369.9 83.8 366.06A 4.51 4.36 3.24 0 0 82.72 364.89Q 67.03 353.18 55.7 338.97C 54.27 337.17 53.26 334.88 51.11 333.71A 0.07 0.07 39.37 0 1 51.08 333.68L 46.25 326.4A 0.2 0.04 79.1 0 1 46.23 326.35Q 44.13 319.21 40.78 313.91A 6.41 6.27 -70.93 0 1 40.18 312.64Q 38.8 308.55 36.76 305.34A 1.86 1.67 -72.91 0 1 36.57 304.93L 32.36 290.98A 2.14 1.89 -59.87 0 1 32.29 290.63Q 31.83 285.56 31.23 282.47C 30.12 276.76 29.95 273.26 29.32 268.33Q 28.92 265.19 29.14 262.15C 29.66 255.05 29.8 249.45 31.06 243.09Q 31.49 240.9 32.11 235.13C 32.74 229.24 35.06 223.63 36.03 217.53Q 36.83 212.51 37.37 211.14C 40.35 203.54 42.94 197.71 42.49 191.6Q 42.22 187.97 42.19 186.4Q 41.77 162.51 41.74 151C 41.72 143.25 43.28 134.64 43.89 126.9Q 44.58 118.29 46.48 102.38A 5.83 5.64 61.78 0 1 46.95 100.72Q 49.34 95.48 50.44 89A 6.51 6.49 -28.55 0 1 50.87 87.55L 58.63 69.6A 1.14 1.1 77.85 0 1 58.78 69.36L 60.92 66.47A 1.08 0.85 -19.9 0 0 61.05 66.26L 64.35 58.56A 1.81 1.69 -16.48 0 1 64.55 58.22Q 70.39 50.61 77.18 43.35C 78.53 41.9 80.34 41.4 80.54 39.06A 0.68 0.67 84.33 0 1 81.02 38.47L 82.91 37.89A 0.68 0.65 12.81 0 0 83.23 37.7L 86.17 34.65A 1.32 1.09 -77.07 0 1 86.43 34.45Q 91.57 31.87 94.52 28.77A 1.7 1.69 -75.22 0 1 95.37 28.27Q 96.34 28.04 97.05 27.54C 100.7 25.02 104.76 23.63 108.16 20.9A 3.92 3.86 -72.97 0 1 109.4 20.23Q 110.87 19.75 112.38 18.68C 115.21 16.66 118.47 16.01 124.05 14.53Q 126.05 14 132.97 11.22C 135.88 10.05 139.81 9.86 143.05 8.9Q 150.79 6.6 157.98 5.9Q 170.99 4.65 176.98 4.22Q 184.4 3.7 200.28 5.13Q 203.61 5.43 219.72 6.3Q 220.82 6.36 224.64 7.85A 15.76 15.74 -28.78 0 0 227.33 8.63C 235.73 10.28 243.73 13.65 251.55 15.51Q 254.02 16.09 257.12 17.54Q 267.94 22.6 278.12 29.29Q 288.23 35.93 293.93 42.25C 296.94 45.58 299.33 49.06 303.03 53.9C 304.65 56.02 306.22 57.06 306.56 59.99A 0.75 0.73 89.94 0 0 307.2 60.64Q 307.53 60.68 307.52 60.73Q 307.45 61.32 306.78 61.39Q 298.3 62.23 291.39 63.92C 287.33 64.92 285.11 66.37 280.37 68.87A 4.77 4.58 -80.51 0 0 279.2 69.74L 271.72 77.21A 3.6 3.4 -9.72 0 0 271.12 78.01L 265.74 87.56A 0.72 0.72 -63.24 0 1 264.83 87.86Q 264.29 87.63 263.94 87.16A 1.27 1.25 -10.81 0 0 263.22 86.68L 258.52 85.61A 7.86 7.25 25.03 0 1 257.46 85.28Q 251.33 82.84 247.49 82.53Q 230.91 81.17 218.76 82.51Q 215.11 82.91 209.58 85.2A 6.23 6.15 26.9 0 1 208.55 85.53L 207.03 85.87A 6.97 6.84 -64 0 0 205.51 86.41L 196.3 90.92A 0.72 0.61 4.49 0 0 196.08 91.08Q 194.19 93.26 191.49 94.53A 0.92 0.91 -22.13 0 1 190.24 94.01Q 187.05 84.85 179.65 78.14Q 167.56 67.2 153.08 64.22Q 146.1 62.79 136.03 63.27Q 126.96 63.71 119.53 67.16Q 101.68 75.46 94.59 94.56Q 92.55 100.06 91.29 109.21Q 90.71 113.41 91.14 116.8Q 91.8 122.1 92.46 124.31Q 93.79 128.76 94.41 131.53A 6.45 6.41 24.85 0 0 95.01 133.15Q 98.88 140.37 103.12 145.59Q 107.83 151.39 114.36 154.81Q 123.39 159.55 130.38 161.12Q 137.64 162.75 154.41 161.79A 1.74 1.72 -54.77 0 0 154.86 161.71L 162.89 159.35A 1.19 1.11 -70.19 0 0 163.26 159.16L 168.9 155.13A 0.33 0.33 11.76 0 1 169.42 155.33C 169.9 157.33 169.98 160.53 170.89 162.69C 174.71 171.79 178.28 177.84 187.38 181.73A 5.04 4.94 55.8 0 0 189.31 182.12L 204.08 182.12A 5.85 5.82 -60.2 0 0 207.06 181.3Q 212.16 178.24 212.87 177.44Q 215.36 174.63 216.43 173.63A 5.55 5.3 -7.87 0 0 217.39 172.42Q 221.31 165.78 222.27 158.45A 0.47 0.47 -71.46 0 1 222.97 158.1Q 225.69 159.67 228.98 159.86C 234.37 160.17 240.01 159.84 246.04 159.75Q 248.59 159.71 250.55 158.26A 0.71 0.7 67.18 0 1 251.66 158.72L 252.47 163.61A 1.18 1.13 -67.54 0 0 252.64 164.05L 258.46 173.13A 1.49 1.44 86.88 0 0 259.01 173.64Q 259.69 173.79 263.3 175.69C 272.84 180.71 281.64 177.2 287.69 169.18Q 287.83 168.99 288.4 167.26A 1.97 1.89 -14.95 0 1 288.88 166.47Q 290.95 164.34 291.37 162.71Q 293.06 156.1 294.22 152.33A 0.65 0.65 -64.5 0 1 295.2 151.98Q 297.68 153.61 300.24 153.99Q 310.05 155.48 318.82 154.25A 1.42 1.41 81.49 0 1 320.41 155.43Q 322.25 166.8 321.16 177.56C 320.32 185.89 319.72 192.72 319.85 200.82C 320.04 212.94 320.48 219.63 319.66 224.73Q 318.33 232.99 318.18 235.74Q 317.81 242.66 317.68 247.86C 317.59 251.1 316.85 254.85 316.24 257.38A 0.78 0.78 -62.17 0 1 314.96 257.78Q 301.58 245.72 286.67 237.68Q 284.98 236.77 281.22 235.52C 274.89 233.42 270.55 233.63 264.05 236.66C 262.2 237.52 260.9 239.35 258.74 240.43A 2.02 1.97 0.73 0 0 257.93 241.2Q 255.61 245.28 252.97 246.87A 0.81 0.8 -24.54 0 0 252.62 247.8Q 253.41 250.27 255.5 251.98A 0.89 0.89 -31.55 0 1 255.82 252.62L 256.01 256.56A 1.59 1.59 28.57 0 0 256.22 257.27Q 256.49 257.71 257.46 258.16A 1.32 1.31 0.78 0 1 258.12 258.83L 260.67 264.78A 1.11 1.09 -0.47 0 0 261.29 265.38Q 267.15 267.58 270.58 263.42A 0.98 0.93 1.43 0 1 270.79 263.23L 277.22 258.94A 1.16 1.15 -33.83 0 1 278.82 259.25Q 279.98 260.97 281.28 261.66C 284.18 263.18 285.59 264.83 288.95 267.13Q 291.68 269.01 293.68 270.88Q 304.75 281.24 306.74 282.84Q 308.09 283.92 309.52 284.34A 1.36 1.35 -82.24 0 1 310.49 285.63C 310.49 289.69 310.06 293.86 308.7 298.37C 307.27 303.14 306.18 309.84 304.38 314.39C 303.05 317.74 302.38 321.18 300.61 324.8Q 294.39 337.51 286.36 348.11Q 284.6 350.44 273 361.94A 12.18 12.15 -83.73 0 1 271.06 363.5C 269.56 364.47 267 365.55 266.38 367.53Q 265.42 370.61 266.33 372.78Q 269.4 380.14 269.79 385Q 270.25 390.64 270.55 392.88A 9.84 9.2 -60.74 0 0 271.05 394.91Q 273.47 401.57 273.71 404.75Q 274.45 414.28 273.92 437.24Q 273.81 442.27 272.34 449.64Q 270.7 457.87 269.8 466.51Q 269.13 473.01 266.32 479.3Q 265.59 480.93 266.02 486.52A 1.63 1.63 -75.52 0 0 266.75 487.76C 269.35 489.47 271.95 490.4 274.74 491.4Q 278.45 492.73 279.52 494.05C 281.5 496.5 281.09 500.15 278.64 502.35Q 275.19 505.46 271.16 505.01C 265.69 504.41 261.48 502.58 255.85 501.58Q 249.8 500.5 244.71 497.53A 0.98 0.97 -77.7 0 1 244.24 496.79Q 243.92 493.47 244.65 491.83Q 247 486.45 247.96 482.51C 249.03 478.06 250.54 474.89 251.28 470.5C 252.58 462.72 254.45 451.53 254.63 442.77Q 254.78 435.87 255.13 431.98Q 255.63 426.45 255.23 421.21C 254.67 413.94 254.43 402.07 252.93 392.57Q 252.12 387.43 251.4 382.6Q 250.89 379.22 248.76 377.38A 1.39 1.39 54.7 0 1 249.16 375.04Q 253.1 373.49 255.87 371.08A 0.32 0.3 52.77 0 0 255.92 370.66L 255.77 370.46A 0.1 0.09 57.17 0 0 255.65 370.43Q 253.52 371.69 249.66 372.12Q 248.44 372.26 247.82 373.05A 1.1 1.1 -81.97 0 1 247.37 373.39L 237.97 377.19A 1.27 0.89 -39.35 0 1 237.81 377.24Q 231.8 378.29 226.59 381.27A 3.29 3.29 27.2 0 1 225.28 381.69L 215.42 382.77Z" fill="#ffbb1c"/><path d="M 169.06 138.76L 167.47 141.01A 0.24 0.1 -67.5 0 1 167.41 141.07Q 164.17 143.15 159.21 145.96Q 156.06 147.75 153.07 148.11Q 141.87 149.46 131.2 147.6A 4.42 4.29 61.12 0 1 130.25 147.31Q 122.28 143.68 115.82 138.89C 114.52 137.92 112.65 137.81 112.31 136.31Q 112.13 135.52 111.3 134.56C 107.09 129.74 105.74 122.7 104.17 116.12C 102.99 111.15 102.92 103.99 104.43 97.71C 106.16 90.53 106.4 87 108.57 82.83A 8.41 7.63 80.84 0 1 109.35 81.63Q 112.12 78.13 117.04 73.73C 119.48 71.54 122.5 70.49 124.44 68.89A 3.14 3.12 21.56 0 1 126.07 68.19C 129.81 67.74 134.14 66.5 138.09 66.34Q 160.16 65.43 176.45 79.72Q 178.97 81.93 180.93 84.84C 184.38 89.97 187.23 92.95 185.88 98.65A 2.23 2.18 72.16 0 1 185.45 99.51Q 179.37 107.01 178.53 109.08Q 177.19 112.4 174.85 116.14Q 174.26 117.07 173.78 119.99A 4.62 4.56 63.05 0 1 173.35 121.34Q 169.81 128.46 169.79 136.47A 4.06 4.04 62.82 0 1 169.06 138.76Z" fill="#ffffff"/><path d="M 278.47 96.42C 279.9 94.26 279.99 90.89 280.13 87.49A 1.62 1.6 -20.58 0 1 280.64 86.39Q 282.81 84.33 284.4 80.9Q 284.79 80.06 288.3 76.74A 2.93 2.86 15.28 0 1 289.6 76.02Q 291.42 75.57 293.34 73.35A 4.09 4.09 7.84 0 1 294.7 72.32C 297.99 70.79 300.51 68.76 304.37 68.11Q 304.48 68.09 314.52 67.81Q 318.51 67.7 322.96 68.37A 2.81 2.75 63.97 0 1 323.92 68.71L 330.87 72.85A 0.65 0.61 83.49 0 1 331.06 73.01Q 332.12 74.28 335.43 76.58Q 339.13 79.16 340.91 83.84Q 342.74 88.61 344.92 93.06C 346.05 95.37 345.94 98.34 346.03 101.22Q 346.27 109.69 345.8 117.87Q 345.65 120.39 344.43 122.81Q 342.22 127.18 340.31 134.23C 339.34 137.83 333.2 140.25 328.08 142.69A 11.71 11.58 29.36 0 1 324.14 143.77Q 315.62 144.55 308.08 143.52A 5.17 5.14 61.67 0 1 306.46 143.03Q 302.59 141.1 298.51 139.39Q 297.15 138.82 294.83 135.38A 0.87 0.8 24.18 0 1 294.74 135.17L 291.74 119.38A 4.44 3.92 31.1 0 0 291.45 118.46L 287.18 109.05A 2.07 1.58 -82.37 0 0 287.02 108.77L 278.48 96.83A 0.37 0.34 45.29 0 1 278.47 96.42Z" fill="#ffffff"/><path d="M 220.45 146.03L 217.41 163.58A 3.81 3.79 -27.51 0 1 217.07 164.65Q 213.27 172.33 207.82 177.1A 3.25 3.17 -72.25 0 1 206.5 177.8Q 199.35 179.7 191.45 178.74C 182.89 177.7 177.63 171.23 174.56 163.55A 5.03 4.99 30.75 0 1 174.24 162.31Q 173.53 156.63 172.3 151.26Q 172.1 150.38 172.03 143.9C 171.97 138.7 173.76 133.37 174.25 127.92A 1.89 1.67 -35.18 0 1 174.38 127.37L 178.66 116.76A 1.79 1.26 -84.35 0 1 178.77 116.55Q 179.73 115.1 181.54 111.62C 185.51 103.96 193.98 95.77 201.57 92.08Q 208.43 88.75 215.19 86.76Q 218.51 85.78 224.26 85.58Q 240.69 84.99 250.77 86.43Q 253.58 86.84 257.35 88.39Q 260.68 89.76 261.87 89.93C 264.7 90.33 266.25 92.47 268.99 94.2Q 276.35 98.84 280.86 107.06A 1.62 1.6 87.05 0 0 281.65 107.78L 282.17 108.01A 1.13 1.07 -1.72 0 1 282.7 108.48Q 288.93 119.38 290.66 130.47A 4.63 4.32 -61.46 0 0 290.89 131.36C 292.81 136.5 292.14 144.11 291.34 149.81Q 291.31 150.03 291.05 151.14Q 288.52 162 287.11 164.32Q 283.29 170.61 277.89 173.21Q 272.88 175.62 265.27 173.02Q 261.8 171.83 258.57 167.59Q 256.67 165.1 255.27 159.56C 252.81 149.83 251.54 145.04 252.15 136.71A 1.13 1.1 -18.33 0 1 252.56 135.92L 257 132.29A 1.03 1.02 77.14 0 0 257.35 131.73Q 258.83 125.57 257.61 121.4C 256.21 116.64 247.13 113.91 242.86 113.61C 240.31 113.44 237.84 112.65 235.1 112.89Q 226.58 113.62 218.68 116.83A 1.08 1.07 81.22 0 0 218.01 117.75Q 217.88 119.92 215.26 120.18A 1.17 1.16 88.35 0 0 214.2 121.31L 213.88 132.76A 1.24 1.24 2.35 0 0 215.06 134.04Q 217.24 134.14 218.25 135.98Q 218.96 137.28 220.11 137.64Q 220.59 137.79 221.48 138.12A 0.68 0.68 -77.17 0 1 221.92 138.82C 221.72 141.19 221.65 144.53 220.7 145.54A 0.97 0.94 -18.98 0 0 220.45 146.03Z" fill="#ffbb1c"/><path d="M 55.37 128.57L 55.9 129.46A 2.73 2.57 -65.59 0 1 56.26 130.51L 57.96 146.18A 2.52 2.46 -71.32 0 0 58.67 147.66L 62.37 151.36A 1.61 1.57 72.25 0 0 63.2 151.8Q 67.25 152.56 71.68 151.74A 1.37 1.35 -75.5 0 0 72.5 151.25L 75.47 147.49A 1.33 1.31 -22.21 0 0 75.74 146.86Q 77.94 131.49 78.41 128.43Q 78.46 128.09 78.66 127.92A 0.67 0.58 57.21 0 1 79.58 128.19Q 80.16 129.26 80.34 131.21Q 81.15 140.07 79.43 148.04A 5.08 4.93 65.2 0 1 79.04 149.15C 78.16 150.91 74.81 155.84 72.2 155.97C 64.16 156.39 60.29 156.65 55.48 149.58Q 54.07 147.5 53.95 143.65Q 53.71 135.82 54.27 128.83A 0.59 0.59 -58.16 0 1 55.37 128.57Z" fill="#000000"/><path d="M 222.97 151.88Q 223.06 151.82 223.13 151.78A 0.48 0.48 79.4 0 0 223.34 151.47Q 224.59 144.93 224.26 138.86A 0.79 0.78 8.2 0 1 225.31 138.08Q 231.62 140.38 238.33 139.7C 241.03 139.43 244.04 138.31 247.11 138.1A 0.47 0.46 84.02 0 1 247.6 138.5L 249.99 155.22A 0.34 0.34 82.13 0 1 249.71 155.6Q 236.18 157.52 223.23 155.38A 0.91 0.9 87.04 0 1 222.49 154.71Q 222.25 153.71 222.57 152.45A 1.05 1.01 80.96 0 1 222.97 151.88Z" fill="#ffbb1c"/><path d="M 70.59 187.46Q 70.22 183.21 70.95 178.61A 0.26 0.25 3.74 0 1 71.21 178.39L 72.76 178.39A 0.78 0.77 87.58 0 1 73.53 179.1Q 74.34 188.58 74.81 195.67Q 74.91 197.05 75.11 198.4Q 75.37 200.1 75.41 201.12Q 76.17 220.19 76.26 221.81A 7.26 6.82 38.01 0 0 76.45 223.04C 78.16 229.93 78.21 237.23 79.27 243.74C 79.97 248.02 79.79 255.48 80.94 261.12C 82.41 268.4 83.47 272.87 84.31 279.14Q 84.97 284.07 87.11 289.09Q 88.1 291.43 93.92 297.2A 2.35 2.34 73.01 0 0 95.08 297.82Q 102.55 299.35 110.64 297.6A 1 0.95 -64.9 0 0 110.87 297.51L 118.83 293.41A 2.07 1.58 7.63 0 0 119.11 293.25L 127.74 287.23A 1.98 0.71 -48.69 0 0 127.94 287.06Q 130.55 284.48 132.88 283.29A 1.48 1.46 88.42 0 0 133.56 282.56L 134.21 281.06A 1.22 1.2 4.89 0 1 135.04 280.37C 137.51 279.81 138.01 278.12 139.77 276.7Q 149.23 269.04 156.64 262.73A 2.31 2.23 -71.52 0 1 157.54 262.26Q 159.13 261.85 159.88 260.69C 164.44 253.65 168.42 261.42 170.94 265.24A 0.59 0.59 -66.88 0 0 172.01 264.81Q 171.97 264.56 172.44 264.21A 1.08 1.07 67.41 0 0 172.87 263.16Q 172.35 260.23 169.94 256.09A 1.31 1.31 74.85 0 1 171.07 254.12L 172.02 254.12A 1.88 1.87 78.26 0 1 173.74 255.25L 176.51 261.72A 0.42 0.42 -47.07 0 0 177.3 261.69Q 179.63 255.03 175.03 250.57A 2.54 2.54 21.99 0 1 174.25 248.74L 174.25 247.04A 0.88 0.87 26.23 0 1 175.82 246.51L 180.95 253.19A 1.19 1.15 86.48 0 0 181.29 253.5Q 181.84 253.86 183.05 253.48A 0.43 0.43 -32.86 0 0 183.21 252.75Q 183.02 252.57 182.77 252.5A 0.77 0.77 8.54 0 1 182.2 251.73Q 182.28 249.37 181.67 247.47A 2.4 2.28 -77.28 0 0 181.12 246.55Q 177.37 242.76 172.62 239.75C 169.85 238.01 165.25 240.05 162.16 241.7C 158.65 243.58 154.15 245.84 150.75 248.36Q 145.28 252.4 138.12 256.87Q 134.01 259.44 129.39 262.98C 124.62 266.64 122.53 267.4 116.81 270.56Q 113.41 272.44 111.34 274.85A 1.67 1.63 -77.68 0 1 110.55 275.37Q 106.73 276.55 103 275.67A 0.83 0.81 -86.62 0 1 102.37 274.95C 101.66 266.67 98.84 257.12 98.34 248.14Q 97.73 237.13 96.56 229Q 94.54 214.92 93.97 206.55Q 93.19 195.14 92.09 182.57Q 91.83 179.66 92.37 174.66A 0.58 0.58 37.23 0 1 93.48 174.51C 95.97 180.73 95.69 187.77 96.76 194.58C 98.1 203 97.33 211.95 99.37 220.33A 10.54 10.22 -54.11 0 1 99.64 222.2Q 99.86 226.29 100.62 230.25C 101.7 235.93 101.88 241.56 102.06 247.25Q 102.19 251.42 103.06 256.18Q 104.91 266.24 106.03 271.22A 0.94 0.94 -1.81 0 0 106.8 271.94C 110.86 272.61 110.88 269.36 113.7 268.17Q 114.7 267.75 114.71 267.74Q 120.45 264.58 122.24 263.62Q 124.45 262.43 129.39 258.89Q 139.26 251.79 147.87 246.09Q 157.46 239.74 165.48 236.26Q 171.13 233.81 176.98 237.26A 1.73 1.69 3.42 0 1 177.65 238Q 178.54 239.93 180.73 240.49A 0.95 0.92 -1.57 0 1 181.38 241.09Q 182.28 243.62 185.22 245.63A 1.99 1.98 -72.72 0 1 186.07 247.26L 186.07 257.13A 0.87 0.87 45 0 1 185.2 258L 182.8 258A 0.66 0.66 88.75 0 0 182.14 258.69Q 182.3 262.01 180.08 263.29Q 177.79 264.61 175.15 266.59C 169.87 270.54 166.9 266.37 163.43 262.46A 0.4 0.4 -40.84 0 0 162.87 262.42L 135.02 285.16A 1.33 1.27 -5.82 0 0 134.67 285.57Q 133.78 287.08 133.39 287.31Q 129.98 289.39 126.14 292.57A 7.7 7.57 -77.47 0 1 124.72 293.49Q 121.67 295.02 119.61 297.21A 1.51 1.44 8.53 0 1 119.14 297.54L 110.85 301.31A 2.6 2.38 -58.85 0 1 110.17 301.51Q 101.15 302.94 93.99 301.64Q 91.59 301.2 89.82 299Q 89.27 298.31 87.34 297.56A 1.35 1.34 86.52 0 1 86.67 296.96Q 84.52 293.04 83.74 289.94A 6.04 5.81 27.19 0 0 83.38 288.89Q 81.27 284.12 80.9 281.57Q 79.43 271.49 78.1 265.19C 75.78 254.17 75.44 242.88 73.73 231.93Q 72.11 221.5 71.94 214.5Q 71.49 195.49 71.65 182.11A 0.14 0.14 2.21 0 0 71.52 181.97L 71.51 181.97A 0.54 0.53 -5.77 0 0 70.97 182.62Q 71.52 185.07 71.18 187.48A 0.3 0.3 46.72 0 1 70.59 187.46Z" fill="#000000"/><path d="M 325.1 182.31A 1.02 1.01 -53.41 0 1 326.98 182.03Q 327.01 182.08 330.25 187.11Q 331.7 189.35 333.18 192.38C 336.19 198.51 339.61 203.93 342.08 209.88Q 346.41 220.33 348.16 224.65C 349.91 228.96 350.58 233.19 352.16 237.03Q 353.53 240.36 354.13 244.84C 354.69 249.04 356.8 252.91 357.4 257.1Q 359 268.33 355.85 278.5A 4.63 4.51 -18.68 0 1 355.16 279.85C 354.19 281.15 354.05 282.82 353.02 284.04Q 348.68 289.16 342.96 290.09C 336.92 291.08 326.25 291.28 320.6 287.57Q 311.9 281.87 301.35 272.51Q 295.24 267.09 290.73 263.61Q 282.39 257.18 279.5 255.39Q 277.47 254.13 275.51 255.75Q 273.53 257.38 271.05 258.47A 4.18 4.15 -78.35 0 0 269.8 259.3C 267.53 261.43 265.65 262.68 262.85 261.51A 0.47 0.46 30.56 0 1 262.66 260.8C 266.08 256.43 268.45 254.92 273.72 251.57A 0.24 0.1 -22.5 0 0 273.78 251.51L 274.03 251.08A 0.8 0.8 13.05 0 0 273.28 249.88Q 268.77 250.17 265.56 253.12A 1.89 1.83 -79.61 0 1 265.14 253.42L 259.86 256.06A 0.99 0.99 9.22 0 1 258.72 254.48L 266.73 246.46A 1.18 1.12 -76.16 0 1 267.09 246.23L 269.48 245.37A 0.61 0.61 -50.38 0 0 269.37 244.2Q 267.76 243.95 265.81 244.28Q 264.23 244.54 262.68 245.98Q 260.83 247.69 257.42 249.58A 0.46 0.45 0.26 0 1 256.8 248.96L 258.71 245.66A 0.63 0.56 86.83 0 1 258.87 245.46L 264.31 240.69A 1.51 1.45 13.6 0 1 264.84 240.38L 271.69 238.1A 3.61 3.51 34.54 0 1 272.87 237.9C 280.1 237.87 284.86 240.91 292.27 245.01Q 295.19 246.62 296.59 247.75C 298.53 249.31 300.77 250.51 302.32 252.75A 2.11 2.11 84.18 0 0 303.24 253.5C 305.71 254.51 308.42 257.71 310.87 259.35Q 314.04 261.48 318.79 265.29A 6.62 6.33 -12.59 0 0 320.33 266.22L 330.85 270.76A 1.64 1.54 56.3 0 0 331.45 270.9L 334.95 271A 1.04 1.01 -73.83 0 0 335.87 270.48L 336.7 269.05A 1.26 1.26 -76.49 0 1 337.71 268.43Q 339.81 268.32 339.94 265.78Q 340.45 255.49 339.52 249.87A 7.17 7.1 -62.48 0 0 338.95 248.03Q 336.35 242.4 335.77 237.59A 2.61 2.48 28.62 0 0 335.5 236.75L 332.69 231.45A 4.55 4.54 27.21 0 1 332.22 229.99Q 331.54 225.3 328.61 221.26A 0.67 0.53 -83.74 0 1 328.54 221.15L 324.49 212.02A 2.62 2.35 -61.6 0 1 324.29 211.19Q 323.79 201.74 324.03 191.75Q 324.15 186.8 325.1 182.31Z" fill="#ffbb1c"/><path d="M 29.48 295.1Q 29.68 296.79 31.22 298.43A 1.97 1.92 -70.21 0 1 31.73 299.55Q 32.28 304.63 33.78 307.95Q 37.21 315.57 37.69 317.13A 0.57 0.56 73.3 0 1 37.31 317.84Q 36.63 318.04 35.89 317.07A 1.11 1.1 -14.45 0 0 35.14 316.63C 33.17 316.38 29.13 315 27.94 313.08A 1.91 1.91 -10.37 0 0 26.68 312.21Q 23.15 311.53 21.65 307.58Q 21.41 306.95 19.7 305.72A 2.36 2.32 -87.55 0 1 19.05 305Q 14.92 297.82 13.59 291.31A 2.44 2.43 -71.46 0 0 13.07 290.26L 10.58 287.31A 1.21 1.14 20.64 0 1 10.34 286.82L 9.34 282.29A 2.74 2.68 -72.37 0 0 8.72 281.06Q 7.1 279.21 6.12 276.76A 0.95 0.95 -89.23 0 1 7.38 275.53L 8.92 276.19A 0.98 0.97 7.03 0 1 9.49 276.91Q 10.01 279.66 12 280.16A 1.67 1.64 -10.27 0 1 12.94 280.8L 14.82 283.42A 0.95 0.93 -7.38 0 0 15.27 283.76C 17.79 284.68 17.84 286.85 19.51 288.26Q 22.9 291.1 24.74 293.13A 1.79 1.72 75.26 0 0 25.58 293.64L 29 294.55A 0.67 0.64 4.84 0 1 29.48 295.1Z" fill="#ffbb1c"/></svg>