<svg xmlns="http://www.w3.org/2000/svg" width="474" height="720"><g fill="none" stroke-width="2"><path stroke="rgba(128,128,128,1)" d="m252.8 35.7-.6-2.7a1.1 1.1-79.3 0 0-.4-.7q-3.7-2.4-9.5-2.3c-12 0-18.7-.4-24.4.9-4.4 1-7.6 1-12.6 1.5a1.9 1.9 24.4 0 0-1 .4c-1.4 1-4.4 1-8.4 1.4a4.6 4.6 31 0 0-1.5.4q-2.3 1-6.3 1.6a6.7 6.7-63 0 0-1.6.5q-5.7 2.6-11.5 3.6a1.4 1.4-74.3 0 0-.8.5c-1.2 1.4-3 .9-4.3 2.3a1.8 1.8-75.8 0 1-1 .5q-2.5.6-3.5 1.6a.5.5-34.9 0 1-.2.2l-4.3 1a1 1 12.2 0 0-.6.3q-.9 1.2-3.2 1.4a1.4 1.3-75.6 0 0-.9.6q-.8 1.2-3 1.4a1.3 1.3 14.9 0 0-.9.6q-1 1.2-3 1.5a1.4 1.4 15.6 0 0-1 .5q-2 2.4-4.9 3.5a3.2 3.2 13.9 0 0-1 .7q-1.4 1.2-3.2 2.3-7.5 4.5-13.2 9.5-.5.4-2.6 1.4a3.7 3.6-76.8 0 0-1 .6q-2.3 2-5.7 3.5a.6.6 4.8 0 0-.3.2l-.7 1.1a1 1-58.5 0 1-1.2.3l-.4-.2a.4.4-53.6 0 1 0-.6l5.8-5.9a1 1 72.6 0 0 .3-.5q.5-4-1.4-7c-.7-1-.8-1.6-1.2-3a.8.7 12.6 0 0-.2-.3l-5.6-5.9a1.3 1.2-11.7 0 0-.6-.3q-2.2-.7-3.5-1.8a1.1 1.1 54 0 0-1.1-.2q-.6.3-.8.9a.8.8 4.5 0 1-.6.5l-4.3.8a.7.7-89.4 0 0-.6.6q-.4 2-1.6 3.1a2 2 78.6 0 0-.7 1q-.6 2-1 2.4-.9 1-1 2.7-.3 19.5.2 39.9 0 2.9 1 5.2a4.2 3.8 35.3 0 1 .2 1.1l.8 15.7q0 2.3 1 4.2a3.6 3.5 31.5 0 1 .4 1.4l.6 15.1a5.8 5.7-56 0 0 .4 1.7c1.7 5 1 10 2.6 15.3q.6 2.3 1 8.6a7.5 7.3-57.4 0 0 .5 2q1.5 4.5 1.4 10.7a.8.8 7.2 0 0 .6.8q2.7.6 3 .9c2 1.2 5 1.2 6.7 2.6a2 2-21.1 0 0 1 .5q3.3.3 5.2 1.6a2.5 2.5 63 0 0 1.1.4q4.3.3 7.2 1.3a9 9-33.5 0 0 2.6.6q6.6.3 10.8 1 5.2 1 10.4 1.2c9 .3 18 .4 26.6-.7q8.8-1.2 10.5-1.2 5 0 8.4-1 1.8-.6 8.3-1.4a3.6 3.5 28.9 0 0 1-.2q2.3-1 7.2-1.7a2.2 2.2 22.6 0 0 1-.4l1-.7q11.3-2.6 19.4-5.5c4.5-1.7 12.6-4.3 18.3-7.3 4.1-2 7.3-3.2 11.8-5.8q4.2-2.4 9-4.2a1.2 1.2-3.8 0 0 .6-.8l2.9-10.5a.5.4 78.7 0 1 0-.2q1.2-1.2 1.6-5 0-.4.4-1 .4-.5.5-1 3-7.1 4.5-9.6l5.6-9q1.5-2.4-.7-5.9a1 1 28.1 0 1-.1-.5l-.8-10a5.3 5.2-58.3 0 0-.3-1.4c-1.8-4.8-1.4-10.3-1.7-16.5a4.5 4.5 31.8 0 0-.4-1.6c-1.2-2.7-1.2-7.2-1.6-12.6a7.6 7.5-55.8 0 0-.3-1.5c-1.5-5.2-1.3-11-2.3-15.4-1-5-1-8.6-1.4-14.3a9.5 9.3-55.8 0 0-.3-2.1c-1.4-4.7-1.1-8.9-2.3-14q-1-4-1.2-9.5a9.9 9.9-54 0 0-.3-2.2l-2-7.5a4.4 4.4-68.7 0 0-.6-1.2c-2.7-4.7-7.7-8-13.3-5.8q-3 1-4.8 3.3c-1 1.4-1 3.1-2.3 4.3a1 1 75.8 0 0-.3.6l-1 4.3a1 1-21.1 0 1-.2.5q-1.1 1.5-1 3.8.2 7.7-.7 14.1a.3.3-46.7 0 1-.7 0" vector-effect="non-scaling-stroke"/><path stroke="rgba(40,83,20,1)" d="M470.5 195.8q1.3 0 .9-1.6" vector-effect="non-scaling-stroke"/><path stroke="rgba(128,106,96,1)" d="m471.4 194.2.4-1.4q.8-9-.1-17.8a6 6-59.6 0 0-.4-1.6q-1.2-2.9-1.6-6.3a1.4 1.4-73.4 0 0-.5-1c-.4-.3-.6-.5-.7-1.1q-.7-5-3.2-9.9c-2.1-4.3-4-8.7-6.2-13l-4.3-8.6q-5.2-10.8-12-20.1a5.8 5.7-74 0 1-.8-1.4l-.7-1.5c-2.8-2.9-5.2-7.2-7.6-9.9q-2-2.4-4.8-6.6a2.7 2.5 9 0 0-.3-.5l-20.3-20.2a5 5 82.1 0 0-1-.7q-4.3-2.5-7.5-5.7a2.4 2.2 75.3 0 0-.9-.6q-2.8-.9-5.3-3.6a1.7 1.6-16.3 0 0-1-.5q-2-.3-2.8-1.5a1.3 1.2 71.4 0 0-1-.5q-3.2 0-4.9-1.4a1.9 1.9-20.3 0 0-.9-.4l-9-1.4a12.8 12.6 44.5 0 0-4 0q-6.1 1-6.8 1.3-2.9 1.4-6 2a1.5 1.5-74.5 0 0-.9.4q-2.1 2.5-5.1 3.7a3.5 3.3-75.4 0 0-1 .6q-3.6 3.2-8 7.8-1.2 1.3-3.1 4.8l-2 2.3a5.7 5.6-10.4 0 0-.9 1.2q-1.6 3.1-3.9 5.8a4.8 4.6-11.4 0 0-.6 1c-1.8 3.3-4 8.9-7.3 13a1 1 68 0 0-.3.4l-.3 3.4a1 1-68.5 0 0 .4.9q2.6 2 4.2 2.4a3 3-15.8 0 1 1.2.7q5.1 4.7 6 6.2.5 1 1 2.9a.4.4 58.6 0 0 .7.2l2.3-2.8a1 1 71.5 0 0 .3-.5q.2-1.7 1.2-2.8a2.8 2.6 79.7 0 0 .4-.8q3.4-7.7 7.1-12.7 1.6-2.1 2.1-3.8a1 .9 80.5 0 1 .2-.4l4.6-4.9a2.6 2.4 83.3 0 0 .5-.6l.5-1a2.7 2.6 85.6 0 1 .7-.8q3.3-2.7 7.4-6.5c2.2-2 4.4-2.1 6.7-3.4a6.1 6.1 0 0 1 7 .3 1 .9 68.3 0 0 .3.2l4.3 1a1.5 1.4-18.3 0 1 .6.3q1.3 1 3 1.4a2.6 2.6 72.4 0 1 1.3.6q2 1.9 4.8 3.2a5 4.9 79.5 0 1 1.3 1q2.2 2.2 6.7 4.9a7 7 82.3 0 1 1.3 1q7 6.8 12.7 12.7c2.6 2.7 4.7 6.4 7.6 9.7q2 2.3 4.2 5.7a5.6 5.4 8 0 0 .7 1q2.4 2.3 3.1 4.5a3.3 3.3 15 0 0 .7 1.1q3.2 3.7 5.5 9.2a3.3 3.3 14.8 0 0 .5 1q4 4.9 5.7 11.1a5.8 5.5-67.5 0 0 .4 1.1l4 8q2.7 5 3.3 11a1.5 1.5 17.8 0 0 .5 1q1.2 1 1.2 3a1 1 24.1 0 1-1.7.7l-.2-.6a1.3 1.2-4.3 0 0-1.1-1q-2.7-.1-5.4-1.7-1-.6-4.3-.4a1.8 1.8 23.5 0 0-1.1.4q-4.5 3.8-4.3 10 .1 2.7 1.3 4.2a2 2 23.6 0 1 .4 1q.2 3 3.7 2.4a.8.8-5.2 0 0 .6-.8l.2-4.8a.6.6 7.3 0 1 .7-.6h.3a1 1-85.7 0 1 .8 1l.3 6.2a1 1-76.5 0 0 .5.9q2 1 1.2 3.7a.7.7 35.2 0 1-1.3.2l-2.4-3.2a1.2 1.1-10.4 0 0-.6-.4l-2.4-.2a1.3 1.3-7.6 0 0-1.3 1.7l3.3 10.2a1 1-76.4 0 0 .2.3l4.7 5.1a1.8 1.8-18 0 0 1 .6q2 .2 4-.2a.9.9-.6 0 0 .7-.7q.5-2.2 1.5-3a1.6 1.6 76.8 0 0 .4-.9l1.2-4.4h.5a.1.1-76.5 0 0 .2 0l1-4.6a.5.5 42.7 0 1 1 0q1.1 3.9-.8 7.6a6.8 6.8 0 0 0-.8 2.6 1.7 1.7 3.3 0 0 1.8 2l5.2-.3a1 1 86.2 0 0 1-1.1q-.2-2.3 1.3-3.1a1.4 1.4 81 0 0 .6-1l.4-1.6a1.8 1.8 77.6 0 1 .6-1q.9-.7 1.6-2a.7.7-32.7 0 1 1.4.2l.1 3.1a.8.8 57.4 0 0 1.4.4l1.1-2.1" vector-effect="non-scaling-stroke"/><path stroke="rgba(177,124,103,1)" d="M470.9 194.5q-.3.1-.4 1" vector-effect="non-scaling-stroke"/><path stroke="rgba(168,189,116,1)" d="M470.5 195.5v.3" vector-effect="non-scaling-stroke"/><path stroke="rgba(89,101,27,1)" d="M470.5 195.5q.4-.4.4-1" vector-effect="non-scaling-stroke"/><path stroke="rgba(0,77,102,1)" d="m313.4 181.5 1-4.5a1.5 1.4 74.4 0 1 .4-.8l.3-.3a.8.7-12.6 0 0 .2-.3l7-20.5a2.8 2.8 75.3 0 1 .6-1l.3-.4a2.5 2.4 68.6 0 0 .6-1.4q.3-3 1.3-4.3c1-1.2.8-2.7 2-4a2.7 2.6 75.2 0 0 .4-.9q3.2-9.5 8-19.3.7-1.4.5-4.2a1.5 1.5 22.3 0 0-.4-1q-7-7.5-10-9.8-1-.7-3-.7a1.4 1.4 17.6 0 0-1.1.6q-2.4 3.3-3.6 7.3a6.8 6.2 69.2 0 1-.4 1q-4.9 9.8-5.4 12-.5 2.2-1.4 3.3a1 1 75.7 0 0-.2.3l-4.1 11a2 2-42 0 0-.2.6q-1.4 11.6.1 22.5a3.4 2.7 38 0 0 .2.5l4.1 12.2a1.3 1.3 9.7 0 0 .5.6q1 .8 1.4 1.6a.5.5-54.4 0 0 1-.1" vector-effect="non-scaling-stroke"/><path stroke="rgba(40,83,20,1)" d="M282.2 172.2q1.7 8.3 2.6 11 1.3 3.7 5.6 11.3 3.4 6 13.7 16.1a7.1 7 81.6 0 0 1.5 1.1q2.5 1.4 5 3.6a2.8 2.7 71 0 0 1.2.6q1.7.4 2.6 1.4a1.6 1.6-15.6 0 0 1 .5q1.4.2 3 1.4c1 .8 2.2 1 3.2 1.2a.7.7 43.7 0 1 0 1.3q-3.2.7-6.8-.4a.6.6 9.5 0 0-.7.5c-.1 3 1.3 5.5 1.6 7.9q.4 3.1 1.7 7a12.2 12-56.4 0 1 .5 2.6c0 1.4.2 2.5.5 4q4 16.8 8.1 37.4.4 2 1.2 3.2a1 1 66 0 0 1.2.5q3-1 4.9-3.6c3.1-4.4 7-8.5 9.5-13q4.5-7.5 6-10.3a5.6 5.3 66 0 0 .5-1.5q.6-3 1-3.7c1.5-2.2 1-4.7 2.5-6.9a1.9 1.8-24 0 0 .3-.7l1-5.7a.4.3-28.1 0 1 0-.2q1.1-1.5 1.3-4.9.5-12.1 0-23.1c-.2-4.1-1.4-7.3-1.9-11q-.7-4.6-2.7-10.6-1-3.1-1.5-5.8-.7-3.3-2-5.7-1.9-3.5-2-4.8a.6.6-86.3 0 0-.5-.6l-10.6-2a4 3.9-37 0 0-.6-.1l-13-.3a.8.8-78.4 0 0-.9.6q-2 4.7-4 11.5-1 3.6 2.1 5.2 5 2.5 7.4 3.4a.5.5 45.6 0 1 0 1c-4.3 1.4-7.1-.5-11-2a3.4 3.3 77.3 0 1-1-.7q-7.4-7-9.6-16.6" vector-effect="non-scaling-stroke"/><path stroke="rgba(80,113,65,1)" d="M304.1 172.3q-3.6-12.7-2-22.1 1.2-6.5 2.8-11.5.6-1.7 3.8-8.3c1-2.2 1.1-3.2 1.8-5.4a2 1.9 75 0 1 .4-.9q1.1-1 1-2.9a1.2 1.2 22.8 0 0-.3-.8q-2-2-4-2.6a2.4 2.3 72.6 0 1-1.1-.5l-5-4.6a2.4 2.3 72.3 0 0-1-.5q-1.9-.5-3.3-2.2a.6.6-61.7 0 0-1.1.3q-.5 3.5.3 7a2.3 2.1-72.9 0 0 .5 1q1.2 1.3 2 1.7a2 2-56.7 0 1 .7 3.3q-2.2 2.3-3.6 5a5.4 5 78.3 0 1-.4.9q-4.6 5.9-7 12.3c-1.4 4.2-3.4 7.9-4.3 12.3l-1.7 7.7q-1.1 5.2-.4 10.7" vector-effect="non-scaling-stroke"/><path stroke="rgba(120,196,84,1)" d="m304.1 172.3-7.6-.9-3.4-.7c-3.6-.7-7.4.8-10.9 1.5" vector-effect="non-scaling-stroke"/><path stroke="rgba(128,106,96,1)" d="M18.6 167v-7.8a.8.8-14.3 0 1 .5-.7.8.8 77.3 0 0 .4-.6l.8-9.2q0-.4.8-1a1.4 1.4-15.4 0 0 .5-.8c.4-2.3 1.8-3 2.5-4.9.8-2.3 4.4-6.3 6.7-6.2a1 1-76.9 0 0 1-.6q.4-1 3.3-1.4 7.6-1 14 .9l9.4 4.8a.7.7 79.8 0 1 .2.2l6.2 6.2a.4.4 28.7 0 0 .7-.2l.5-2.4a2 2 73.8 0 1 .6-1l3.5-3.5a3 3 18.1 0 1 1.7-.9q1.3-.2 1.9-.8a2.9 2.9-71.8 0 1 1.7-1l4.3-.5a.5.5-29 0 0 .3-.8q-2.4-2-5-3.1a5 4.8-10 0 1-1.1-.9l-4.3-4a2.5 2.4-12.7 0 0-1-.5q-1.7-.6-2.3-1.2c-2.8-2.6-5.9-3.9-8.8-6.4a2.4 2.3 72.4 0 0-.9-.5q-1.8-.5-2.8-1.3a2.4 2.4 69.5 0 0-1-.4q-2.8-.6-5-1.8a2.1 2-23.7 0 0-.8-.3q-8-1.2-17.8-.2a2 2-70.5 0 0-1.1.6l-.3.3a2.2 2.2 17.1 0 1-1.2.6q-1.8.3-2.8 1.4a2 2 13.2 0 1-.9.5l-2 .6a1.5 1.5 13.7 0 0-.6.4l-7.6 7.6a.5.4-13.7 0 0-.1.1q-1.7 3.6-4 6.2a2 1.9 73.2 0 0-.4.8q-.6 2.8-1.7 4.8a3.6 3.6 62.3 0 0-.3 1.2c-.5 3.5-.4 4.7-1.6 7.7q-.5 1.2-.6 4-.3 17.2.1 24.8.1 2 .8 2.7a1.2 1.2-70 0 1 .3.7l1 10.5q.1 1.3.9 2a1.1 1.1 16 0 1 .3.6l1 4.9a1.1 1-77.7 0 0 .3.6l.3.2a1.6 1.6 16.2 0 1 .4.9l.9 4.3a.7.7-74.3 0 0 .2.3l.7.7a1 1 17.8 0 1 .3.6l.8 4.3a1 1-79.6 0 0 .5.7l.2.2a1.6 1.6-73.7 0 1 .5.9l.8 4a1.5 1.4 16 0 0 .5 1c1.2 1 1 3 2 3.9 1.3 1.2 1 3.1 2.3 4.3a1.7 1.7-73.5 0 1 .4 1l.7 3.6a2.3 2.3-74.7 0 0 .7 1.3q.3.2.5.7l6.4 11.6a7.3 7.2 10.2 0 0 1 1.4q2.3 2.6 3.5 5.3a3.6 3.5-80.8 0 0 .8 1.1q2.5 2.4 3.4 5.2a1.5 1.5 13.9 0 0 .4.6l7.2 7.2a2.3 2.2-18 0 0 1.3.6q2.1.3 3 1.7a1 1 74.4 0 0 .8.5h3.9a.8.8 58.6 0 0 .3-1.6l-.8-.4a1.3 1.2 86.8 0 1-.5-.5q-.8-1.4-1.8-1.7a.8.8 42.3 0 1-.1-1.5q.8-.3 1-.2.4.2.6.7l.3.7a1.4 1.4 71.4 0 0 1 .4c2.8.3 7 1.3 9.8.3a1.6 1.6 85.6 0 0 1-.8q.3-.7 0-3a.4.4-2.3 0 1 .4-.4l4.3.2a.9.9 31.3 0 0 .5-.1c4-2.2 3-7.8 2.6-11.2a1.9 1.8 20.9 0 0-.5-1q-1-1-1.6-2.9a1.4 1.4-89.6 0 0-.8-.7c-2.5-1-3-2.6-6.4-1.9a.6.6-15.7 0 0-.4.8q.1.4 1 .7a1 1-86.4 0 1 .7.8l.5 2.5a1 1-62.6 0 1-1.9.5q-.7-1.6-1.5-2a1 1 14 0 1-.5-.8q-.2-2.6-1.6-3a1 1-89.6 0 1-.7-.7q-.2-.8-1.7-2.1a.2.2-48.5 0 1 0-.3l.1-.2a.4.4 50.5 0 1 .6.1q1.5 2.2 4.4 1.2a.7.7-8.5 0 0 .4-.6v-4a1.1 1.1 20.2 0 0-.3-.9Q60 231 60 230.4a4.8 4 10.3 0 0-3.5-4.3q-1.1-.3-5 0a1.8 1.8 25.7 0 0-1 .2q-2.7 1.9-2.6 5.2.2 5 0 10a.6.6 86 0 1-.5.6H47a.5.5-9.8 0 1-.6-.4l-.7-4.5a.9.9 19.9 0 0-.2-.4q-4.6-5-5-6-1.8-3.9-3.2-6.2-2-3.3-3.3-6-2.1-4.9-7.4-15.4-.4-.7-.9-4a1.8 1.8 18.2 0 0-.5-1l-.4-.3a1.6 1.5-73.5 0 1-.4-.9l-.8-4.2a.9.9-76.9 0 0-.4-.6l-.2-.1a1.8 1.8 16 0 1-.6-1l-1-6a.6.5 21 0 0-.2-.3q-1-1-1.1-4.8l-.7-12.9a.2.2 75 0 0-.3-.1l-.2.1a.2.2 61.1 0 1-.3 0" vector-effect="non-scaling-stroke"/><path stroke="rgba(0,77,102,1)" d="M66.1 146.5a.3.3-28 0 0-.2.5l10.2 10.1q2.7 2.7 4.2 5.7a4.8 4.5 12.5 0 0 .6.9q2 2.4 2.5 3.3c1.6 3.1 2.8 4.4 4.5 7.4 1 1.7 3.3 4.5 4.5 5.6a.6.6 41.6 0 0 1 0l2.2-2.8a1 .8-19.9 0 0 .1-.2q1.3-3.1 3.7-5.5a1.4 1.4-19 0 0 .4-.8c.6-3.9.4-9.8-1.5-14.2q-.7-1.8-3.5-4.7-1.9-2-3.4-5.2a1.5 1.4 11.6 0 0-.3-.4l-7.5-7.7a1.6 1.5-21.9 0 0-1.1-.5h-6.7a1.7 1.7 23.3 0 0-1.2.4c-3 2.8-5.6 4.9-6.8 7q-.5.9-1.7 1.1" vector-effect="non-scaling-stroke"/><path stroke="rgba(80,113,65,1)" d="m322.6 165.8 6 .4q2.2.1 5.7 1 4.5 1 9 .7a.7.7 84 0 0 .6-.8q0-.5-.9-1.2a1.5 1.4-83.9 0 1-.4-.6q-4.5-9.8-10-18.3a3.6 3.5 17.9 0 1-.3-.6l-.9-2.3a.5.5 44.9 0 0-.8 0q-1.7 4-3.8 8.2-.7 1.3-3.7 11.1a1.2 1.1 78.9 0 1-.4.6q-.7.7-.6 1.2a.8.7 1.4 0 0 .5.6" vector-effect="non-scaling-stroke"/><path stroke="rgba(0,77,102,1)" d="M277 167.3q-10.2 5.4-19 9.5c-2.1 1-3.8 1.2-5.5 2q-1.3.7-3.7 1.6-17.4 6.7-36.2 11.3a7 6.6-52 0 1-1.2.1q-4.2.3-5.8 1c-4.3 1.5-9 1.2-13.3 2q-3.8.9-7.1 1-16.1.4-36.8.2c-6.5 0-12.8-2-19.4-2.6a1.3 1.2 67.2 0 1-.7-.3c-1.1-1-4-1-6.3-1.3a4.7 4.3-30.7 0 1-1-.3l-12.7-4a.7.6-1.6 0 1-.3-.4q-.3-.6-1.3-1a.4.4-84.8 0 0-.5.4q.2 1 .9 1.4a1.2 1.2 15.6 0 1 .5 1l.6 7.2a5 4.9-59.2 0 0 .3 1.5l1 2.4a1 1-59.6 0 1 .1.4q.4 5 1.2 7.7c1 3.3 1.2 5.7 1.5 9.2a5.3 5.3-59 0 0 .4 1.7c1.3 3.2 1.1 6.8 2.3 10 .9 2.4.6 6.5 2.4 9.7a1 .9-62.9 0 1 .1.3l.9 7.7a3.2 3.1 30 0 0 .2 1c1.6 3 1 6 2.5 9.6q.8 1.7 1 4.8a5.6 5.5-60.7 0 0 .6 2q1 2 1 2.4-.2 1.5 1.7 7.6.5 1.6.6 4.5.2 2 1.2 4.4.9 2 1 5.2a2.4 2.4-66.8 0 0 .6 1.4q1 1.1 1.2 3.6 0 1.2 1.1 4.4.8 2 1.1 5.2a4.3 4-61.7 0 0 .4 1.3q1.2 2.8 1.7 6.4a1.9 1.9-69.6 0 0 .4 1q1 1 1.2 3.3c.4 2.8 1.7 4.8 2 7.7q.2 1.6 1 4l6.3 19q.5 1.4 1.1 5.1a3.8 3.7 25.6 0 0 .5 1.3q1.1 2 1.4 4.8a1.6 1.6 22.1 0 0 .4 1q1.4 1.5 1.6 4.7a2.1 2 23 0 0 .5 1.3q1 1.2 1.2 3.3c.2 2.7 2 5.4 2.4 8.2a1 1-81.6 0 0 .5.7q1.1.5 1.3 3a1.1 1.1-.8 0 0 1 1.1q1.7 0 3 .3.6.1 2.2 1 1 .5 2.4.6l15.4.5c2.8 0 6.2 1.2 9 1.4q9.9.7 13.4.2 11.3-1.7 23-2.1 3-.1 5.4-1.1a3.4 3.1-58 0 1 .8-.2c2.2-.3 6-.5 9.3-1.6q2.9-1 7.3-1.2.9 0 2-1a2 1.9-65.4 0 1 1-.3q5.4-.6 7.4-1.7a1.4 1.3-64.2 0 1 .5-.2l5.6-1a2 2-16.2 0 0 1.5-2.8l-2.4-6.3c-.5-2-1.5-3-1.9-5q-.2-1.6-1.3-3.9-2.2-4.7-2.9-8.5-.2-1.3-1-3.5l-1-3.4q-3-10-3.6-16.2-.9-8.1 0-16.3a4.6 4.5-28.5 0 1 .5-1.6l3.6-6.9a6.8 6.8 43.6 0 1 2.9-3q10-5 20.5.6l2.6 1.3a4.5 4.5 76 0 1 1.4.8q11.9 10.6 17 17.5 6.3 8.6 12.5 19.2 5 8.5 5.4 10a.8.8 85.2 0 0 .6.5q2.6.2 3.5-.5 5-4 10.7-7.8a1.4 1.4-13.5 0 0 .7-1q.2-2.1-1.2-6.4-2.1-6.3-3.2-15-.2-2-.7-3.3c-1-2.8-1-5.3-2-8.6q-.8-2.5-1.2-5.2c-.3-2.9-1.5-5-1.7-8q-.1-2.5-1-6.1-4.3-18.7-4.9-22.4-.9-6.4-1.7-8.6a9.6 9.5 33.8 0 1-.5-2.4q0-1.7-.2-2.3-2-7.1-3.7-16.2c-1-4.5-2.3-8.4-2.3-13.2a1 1-82.5 0 0-.7-.9q-1.7-.4-2.5-1c-4-3.4-7.5-5.7-11-9q-9.8-9.6-14.4-22.4-.5-1.1-3-9.6a3.8 3.8 35.4 0 1 0-1l-.4-7.5a.6.6-15.4 0 0-.8-.5" vector-effect="non-scaling-stroke"/><path stroke="rgba(40,83,20,1)" d="M92.2 216.5q.8 1.3 2.2 5.6 1.8 5.5 7 13.4 2 3 6.4 7.4 2.5 2.3 7 7a.5.5 28.8 0 0 .8-.3q.3-1.2-.8-1.7a.9.9-76.5 0 1-.4-.8q0-4-1-7.2-1.3-3.7-1.3-4.6c0-1.7-.2-5-1.1-7a3.8 3.1 32.1 0 1-.3-.6l-4.3-20.7" vector-effect="non-scaling-stroke"/><path stroke="rgba(80,113,65,1)" d="m106.4 207-2.8-19.8a2.6 2.4 29.5 0 0-.2-.7q-1-2-1-3l-1-8.6a.2.2-33 0 0-.4 0q-3.5 5.5-6 10.7-3.3 6.5-3.2 13.4 0 8.7.4 17.5" vector-effect="non-scaling-stroke"/><path stroke="rgba(120,196,84,1)" d="m106.4 207-10 5.8a6 6-81.2 0 0-1 .7l-3.2 3" vector-effect="non-scaling-stroke"/><path stroke="rgba(128,106,96,1)" d="M467.8 198a1.1 1-50.6 0 0-1.5.3 1.1 1-50.6 0 0 0 1.5 1.1 1-50.6 0 0 1.5-.3 1.1 1-50.6 0 0 0-1.5M279.6 326.3l2 2.6a1.7 1.6-73.2 0 1 .2.5l3 9.8a1.5 1.5-27.9 0 0 2.3.7q5.5-4.4 7.9-11.4 1.6-4.8 2.5-8.8a1.3 1.3-54.5 0 0-.2-1 44.5 44.5 0 0 0-19.8-18.4c-6-3-11.3-3.6-16.8 0a6.6 6.6 83 0 0-2.6 3.4l-1.9 5.3a1.6 1.5 55.7 0 0 0 .4q-.4 10.3.1 12.6 1.5 6.2 1.8 11a7.2 7-60.4 0 0 .7 2.5q.7 1.6 1.4 5.7a.8.6 38 0 0 0 .2l4.3 13.6q3.2 6.3 4.5 9.7 2.2 6.1 4.2 9.7l4.7 9.4q2.8 5.7 5 9.3c3.6 6.2 7 12.5 11 18.3l3.6 5c2 2.8 3.4 5.5 5.7 8a4.8 4.6 12 0 1 .7 1.1c1.3 2.8 3.7 5 7 8.7 2.6 3 4.7 6.5 7.3 9.2a2.4 2.3-43.3 0 0 3.3.1q4-3.8 7.6-7.5c1.7-1.9 1-3.2-.8-4.6q-3.4-3-4.7-6.3a3.6 3.6-78.4 0 0-.8-1.2q-1.5-1.6-2.3-3c-2-3.7-4.2-7-8.1-13-2.1-3-3.6-6.7-5.4-9.6-1.8-3-3-6-4.6-9.1q-8.6-16.3-15.3-34.1-2.3-5.9-4.6-14l-4.2-14.1a.8.8 19 0 1 1.3-.7" vector-effect="non-scaling-stroke"/><path stroke="rgba(1,51,102,1)" d="M320.7 349.3h.2a.7.7 2 0 1 .5.6q.4 2.4 1.2 3.6 1.2 1.9 1.5 3.5c.4 2.3 1.6 3.4 2 5.6q.3 2 1.1 2.2a.3.3 40.6 0 1 0 .6q-1.4.7-2 .6a.8.8-4.5 0 1-.7-.6q-.5-1.7-1.4-3.5a267.3 267.3 0 0 0-21.7-38.2.5.5 42 0 0-.9 0q-2 3.8-2.6 7.8a3.5 3.4-28.2 0 1-.4 1.2q-4 7.4-8.4 11.2a3.3 3.3 60.6 0 0-1 3.5q3.4 10 9.1 21.4c.6 1.2 1 3 1.6 4.1 4.1 8.5 5.8 13.3 9.9 19.4q.9 1.4 4.1 7.6 1.4 2.6 3.9 1.9a2 2 17.4 0 0 .7-.4q4-3.3 9.5-5.8a3.3 3.3-79 0 0 .9-.6q2.6-2.5 6.7-4.9a6.6 6.3-81 0 0 1.3-1l11-10.7a6.8 6.5-10.7 0 0 1.3-2q3-6.2 3.6-9.2c.7-2.8.8-8.5-1-12q-.4-.9-1.2-4a2 1.9-74.5 0 0-.4-1l-10.5-10.6q-1.4-1.5-2-1.7-1.8-.4-2.6 1.1a1.7 1.6 84.3 0 1-.4.5l-3.8 3.5a1.2 1.2 5.4 0 1-.8.7q-2.5.6-5.3 3.6-.7.7-1.5.9l-1.8.6a.3.3-80.2 0 0 .3.4m-161.2 33.2q-.6-.3-1-.2a.7.7-9.1 0 0-.4.6q-.2 3.9.3 5 1.6 3.4 1.9 5.2a2 2 22.7 0 0 .3.8q1.4 2 1.7 5a1.5 1.4 21.3 0 0 .4.9l.5.7a5.4 5.3 19.8 0 1 .8 1.7l2.7 9.6a.3.2 19.6 0 0 .1.1l.2.3a2 2-76.1 0 1 .5.7q1.2 4 3.2 8.8c1.2 2.9 1.2 4 1.8 7a2 2-70.4 0 0 .4 1c1.2 1.4 1.1 3.1 2.2 5.1q.9 1.6 1.2 3.9a2.6 2.5-71.6 0 0 .7 1.4q1 1 1.2 4.7a1.6 1.6-69.8 0 0 .5 1l.7.8a.3.2 19.6 0 1 .1 0l3.2 9a1.4 1.2-80.7 0 0 .2.5l.4.4a1.4 1.4-71.4 0 1 .3.6l.7 3.9a2 2 17.3 0 0 .6 1q1 1.1 1.3 3a1.5 1.5-73.1 0 0 .5.9c1.4 1.2 1 3 2.2 4.3a2 2-76.4 0 1 .4.8q3 8.7 7.6 18 .8 1.7 1.2 3.5.4 1.8 2.3 3.1a1.8 1.8 64 0 0 .9.3q11.4.8 21.4 0a5 4.8-56.3 0 0 1.2-.2q5.8-2 9.5-6a1.4 1.4 72.2 0 0 .4-.7c.8-4.8-.3-8-2.6-12.4l-10.9-21.8c-2.6-5.3-4.6-11.7-7.7-17.5a2 2-66.8 0 1-.2-.5l-.7-2.9a5.8 5.6-66.5 0 0-.5-1.5q-2.9-5-3.6-9.5a.7.7 86.8 0 0-.6-.6l-8.3-.4a1 1 87.8 0 1-1-.8.8.8 87 0 1 .8-1h47.1q4 0 8-1.4 1.2-.3 8.4-.8a8.4 8.3 34.6 0 0 1.8-.3c2.5-.8 3.9-1.3 6.3-1.4q4.8 0 7.6-1.1 2.6-1 5-1.3 1.6-.2 4.9-2a1 1-31.6 0 0 .3-1.4q-2.7-4-8.7-14.6-4.3-7.6-8.6-16.4c-1.2-2.4-.7-4.4-4.7-3.7q-4.4.7-6.4 1.4c-2.9 1.1-6 .7-8.1 2.3a2.3 2.3 24.5 0 1-1.3.5q-3.8.2-6 1c-3.7 1.3-7 1-10.1 1.9-6 1.8-10.3 1.3-18.9 1.3q-1.7 0-4.1 1-1.2.4-4.2.5-14.2.4-21.4-.3l-3-1a.8.8-33.4 0 0-.3 0l-21.6-.5a1.2 1.1-22.3 0 1-.7-.2q-.3-.3-.2-.6a.4.4 24.4 0 0-.1-.5" vector-effect="non-scaling-stroke"/><path stroke="rgba(80,113,65,1)" d="M307.5 442q-3 4.4.2 8.8" vector-effect="non-scaling-stroke"/><path stroke="rgba(128,128,128,1)" d="m307.7 450.8.5 2.1a1.9 1.9 16.3 0 0 .5 1l3.9 3.8a1.8 1.8 65.6 0 0 1.4.5l11-.4a1.6 1.6 19.2 0 0 1-.6q.5-.5.9-.6 2.2-.6 4.7-1.7 0-.2-.4-.1l1.6-.7a1.3 1.3 9.7 0 0 .4-.3l7.8-7.8a1.4 1.4-16.5 0 0 .4-.7q.6-2.4 1.8-3.4a1.6 1.5-14.7 0 0 .4-.9q1.8-7.2.4-13.4a2.8 2.8 21 0 0-.4-.9q-2.7-3.9-6.1-5.1a5.8 5.7-17.5 0 1-1.3-.6q-2.3-1.6-5.4-.6-.3.1-2.2 1.8a1.8 1.8-26.2 0 0-.6 1.7l.3 1.6a.6.6-39.8 0 0 1.1.1q1-2.2 2.1-1.5a.4.4 11.3 0 1 .2.3l.6 2.7a1 1 5.7 0 0 .6.8l.4.2q.4.2.5.9 0 2.1-1.2 3.1a1.2 1.2 71 0 0-.5 1q0 4.1-3.1 7.1c-3 3-5 5.5-8 6.2a2 2 19 0 0-.9.4q-2 1.6-5.2 1a.8.8 4.2 0 1-.7-.7q0-2.3-.7-4.2a1 1-.5 0 0-.6-.6l-1.6-.5a1 1-1.2 0 1-.6-.6l-1.3-3a.6.6-50 0 0-1 .1l-1 3.8" vector-effect="non-scaling-stroke"/><path stroke="rgba(128,106,96,1)" d="M223 500q-1.8.2-2.7.7c-3.8 2.1-9.8 1.3-13.6 0q-2.2-.8-4-.6a.5.5 76.3 0 0-.5.7l4.3 10.6a1.2 1.2 12.2 0 0 .3.4q1 1 1.4 2.8a2.3 2.2-70.1 0 0 .3.8q1.1 1.5 3 5.6c2.2 5 4.3 8.3 6.3 13q1.3 3 3.6 7.5l13.3 25.9q4.4 8.7 7.6 13.6l3.2 6q1.4 2.6 3.6 5.6.6.8 3.4 6.4a3.5 3.2 13.8 0 0 .5.8q3 3.5 5.3 8.9a2.5 2.2 17.5 0 0 .3.6l2.5 3a8.5 8.4 13.4 0 1 1.3 2q2.5 5.6 7 10.8a2 2-3.3 0 0 .8.5q2.3.9 5 .1a1.6 1.5-75.3 0 0 .5-.4l3.7-3.6a1.5 1.5-13.2 0 0 .3-.6q1-2.7 0-6a2 2 16.9 0 0-.5-.7c-2.2-2.5-3-4.8-4.7-7q-1.5-1.8-4-6.2c-.6-1-.6-2.6-1.5-3.3a1.8 1.7 11.3 0 1-.7-1q-.5-2-2.8-4.5a5.3 5 12.3 0 1-.8-1.2l-11.6-22.5c-3.5-7-7.6-13.8-10.2-20.8q-.5-1.4-2.7-5.6c-2.6-5-4.7-11.1-6.7-15.3-2-4-2.7-7.5-4.5-11q-1.1-2.3-4.3-10.6c-.7-1.8-.6-4-1-5a.7.7 76 0 0-.7-.4" vector-effect="non-scaling-stroke"/><path stroke="rgba(128,128,128,1)" d="M281.3 611.5q.2-1.2 1.4-2.1a.6.6 66.9 0 1 1 .4q2.2 12.3-6.5 17.8a2.2 2.1-64 0 1-.8.3q-4.7.8-11.3 0a1.6 1.5-12.8 0 1-1-.8q-.7-1-1.8-1.6a.7.7 28.8 0 1-.3-.9q.4-.7 1.4-.7a.6.6 63 0 0 .4-1.1q-3.4-2.7-4.2-6.3-.2-.8-1-.6-.4.1-.4.6-.2 1.4-.3 9.3c0 4.4 2.3 8 5.5 10.9a1.4 1.3-68 0 1 .4 1q0 2.6 3 2.4 1.2 0 1.8 1a1 1 80 0 0 .7.5q6.3.8 13.6.2a1.4 1.4-75.9 0 0 1-.6q.7-1 2.6-1.2a1.4 1.4-69.3 0 0 1-.4l2-2a1.3 1.3 69.3 0 0 .4-1q.1-1.9 1.4-2.9a1.5 1.5-16.6 0 0 .6-1q.2-2 1.5-3a1.7 1.7 71.5 0 0 .6-1.4v-12.7a1.6 1.6 29.2 0 0-.2-.8l-6.2-9.8a.8.7 88 0 0-.2-.3l-6.2-4.2a1 1-23.2 0 0-.5-.2l-5.7-.8a.8.8-19.1 0 0-.7 1.5q3.4 3.4 3.9 5.6a2 2 16.9 0 0 .6 1.2q1.5 1.4 2 3.7a.3.3 44 0 0 .5 0" vector-effect="non-scaling-stroke"/><path stroke="rgba(208,241,192,1)" d="M115.4 122q-2.4 5.7 0 11.1" vector-effect="non-scaling-stroke"/><path stroke="rgba(128,128,128,1)" d="m115.3 133.1 1.2 7.6a2.2 2.1-67 0 0 .3.8q1.2 1.8 1.4 4.4a3.3 3.3-62 0 0 .4 1.4q2.8 5 3.8 6 10.2 10.5 12.1 12.2c1.8 1.5 4 2.4 6 3.7q1.3 1 3.1 1.2.5 0 .8.6a.9.9-10 0 0 .6.4l5.9 1a1.3 1.3 72.2 0 1 .7.3q1 1.2 2 1.2 5.5 0 9 1.3a3.6 3.6 58.3 0 0 .9.3q12.4 1.2 19.8-.3 8.5-1.7 10-1.6.4 0 1.2-.7a2 2-70.3 0 1 1-.5l4.8-.6a2.9 2.8 28.2 0 0 .9-.3q2.5-1.1 5-1.7a5.5 5.4 23.5 0 0 1.7-.6c2-1.2 4.4-1.2 6.4-2.3 1.4-.8 3-1 4.6-1.6q4.6-1.5 17.5-9.3c2-1.2 4-3.7 6.2-4.3a2.2 2.2-73.8 0 0 .8-.5q5.5-4.8 9.8-9.5c3.5-3.7 5-7.7 7.2-11.3q2.9-4.8 4-10.8a7 6.9-28.5 0 1 .4-1.6q.7-1.5.7-2 0-2.1 1.6-9.8.8-3.9 0-10a.2.2-82.2 0 0-.1-.1l-.3-.2a.8.8 18.2 0 1-.2-.4c-.2-1.8 0-7.6-1.8-9.8a2 2 23 0 1-.4-1q-.4-4-3.5-7a1.6 1.5-77.6 0 1-.5-.7q-.5-2.1-2.8-4.5-6.3-6.4-7.8-7.7a3.8 3.6-14.6 0 0-1.2-.7q-2.7-1-4.7-3.3a1.8 1.8 74.9 0 0-1-.5q-3.2-.7-7-3a5.1 4.4-15.6 0 0-1-.4l-6.7-2.4a2.5 1.2 5.5 0 0-.4 0l-10.6-2.3a1.6 1 12.8 0 0-.2 0q-5.7-.4-14.8-.2-5.7.1-8.6 1-2.7 1-7.7 1.5a4 3.8-59.7 0 0-1.3.4q-2.3 1-4.8 1.3a2.8 2.8-69.1 0 0-1.8.8l-.3.2a1.7 1.7 21.6 0 1-1.2.5q-3.4.1-4.9 1.6a1.5 1.5 18 0 1-.8.4l-3.8.5a.9.9 7.8 0 0-.7.5c-.8 1.8-3 .8-4.3 2.4-1 1.3-2.8.5-4 2q-.6.8-2.6 1.1a2 2 16 0 0-1.1.6q-2.3 2.6-5 3.4a2.3 2.3-75.6 0 0-.9.5q-2.4 2.4-3.4 3-6.3 3.6-10.4 9.4c-3 4.3-4.5 5.7-8 9.6a1.1 1.1 72.3 0 0-.2.6l-.4 1.6a1 1 80.9 0 1-.5.7c-1.5.9-1.5 2.6-2.4 4q-1.7 2.3-2.3 2.8a1.5 1.5-17.4 0 0-.5 1.1q-.1 2-1.2 2.7a.8.8-12.2 0 0-.4.5l-1.3 6.4a.7.7-15.6 0 1-.3.4q-.5.4-.5.7-.4 2-1 7.7" vector-effect="non-scaling-stroke"/><path stroke="rgba(128,106,96,1)" d="m253.2 135.8 1.5-3.3q3.2-3.4 3.6-7a1.7 1.7-19.3 0 1 .5-1.1l.4-.6q2.2-4.7 3.3-11a2.7 2.6 67 0 1 .4-.8l.4-.7a2.3 2.1-27.5 0 0 .3-.9q1.2-9 0-18.8l-2-7a.9.9-80 0 0-.3-.4q-1.2-.9-1.3-2.7a1.7 1.7 13.6 0 0-.8-1.3q-1-.6-1.1-2.2a2.8 2.8 20.7 0 0-.8-1.8l-9.5-9.4a2.5 2.5-16.1 0 0-1.2-.7q-2.4-.5-4.7-3.3a1.8 1.8 78.4 0 0-1.2-.7q-1.6-.2-2.8-1.2a2.8 2.7 73.7 0 0-.9-.5l-10.9-3.8c-2-.9-4.9-.8-7.7-1.4q-10.7-2.6-21.9-.1c-2.8.6-5 .8-7.6 1a7.2 7-57.4 0 0-2.3.5q-3 1.4-6.8 1.5a2.2 2.2 21.4 0 0-1.4.6q-1.4 1.4-4.4 1.4a2.1 2.1 20 0 0-1.6.7q-1 1.2-2.9 1.3a1.6 1.6 17 0 0-1.3.7q-.4.6-1 .8-8.5 3.7-12.6 6.8-1.8 1.3-3 1.7a.7.6-72.3 0 0-.1.1q-9.6 6-17.5 14.9-1.7 1.9-3.4 4.4-2.2 3.4-3.5 4.4c-1.5 1.2-.7 3.4-2.2 4.2a1.3 1.3-11 0 0-.8 1q0 2.2-1.3 3a1.1 1.1-11.4 0 0-.5.8q-.3 1.8-1.4 3.6a5 5-5.3 0 0-.7 1.9q-.4 3.2-1.3 5.4a7.6 7.4-30 0 0-.6 2q-1 7.2-.1 17.5.2 2.2 1 3a.8.8-74.2 0 1 .2.4l1 4.1a1.4 1.2-67.9 0 0 0 .2q3.7 7.4 6.6 10.8 3.4 4 9.9 10 .6.5 4.4 2.2l3.8 1.7 3.7 1.9a3 3-26.5 0 0 1 .3q2.3.3 4 1.4a2.4 2.4 64.6 0 0 1 .3c3.5.6 7.2.3 11.2 1.3q6.5 1.7 13.8.3c4.7-1 8.5-1 12.4-1.5a7.7 7.4 30.2 0 0 1.7-.4q2.9-1 6.3-1.6a4 3.8-63.7 0 0 1.4-.4c2.1-1.3 4.4-1.2 6.5-2.4 1.2-.6 3-1 4.6-1.5q2.7-.8 9.2-4.6l8.6-4.8a6.6 6.3-79.7 0 0 1.4-1q2.5-2.3 5-3.4a4.4 4.3-77.8 0 0 1.3-.9l14.5-14.2a2.7 2.5-11.5 0 0 .5-.7" vector-effect="non-scaling-stroke"/><path stroke="rgba(128,106,96,1)" d="m219 82 .4-.1q1.4-1 2.1-2.6.8-1.8.4-4.5a1 1 4.7 0 0-.7-.8l-1.2-.4a.7.7-81.7 0 1-.5-.7q0-.7-.5-.7-.4 0-.4.7a.7.7 82 0 1-.5.7l-1.2.4a1 1-4.4 0 0-.7.7q-.5 2.8.3 4.6.7 1.5 2 2.6l.5.1m-73.4 11q0-.7-.3-.9a.4.4-61.8 0 0-.6.2q-.5 1-2 1.9a1.9 1.9 84.4 0 0-.8 1q-1 2.8.3 6.4a.8.8-10.2 0 0 .8.5l4-.1a1.1 1.1 88 0 0 1.1-1.2l-.2-5.9a1.1 1.1-83.8 0 0-.9-1l-1-.3a.7.7 9 0 1-.4-.6" vector-effect="non-scaling-stroke"/><path stroke="rgba(168,189,116,1)" d="M180.3 111v.8" vector-effect="non-scaling-stroke"/><path stroke="rgba(128,106,96,1)" d="m180.3 111.8-8.8.2a1.5 1.5-64.2 0 0-1 .3q-3.2 2.5-4 6.5a1.3 1.3 33 0 0 .3 1l.3.2q.4 0 .5.7l.8 4.4a2 2 13.5 0 0 .5.9q3 2.8 3.4 5.1a.8.8-88.5 0 0 .7.7l1.8.4a.4.4 67.5 0 1 .2.1l3.4 3a1.2 1.1-9 0 0 .3.2l4.5 1.8a.5.4-23.2 0 0 .1 0q7.1 1.2 15.3.5a2 2 32 0 0 .5-.1l6.5-2.2a1.1 1.1-82.6 0 0 .5-.4c1-1.5 3-.7 3.9-2q.1-.3 3.4-2.8a1.6 1.3-5 0 0 .2-.2l4.4-5.3a.3.3 77.5 0 0 0-.1l.4-1.6a1 1 78.1 0 1 .3-.6q1.5-1.2 1.6-3.7a1 1-13.7 0 1 .5-1h.3a1.2 1.2-12 0 0 .7-1.2l.2-11.1a1.7 1.7-80.1 0 0-1.1-1.6q-.7-.3-.8-2a2.5 2.5 19.8 0 0-.8-1.8l-5.3-4.9a2.2 2.1 74.1 0 0-.8-.4q-5.5-1.7-11-.4a2 1.3 12.3 0 0-.4.1l-2.9 1.5a.7.7-82 0 0-.2.2l-6.3 6.4a1.1 1 75 0 0-.3.6l-.4 2a1 1 83.5 0 1-.5.7q-1.2.6-1.6 1.6a.7.7 15.1 0 1-.8.5q-2-.5-3 1.2a1.2 1.2-83.8 0 1-.7.6l-4.8 1.2" vector-effect="non-scaling-stroke"/><path stroke="rgba(40,83,20,1)" d="M180.3 111.8q.3 1-.2 2.2" vector-effect="non-scaling-stroke"/><path stroke="rgba(128,128,128,1)" d="m180 114-3.4.2a.7.7 62 0 0-.4 1.2c1.3 1 3.9 1.2 4-1.3" vector-effect="non-scaling-stroke"/><path stroke="rgba(40,83,20,1)" d="M180.3 114h.7a1.5 1.5 52.9 0 0 .4-2.5l-1.1-.5" vector-effect="non-scaling-stroke"/><path stroke="rgba(168,211,147,1)" d="M180.3 114q-.1.1-.2 0" vector-effect="non-scaling-stroke"/><path stroke="rgba(49,18,7,1)" d="M170.6 114.3q-1.4 3.2-.3 7.9a1.3 1.2-66.4 0 0 .1.3l4 6.8a1.2 1.1-88.4 0 0 .3.4q4.6 3.3 7 3.8l10 2.2q1.9.4 3.8 0a.8.8-6.3 0 0 .6-.7v-5.3a1.2 1.2-26.8 0 1 .3-.8q1.1-1.4 2-4.2a1 1-14.5 0 1 .2-.3l5.5-5.6a.5.3-68.9 0 1 .2 0l7.2-2.6a1.1 1-51 0 1 .3 0l5.3-.3a1 1 88.8 0 0 1-1v-11.2a1.9 1.8-67.7 0 0-.6-1.3l-3.7-3.7a1.9 1.8 76.8 0 0-.7-.5q-2-.7-4.4-2-.6-.3-4-.1a.7.7 87.8 0 0-.7.7v7.8a1 1 81.3 0 1-.7 1l-2.3.6a1 1-3.7 0 0-.7.8c-.8 4.3-5 7.1-8.7 3.7a2.6 2.2 41.7 0 0-3.5 0q-.9 1-3.1 1.6a1 1-3 0 0-.7.7q-.5 3-3.5 4.9a.5.5-60.6 0 1-.3 0h-5a.7.7-22.4 0 1-.4-.1l-3.7-3.7a.5.5 34.3 0 0-.8.2" vector-effect="non-scaling-stroke"/><path stroke="rgba(128,128,128,1)" d="m198.2 103.6 2.6.8a.6.6 3.8 0 0 .8-.5v-.1a5.3 2-73.6 0 0-.4-5.6 5.3 2-73.6 0 0-3.4 4.5.6.6 15.8 0 0 .4.9m-5.8 4.6 1.8 1.7a1 1-42.5 0 0 1.5 0l1.5-1.7a3.1 2.3-47 0 0 .4-3.8 3.1 2.3-47 0 0-3.8.6l-1.5 1.6a1 1-23.5 0 0 0 1.6" vector-effect="non-scaling-stroke"/><path stroke="rgba(128,106,96,1)" d="M217.5 118.2q-2.1-.5-5.4 0a.6.3 14.9 0 0-.1 0l-5.4 2.4a.5.3-71.6 0 0-.2.1c-4 3.6-8.5 7.3-8.4 12.1a1.3 1.3-1.3 0 0 1.3 1.3l3.5-.2a1 1 15.4 0 0 .8-.5c1.3-1.9 3.4-.8 4.7-2.6q.6-.8 2.6-1.1a1 1 0 0 0 .8-.8q.4-2.4 3.4-5a2.8 2.8-18.7 0 0 1-1.9q0-1.6 1.6-2.7a.6.6-55.4 0 0-.2-1.1M59.9 257a1.3.9-178.6 0 0 1.3 1 1.3.9-178.6 0 0 1.4-1 1.3.9-178.6 0 0-1.3-.9 1.3.9-178.6 0 0-1.4.9" vector-effect="non-scaling-stroke"/></g><path d="M270 0q10 3.2 12.6 13.1a1.6 1.6 14.3 0 0 .4.8q.7.6.8 1.4c.3 5.7 0 8.3 1.4 13q.8 2.8 1.1 10a2.7 2.7 36.7 0 0 .1.5l1.3 4.8a7.8 7.6-52.7 0 1 .2 2q0 6.8 1.7 11.5a3 2.9 34.8 0 1 .1.8l.7 12.9a.6.6 33.2 0 0 0 .2q1.4 3.7 1.4 4.8.1 7.5.6 9 1.8 5.7 1.6 12.2-.2 6.1 4 10.1a2.6 2.6-17.4 0 0 1.3.7q2.5.5 4.6 3.2a1.8 1.8 78.6 0 0 .9.6q2.5.7 3 1.2l4.9 5a.5.5 42.6 0 0 .7 0l2.3-4.6c.4-1 .7-2.3 1.2-2.8 1-1.1 1-3.3 2-4.5a2.5 2.4 74 0 0 .5-.8q1.2-3.8 3.8-7.5a2.4 2.3 70.7 0 0 .4-.8q1.1-4.4 3.6-7a2.1 2-17.5 0 0 .5-1q.5-2.1 1.6-3.1a2.4 2.4 79.5 0 0 .6-.9q1.5-3.6 5.3-7a1 1 79.6 0 0 .3-.4l.9-2.6a1 .9 79 0 1 .2-.3l13.8-13.8a1.6 1.5-74 0 1 .5-.4l2-.6a2 2 12.9 0 0 1-.5q2.6-3 7-3.5a1.6 1.6 15.7 0 0 1-.6l.1-.2a1.6 1.6-35.4 0 1 1-.6q9.5-1.5 19.6 0a2 2-20.2 0 1 1 .4q1 .9 3 1.5 1.5.4 5.6 2.9 1.1.7 2 1 1.7.4 2 .9a1.2 1.1 82.2 0 0 .7.6q2.8.7 5.2 3.5a1.6 1.6 80.3 0 0 .6.4l2.4.9a.8.8-15 0 1 .2.1l5.1 4.6a2.3 2.2 74.5 0 0 .7.4q1.9.6 2 .8 8.2 7.6 15.2 15.2.9 1 1.9 3.2a3 3 12.1 0 0 .5.9c2.1 2.3 4.7 4.3 5.6 7.2a2 1.9-75.6 0 0 .4.8l4.3 4.5a4.6 4.5-79.3 0 1 .8 1.2q1.5 3.2 4.4 6a2.4 1.9-89.7 0 1 .3.4l11.1 19.1a.7.6 27.6 0 1 .1.2q.6 2.1 1 2.6 1.5 2 1.6 3.4l.2.5.5.5a1.5 1.5 10.6 0 1 .5.7c1.1 3.5 3.7 7.6 5.2 11.8l3.4 9.4q.6 1.6.9 2a1.2.1 50.3 0 1 .5.8q.6 2.1.9 4a1.7 1.7-68.7 0 0 .4.9q1 1.2 1.2 3.3v25.5q-1.9 3.3-5.2 5.5a1 .9-60.7 0 1-.5.1l-3.3.2a.7.7 16.6 0 0-.5.3L461 207a.4.4 7.8 0 1-.1.1q-3.2 1.3-6.6.3a1 1 86.5 0 1-.6-.6l-.6-.7a.5.5-49.9 0 0-.8 0l-.3.6a1.7 1.7 11.3 0 1-1 .6q-4.6 1.1-8.3.3a.7.7-14 0 1-.4-.2l-5.7-5.7a2 2 22.6 0 1-.6-1.4q0-3.7-1.5-7-.8-1.6 0-4.3a2 2 47.7 0 0 0-.8q-.3-1.3-.5-1.6-1.6-2-1.8-4-.7-5-.1-11.4a1.6 1.6 70.7 0 1 .4-1l4-4a1.3 1.3 21.8 0 1 1-.3h7.4a1 1-7 0 1 1 .7q.1.7.5 1 .5.6 1 0 .4-.3.2-1l-.4-.5-.5-.1a.9.8 11.2 0 1-.5-.8q-.1-3.1-1.7-5.5a2.8 2.7 24.4 0 1-.4-1q-.4-2.4-1.4-3a.6.6-84.5 0 1-.2-.3l-3.2-8.9a1 .8 17.6 0 0-.2-.3q-2.6-2.7-3.6-7.5a.8.8 17.3 0 0-.2-.4l-2.6-2.7a1.5 1.5 18 0 1-.4-.8q-.4-2.1-1.5-3a2.3 2.3 10.3 0 1-.7-1c-1.3-3.6-4.8-5.8-6.4-9.7a3.2 3 12.2 0 0-.8-1.1q-2-1.8-4-5.7a8.3 8.1 9.4 0 0-1.3-1.7l-7.2-7.5a.4.4 15.7 0 1-.1-.1q-.7-2-2.9-4.3a2.7 2.5-8.5 0 0-.8-.6q-3-1.3-5-3.9a5.1 4.9-88.7 0 0-.6-.6c-3.2-3-6.2-6.3-10-7.9a2.4 2.4 80.4 0 1-.9-.6q-.8-1-2.7-1.4a2.6 2.6-17.8 0 1-1-.5q-3.4-2.8-7.5-3.8a1.4 1.4 76.4 0 1-.7-.4c-1.3-1.6-5.5-1.2-7-.6q-1.1.4-6.4 3.6l-8.3 8.2a1 .9 82.3 0 0-.2.4l-1 2.5a2 2 78.9 0 1-.4.6q-3.7 4-4 4.9-2 4.4-4.2 7.6c-.8 1-1 2.9-1.6 3.4-1.5 1.3-1 3.3-2.4 4.6a1.6 1.6 76.4 0 0-.6.9q-.5 2-1.4 2.9a1.8 1.8-16 0 0-.5 1q-.5 2.3-1.6 3.2a1.3 1.3-8.4 0 0-.4.5l-5.3 12.6a2.3 1.3-76 0 1-.2.3l-.5 1.1a.5.5-63.2 0 0 .2.7q1 .5 1.8 2.8a4.6 4.4-72.3 0 0 .5 1q5.5 8.3 7.6 12.3 7 13.2 13.1 30.7a6 5.5 33.4 0 1 .3 1.2q.5 3.5 1.7 6.8a7.9 7.8-57 0 1 .5 2.3q.2 3.3 1 5.3.8 1.9 1 5.6.6 15.9 0 29.5a7.9 7.8-33 0 1-.6 2.4q-1.2 3-1.8 7.6 0 .5-.6 1.1a1.5 1.5 72 0 0-.5.8q-.7 5.5-3.5 10.8-.8 1.5-1.2 3a2 2-15 0 1-.5.9c-1.1 1-1.1 2.9-2.2 4.1l-2.3 2.7a.8.8-7.2 0 0-.2.3l-1.3 2.6a2 1.8 81.8 0 1-.3.4q-3.8 4.1-6.5 7.6-1.7 2-3.7 3.7-1.7 1.6-4.4 3.6a1.9 1.9-20.6 0 0-.7 1.6l.4 9.5a2.8 2.8-61.8 0 0 .4 1.3l.9 1.5a1.7 1.7 27.4 0 1 .2.7q.5 5 1.1 6.4 1.4 3.3 1.7 7.8 0 .7 1 3.3a1.7 1.7 32 0 1 .2.5l.8 7.7a1.1 1 20.2 0 0 .3.6l.2.3a1.8 1.8 16.3 0 1 .6 1l.8 4.3a.8.8 1.1 0 0 .6.6l1.8.4a1.3 1.3-16.4 0 1 .7.4l7.9 7.8a1.2 1.1-77.8 0 1 .3.5l.7 2.1a1.4 1.3 18.2 0 0 .3.4q2.7 3.4 3.9 7.8a1 1-79.3 0 0 .4.6q.7.5.9 1.8 1 6.6-.2 11.7 0 .4-.2.6l-.4.3a1.6 1.6-13.7 0 0-.5.9q-1 4.4-3.5 7a4.5 4.3-12.4 0 0-.8 1.2q-1.2 2.6-2.1 3.6-5.4 5.9-12.3 12a3.8 3.4 9.3 0 1-1 .7q-2.5 1.1-5 3.5a2.7 2.6 8.8 0 1-.7.6q-5 2.3-8 4-1 .7-1.6.8-2 .7-1.7 3.2.3 1.4 1.3 2.7.7.9 1.4 2.5a2.9 2.8 14 0 0 .5 1l2.5 2.8a1 1-74.3 0 1 .3.4l.6 2.8a.4.4-33.6 0 0 .8.1l.8-1.1a1.6 1.6-75.8 0 1 1-.6q6.7-1 12.2.2.6.1 1 .7a1.7 1.7 75.2 0 0 1 .5q4.2 1 5.2 5.4a1.4 1.3-78.1 0 0 .5.8q1 .7 1 2.2.7 5.6-.1 13a1.1 1.1-12.1 0 1-.6.9l-.2.1a1.6 1.6-11.5 0 0-.8 1.2q-.3 2-1.7 3.5a.8.8 36 0 0 .2 1.3l4.6 2.4a.5.5-88.8 0 1 .2.2l1 2.6a.7.6-83.5 0 0 .1.1l4.6 5a2.6 2.5-78.4 0 1 .5.8q3.3 8.4 4 13.2 1.2 10.8 0 28.7 0 .3-.6 1.2a2.8 2.7 67.6 0 0-.3.9q-1.7 7.6-5.4 14.1a5 5 80.4 0 1-.5.8q-2.7 3-6 6.2c-3.7 3.5-7.8 4-12.9 4.5q-3.9.4-9-1.1a2.4 2.3 71.3 0 1-1-.5q-3.9-3.2-4.6-6.6a.4.4-77.8 0 0-.2-.2l-.5-.4a.8.8 14.2 0 1-.3-.6q-.9-6.1.2-8.5l1-3.3c1.4-5 3.1-9.6 4.3-13.7q.6-2.3 2.2-6.8 3.2-9.3 1.6-19.9a2 2-74.6 0 0-.7-1.2q-1-.8-.8-2.4a1.5 1.4 3.5 0 0-1.4-1.5q-9.7 0-11.5-.2a3 3-17.3 0 1-2-1l-6-6.7a3.3 3-79.2 0 1-.5-1q-1-2.4-1-7.5.1-4.7 1.9-8 1-2-.2-3.2c-2-2-3.1-4.1-5.6-7.2q-2-2.5-3.7-5.4-1.3-2.3-4.6-5.3a2.2 2.2-17.5 0 0-1-.5q-2.7-.6-5.2 1.3a1.4 1.3 17.4 0 1-.5.3l-8.4 2.1h-.2l-5.4.9a1.6 1.5 18.8 0 0-.8.3q-.8.8-1.6.8-9.8.1-18.1 2.2a2.9 2.8 38 0 1-.7 0H213a1 1-88.4 0 0-1 1q0 2 .8 2.9c1.1 1.2 1.2 1.7 1.6 3.2a1.6 1.6-78 0 0 .5.8q1 .9 1.5 3a2 2-72 0 0 .4.8q1.4 1.7 1.5 5a1.6 1.5 20.1 0 0 .5 1.1q1.1 1 1.6 3.2a1.7 1.7-77.1 0 0 .5 1q1 .9 1.5 3a1.5 1.4 14.9 0 0 .5.9c1.3 1 1.1 3.3 1.9 4.7q2.8 5.2 4.4 7.6c.9 1.3 1.1 3.6 2.3 4.3a.5.5-82.5 0 1 .2.3l.7 2.2a2.3 2.3-74.2 0 0 .5.8q1.1 1.4 1.5 3.2a1.6 1.6-74 0 0 .4.8q1.3 1.2 1.6 3.5a.7.7 6.2 0 0 .4.5q.8.3 1.2 2.4 1.4 6.9-.1 10.8a2.8 2.6 76.9 0 1-.5.7q-4 5-10.3 6.5a1.2 1.2-18.3 0 0-.8 1.6l2.4 5.9a.8.7-85.3 0 0 .2.3q1 .8 1.4 2.8a1.8 1.7-76.2 0 0 .6 1q.9.8 1.2 3.3.2 2 1.2 3.3.5.8 3.8 8.3 1 2.1 1.3 4.3a1.6 1.6-73.5 0 0 .5 1q1 .9 1.5 3a1.7 1.7 15.4 0 0 .5.8q1.1 1 1.4 3a2.1 2.1 17.8 0 0 .6 1.1l.2.2a2.7 2.6 13.9 0 1 .7 1.1q2 6.3 3.1 8.2 3.9 6.1 5.7 11.6a3.5 3.4 19 0 0 .4.9q1 1.3 1.4 3a2 2 16 0 0 .5 1c1.3 1.3 1.1 3.1 2.1 4.1 1 1 1.2 2.6 2 4q2.2 3.4 6 11.9l3.8 5.8q1.1 1.7 1.6 3 .5 1.6 2 2.8a1.8 1.8 64.8 0 0 1 .4l6 .2q2 0 2.8 1.1a.9.9-13 0 0 .7.4q1.6.2 6 4.2 6.3 5.8 7.5 11.2a1.4 1.4 11 0 0 .6.8q.8.6.9 1.6.5 4.8 0 13.5a1.3 1.3-13.5 0 1-.6 1l-.4.3a1.3 1.3 83.5 0 0-.6.8q-.6 2 .5 2.8c1.1.9 1.4 2.2 1.7 3.1a1.6 1.6 17.4 0 0 .3.7l4.6 5a1.7 1.6-79.4 0 1 .3.5l1 2.1a.8.7 15.5 0 0 0 .2l4.9 5.4a.7.6 18.8 0 1 .1.2l.8 2.3a1 1 11.8 0 0 .3.4q1 .8 1.7 3.2a2 2-76.8 0 0 .5 1q2.8 2.5 3.5 5.2a1.2 1.1-76 0 0 .3.5q1.2 1.2 1.6 3.4a1.3 1.3 14 0 0 .5.7q1 .8 1.5 3.2a1.5 1.5 15.7 0 0 .4.8q1.2 1 1.6 3.1a1.7 1.6 16.4 0 0 .5 1q.8.7 1.3 3.3.2 1.2 1.2 3.5 2 4.2 2.3 5.6c.8 3.5 2 6.2 2.3 9.4q.9 8 0 14.9a2.8 2.7-21.8 0 1-.6 1.4q-3.7 4.3-9.2 6.2h-6.7q-6.2-1.8-8.8-4.3l-6-6.1a1.8 1.8 17.1 0 1-.4-.9q-.5-2-1-2.5c-1.7-1.3-.8-3.3-2.4-4.3a1.4 1.4 12.6 0 1-.6-1q-.4-2.2-1.4-3.4a.9.9-37.6 0 1-.2-.4l-1.1-4.7a.8.8 11.6 0 0-.4-.5l-.2-.1a1.4 1.4-73.3 0 1-.5-1q-.5-5.2-2-9.4a2.2 1.6-68.9 0 1 0-.3l-.9-6.3a1.2 1.2-73.6 0 0-.4-.8l-.2-.2a1.7 1.7-69 0 1-.5-1q-.5-6.1-1-7.6c-1.3-4.4-1.3-9.5-4.7-13.7a2.9 2.8 17.6 0 1-.5-1q-.6-1.7-2.2-3.7a1.2 1.2-15.5 0 0-.8-.4q-3.8-.5-6-.6-1 0-1.4-.9a1 1-7.2 0 0-.6-.4q-3.6-1-4.4-1.4-2.2-1.2-6.2-5.5a2.3 2.3 18.1 0 1-.5-1q-.4-2-1.3-2.7a1.3 1.3-66.9 0 1-.4-1.1q0-1.1-1.7-5.9-1.1-3-.2-9.3a2 2 67.7 0 1 .4-1q1.6-2 1-5.6a.6.6 18 0 0-.2-.3l-3-3a1.8 1.8 18.6 0 1-.5-1q-.3-1.9-1.4-3a3.4 3.1 10 0 1-.7-.8q-1.8-3.7-3.3-5.2a2 2 16.3 0 1-.6-1q-.4-2-1.2-2.7a2.8 2.8 11 0 1-.8-1q-1-3-3.5-5.3a2 2 17.5 0 1-.6-1.1q-.3-2-1.3-2.8a1.7 1.7-77.3 0 1-.6-1q-.4-1.5-1.5-3c-1.6-2-2.4-4.6-4-6.2a1.7 1.6-74.3 0 1-.5-.9q-.3-1.9-1.4-3a1.9 1.9-74.4 0 1-.5-.9q-.5-2.2-1.7-3.1a1.3 1.3-73.4 0 1-.4-.9q-.2-1.3-1.8-3.4-1.8-2.1-2.9-6a2.4 2.3 18.2 0 0-.4-1q-2.3-2.7-3.7-6.1l-.2-.2-.2-.2a1.4 1.4-82 0 1-.4-.6q-2-5.4-3.1-6.8-1.7-2.2-1.7-3.3a1 1-73 0 0-.5-.9c-1.2-.8-1.3-3-2-4.5l-6.5-13q-.6-1.2-1.2-3.8a1.8 1.8-75 0 0-.5-1c-1.3-1.2-1-3-2.3-4.1a1.9 1.9 55.1 0 1-.6-1.1q-.5-2.4-1.3-3a.7.7-83.5 0 1-.3-.3l-3-8.8a1.4 1.4-80.5 0 0-.5-.6c-1.3-1.1-.9-3-2.1-4.2a1.9 1.9 14.3 0 1-.6-.8q-1-3.8-3-8l-3-6.4q-1.6-3-3-8a1.2 1.1-77.6 0 0-.3-.6l-.1-.1a2.8 2.6-76.8 0 1-.5-.9l-3-8.6a.8.8-83.4 0 0-.4-.4l-.2-.2a2.1 2-73.2 0 1-.5-1l-.9-4.3a.7.7-80.7 0 0-.3-.4c-1.4-.9-1-3.6-2.3-4.4a.6.5 10.6 0 1-.3-.4l-1.1-4.8a.8.8 10.7 0 0-.4-.5l-.2-.2a2 2-73.7 0 1-.5-1l-.9-4a1.3 1.3-74.2 0 0-.3-.8l-.2-.1a1.7 1.6-79.4 0 1-.5-.7l-3.2-9.2a.3.2 7.5 0 0-.1-.1l-.3-.2-3.4-11.3a1.2 1.1 8.3 0 0-.5-.7q-.5-.2-.6-.8-.5-3.3-1.8-5.6a2.4 2.3 26.5 0 1-.2-.7q-.7-3-2-5.5a.8.5-78 0 1 0-.2l-.9-4a2.5 2.5 20.2 0 0-.4-1l-.3-.2a1 1 13.6 0 1-.3-.5l-1-4.7a.9.9 15.8 0 0-.3-.4l-.3-.3a1.1 1.1-85.6 0 1-.5-.6l-3.2-11a.4.3 14.2 0 0-.1-.1q-.6-.4-.7-1.1-.5-2.9-1.4-4.9-2.4-5.1-3.4-10.7a3 3-66 0 0-.3-1q-1.3-2-1.7-5.6a1.3 1.3-75.2 0 0-.5-.8l-.2-.2a2 2 16.3 0 1-.5-1l-1-4.1a1.4 1.3 15.8 0 0-.3-.7l-.2-.2a1.7 1.7 18.6 0 1-.6-1.1q-.3-3.2-1.5-5.2a3.3 3.3-64.3 0 1-.5-1.4q-.4-3.7-1.2-5.6-1-1.9-1.1-3.5-.3-2-1.3-3.6a2.4 2.3-68.8 0 1-.2-.6q-2.1-7.7-5-19.5-.3-1.4-.8-1.8a.5.5-78.2 0 1-.2-.3q-.5-3.8-2-7.8a1.8 1-77.8 0 1 0-.2l-1-6.4a1.6 1.5-72.4 0 0-.4-.8l-.2-.3a.8.7 24.4 0 1-.2-.3l-1.3-7.3a.3.2 11.4 0 0-.2-.2l-.2-.1a1.2 1.1-74.7 0 1-.4-.7l-1.1-6.7a.7.7 12.4 0 0-.4-.5l-.1-.2a1 .9 19.2 0 1-.3-.5l-1.2-6.8a1 1-74.3 0 0-.3-.6l-.2-.1a1.7 1.7 17.6 0 1-.5-1l-1-7.7a1 1-77.7 0 0-.4-.7l-4.5-2.9a.8.8-2 0 1-.2-.1q-3.8-3.6-9.8-9.7c-3.3-3.4-5-6.2-7.8-10.2a4.2 3.8-75.7 0 1-.5-.9q-.8-2.3-1.6-3a.7.7-79.8 0 1-.3-.4l-1-4.7a.3.3 9.3 0 0-.2-.2l-.2-.1a1.9 1.8 15.8 0 1-.6-1l-.9-4.3a1.5 1.4 16.8 0 0-.4-.8q-.9-.8-.9-2.4c0-5.3-.7-14 0-22.3a2.4 2.4 64.2 0 1 .4-1.1l.7-1.3 1-4.3a1.5 1.5 81.4 0 1 .7-1l.6-.3a.5.5-46.4 0 0 0-.8l-.5-.3a1.4 1.3 89 0 1-.6-.6l-2.2-4.2-1-1.2q-1.4-1.7-2-3.3-.4-1.3-4.6-5.4a1.2 1.2-77.3 0 1-.3-.5l-.7-2.2a1.6 1.6 12.7 0 0-.5-.7q-4.2-3.9-6.5-8a8.5 8.2-81.8 0 0-1.2-1.6q-6-6.6-9.9-9.7-1-1-2.7-1.5a1.4.8 47.4 0 1-.2 0l-9.3-6.8a.7.6 68.2 0 0-.2-.2q-8.6-2-16.4 0a1 1 14.7 0 0-.5.3l-5.7 5.6a1.9 1.8 74.9 0 0-.5 1q-.4 2-1.1 2.9a2 2-18 0 0-.4.7c-.6 2.1-.5 5-1.7 7a2.6 2.5-25.5 0 0-.3.8q-1.2 6.8-.3 13.8a4 4 29.7 0 0 .3 1q1.2 2.8 1.2 5 .1 3.1.6 6.6a.8.8-81.6 0 0 .5.6q.6.3.7 1.2l.7 6a1.4 1.4-78.2 0 0 .7 1.1l.1.1a2 2 17.4 0 1 .6 1.1l.6 3.8a1.2 1.2 14 0 0 .5.8q.7.6.8 1 .8 3.1 2.4 6.8c.3.7.3 1.7.8 2.1q.4.4.9 1.5 2.5 6.5 5.2 10.7 1.3 1.9 1.4 3a1.4 1.4-71.4 0 0 .4.8q1.1 1 1.6 3.1a1.6 1.6-77.6 0 0 .5 1q.8.5 1.8 2.2a.5.5 32 0 0 1-.2 6.3 6.3 0 0 1 4.6-6l2.2-.5a.6.6-68.1 0 1 .6-.3l5.3 1a4.7 4.7 80.2 0 1 3.1 2.3q2.8 4.7 4.4 10.5a1.3 1.3 6.9 0 0 .6.8l2.6 1q2.5.8 3.4 4.4a1.8 1.7 15.8 0 0 .5.8c1.2 1.2 1.5 4 2 5.4 1.4 4-.3 7.8-3.6 10.4a1.8 1.7-64 0 1-1 .4q-2.2 0-3.5 1.8a10 10 0 0 1-9.3 4.4q-1 0-1.7 1a1.5 1.5 10.8 0 1-.8.6q-3.5.8-8 0a1.7 1.7 79.1 0 1-1-.8l-.2-.2a2.6 2.6 78.2 0 0-1-.6q-2.8-1-4.8-3.2l-5.5-5.5a2.6 2.5 6.2 0 1-.7-.9l-1.8-3.5a2.1 2-81.5 0 0-.4-.5l-4.9-4.9a2 2 17.6 0 1-.5-1q-.4-2-1.4-2.9a2.3 2.3 12.4 0 1-.6-.9q-1-2.7-3.5-5.4a1.6 1.6 19.8 0 1-.4-.9q-.4-3.7-2.4-6a4.8 4.7 14.3 0 1-.7-1.2L11 215.2q-.7-1.6-1-2.9-.6-2.2-1.4-2.6a.6.5-81.8 0 1-.3-.4l-.8-4.5a1.2 1.2-78 0 0-.5-.7l-.3-.2a1.4 1.4-73.6 0 1-.5-1.1q-.2-3.6-1.6-6.7a5.2 5 31.2 0 1-.4-1.7q-.3-3.2-1.6-6.3a4.6 4.6 33 0 1-.4-1.7q0-4.7-1.6-9a5.5 5.5-55.9 0 1-.4-1.7l-.3-8v-15q0-3.7 1.4-7a4.3 4.3-31.2 0 0 .3-1.3q.5-5.8 3.6-11.1a2.5 2.3-27.1 0 0 .2-.8q.6-3.7 3.3-6.2 3.1-3 5.4-7.3a1.3 1.3 4.7 0 1 .7-.6l2.5-.9a.7.7-.9 0 0 .5-.4l2-2c1.4-1.4 3.5-1 4.4-2.4a1.2 1.2 12.7 0 1 .8-.5l4.3-.6a1.3 1.2-63.2 0 0 .5-.2c3-1.9 6-1.4 10.6-1.4q1.7 0 4.8 1.2 2.3 1 5 1a2.2 2.1 67.6 0 1 1.5.6l.5.5a.6.5 74 0 0 .2.1q4.5 1.5 7.8 3.8a2.8 2.6-15 0 0 .5.3q6.8 2.7 11.4 7.6a2.4 2.3 76.8 0 0 1 .7q2.2.7 4.1 2.6 6.6 6.4 14 14.1a1.9 1.8-80 0 1 .5.6l.8 2a1.9 1.7-80.7 0 0 .4.5q3 3.2 3.4 4a.7.7 27.8 0 0 1.3-.4l-1.5-8.1a5 5 41 0 1-.1-1.2q.4-8.5-1.6-15.4a7.5 7.2-56.2 0 1-.2-1.7L94 109q-.1-4-1.3-7a3.5 3.4 34 0 1-.2-1q-1-17.4-.3-35.7a6.9 6.7 57 0 1 .5-2.2q1.3-3.6 1.5-7.7a1.7 1.6-23.9 0 1 .4-1q3-3.4 6.5-4.8a2 2-82.4 0 0 .9-.6c1-1.3 2.7-1 4-1 4.7-.5 11.2 1.7 12.3 7a1.8 1.8-76.5 0 0 .6 1c1.5 1.1.7 2.9 2.2 4.1q.8.8 1 2.3a2 2-70.4 0 0 .5 1.2l2 2a.2.2 39.7 0 0 .4 0l1.7-2.4a.7.7-80.5 0 1 .4-.3q.8-.3 3-1.9 1.6-1.3 11-7.3 1-.7 4-2l4.1-2a3.4 3.3 8.2 0 0 .8-.7q1-1 3-1.2a1.3 1.3-75.9 0 0 .8-.6q.8-1.2 3-1.4a1.5 1.5-78.9 0 0 1.2-.8 1.9 1.9-78 0 1 1.3-.9q1.5-.3 2.7-1 4.8-2.7 9.1-3.5a1.3 1.2-77.8 0 0 .9-.5q.5-.8 1-1 2.6-.4 3.9-1a.1.1 70.8 0 1 .2 0v.3h.1q1.4-1.6 3.7-1.7a1.4 1.4-73.6 0 0 1-.6q.8-1 2.9-1.1 2.7-.1 6-.5a1.3 1.3-73.4 0 0 1-.5c.8-1.1 3.2-1.1 5.4-1.4a1 1-70.1 0 0 .7-.3l.3-.4a2 1.9-70.2 0 1 1.2-.5l7.7-.8a2.7 2.6 30.3 0 0 .8-.2l1.3-.6a8.6 8.4 31.7 0 1 3-.6l9.1-.4a1 1 13.7 0 0 1-.6V27a.6.6 14.6 0 1 .6-.4c2 0 4.3-.7 6.2-.7l16.3.7a.3.3 28.1 0 1 .2.5l-.1.2a.3.3-82 0 0 .2.3q2.9.8 5.5 0a.8.8 82.7 0 0 .5-.7q.5-10.7.4-12.1 0-2.2 1-3.1a1.7 1.7 78.5 0 0 .5-.7q.7-2.3 1-2.6 2.7-2.5 3.8-5.5a1 1-88.1 0 1 .7-.6l2.1-.7a.8.8-80.6 0 0 .4-.3q.7-1 2-1.3zm-33.8 27.3a4.3.2-179.8 0 0 4.3.3 4.3.2-179.8 0 0 4.3-.3 4.3.2-179.8 0 0-4.3-.2 4.3.2-179.8 0 0-4.3.2"/><path fill="#fff" d="M252.8 35.7a.3.3-46.7 0 0 .6 0q.8-6.5.6-14.2 0-2.3 1.1-3.8a1 1-21.1 0 0 .3-.5l.9-4.3a1 1 75.8 0 1 .3-.6c1.3-1.2 1.2-2.9 2.3-4.3q1.9-2.3 4.8-3.3c5.6-2.1 10.6 1 13.3 5.9a4.4 4.4-68.7 0 1 .6 1.2l2 7.4a9.9 9.9-54 0 1 .3 2.2q.3 5.4 1.2 9.6c1.1 5 .9 9.2 2.3 13.9a9.5 9.3-55.8 0 1 .4 2.1c.3 5.7.2 9.3 1.3 14.3 1 4.4.8 10.2 2.3 15.4a7.6 7.5-55.8 0 1 .3 1.5c.4 5.4.4 10 1.6 12.6a4.5 4.5 31.8 0 1 .4 1.6c.3 6.2-.1 11.7 1.7 16.5a5.3 5.2-58.3 0 1 .3 1.5l.8 10a1 1 28.1 0 0 .1.4q2.2 3.5.7 5.9l-5.6 9q-1.6 2.5-4.5 9.7l-.5 1q-.4.5-.4.8-.4 3.9-1.5 5.1a.5.4 78.7 0 0-.1.2l-2.9 10.5a1.2 1.2-3.8 0 1-.7.8q-4.7 1.8-8.9 4.2c-4.5 2.6-7.7 3.8-11.8 5.8-5.7 3-13.8 5.6-18.3 7.3q-8 3-19.4 5.5l-1 .7a2.2 2.2 22.6 0 1-1 .4q-5 .7-7.2 1.7a3.6 3.5 28.9 0 1-1 .2q-6.5.8-8.3 1.4-3.5 1-8.4 1-1.7 0-10.6 1.2c-8.6 1.1-17.5 1-26.5.7q-5.2-.2-10.4-1.1-4.2-.8-10.8-1.1a9 9-33.5 0 1-2.6-.6q-2.9-1-7.2-1.3a2.5 2.5 63 0 1-1.1-.4q-2-1.3-5.2-1.6a2 2-21.1 0 1-1-.5c-1.7-1.4-4.7-1.4-6.6-2.6q-.5-.3-3.1-1a.8.8 7.2 0 1-.6-.7q0-6.2-1.5-10.7a7.5 7.3-57.4 0 1-.4-2q-.4-6.3-1-8.6c-1.6-5.3-1-10.3-2.7-15.3a5.8 5.7-56 0 1-.3-1.7l-.6-15a3.6 3.5 31.5 0 0-.4-1.5q-1-2-1-4.2l-.8-15.7a4.2 3.8 35.3 0 0-.3-1q-.8-2.4-.9-5.3-.5-20.4-.1-39.9 0-1.8.9-2.7.4-.3 1-2.4a2 2 78.6 0 1 .7-1q1.2-1 1.6-3.1a.7.7-89.4 0 1 .6-.6l4.3-.8a.8.8 4.5 0 0 .6-.5q.2-.6.8-.9a1.1 1.1 54 0 1 1 .2q1.4 1 3.6 1.8a1.3 1.2-11.7 0 1 .6.3l5.6 6a.8.7 12.6 0 1 .2.3c.4 1.3.5 2 1.2 3q2 3 1.3 6.9a1 1 72.6 0 1-.2.5L114 75a.4.4-53.6 0 0 .1.6l.4.2a1 1-58.5 0 0 1.2-.3l.7-1a.6.6 4.8 0 1 .3-.3q3.4-1.5 5.7-3.5a3.7 3.6-76.8 0 1 1-.6q2.1-1 2.6-1.4 5.7-5 13.2-9.5 1.8-1.1 3.1-2.3a3.2 3.2 13.9 0 1 1.1-.7q3-1 5-3.5a1.4 1.4 15.6 0 1 .9-.5q2-.3 3-1.5a1.3 1.3 14.9 0 1 1-.6q2.1-.2 2.9-1.4a1.4 1.3-75.6 0 1 1-.6q2.2-.2 3.1-1.4a1 1 12.2 0 1 .6-.4l4.3-1a.5.5-72.2 0 0 .2 0q1-1 3.6-1.7a1.8 1.8-75.8 0 0 .9-.5c1.3-1.4 3-.9 4.3-2.3a1.4 1.4-74.3 0 1 .8-.5q5.8-1 11.5-3.6a6.7 6.7-19.5 0 1 1.6-.5q4-.6 6.3-1.6a4.6 4.6 31 0 1 1.5-.4c4-.3 7-.4 8.4-1.4a1.9 1.9 24.4 0 1 1-.4c5-.4 8.2-.6 12.6-1.5 5.7-1.3 12.3-.8 24.4-1q5.8 0 9.4 2.4a1.1 1.1-79.3 0 1 .5.7z"/><path d="m115.3 133.1.1-11.2 1-7.7q.1-.3.6-.7a.7.7-15.6 0 0 .3-.4l1.3-6.4a.8.8-12.2 0 1 .4-.5q1-.7 1.2-2.7a1.5 1.5-17.4 0 1 .5-1q.6-.5 2.3-3c.9-1.3 1-3 2.4-4a1 1 80.9 0 0 .5-.6l.4-1.6a1.1 1.1 72.3 0 1 .2-.5c3.5-4 5-5.4 8-9.7q4.1-5.8 10.4-9.4 1-.6 3.4-3a2.3 2.3-75.6 0 1 1-.5q2.6-.8 4.9-3.4a2 2 16 0 1 1.1-.6q2-.3 2.6-1.1c1.2-1.5 3-.7 4-2 1.3-1.6 3.5-.6 4.3-2.3a.9.9 7.8 0 1 .7-.6l3.8-.5a1.5 1.5 18 0 0 .8-.4q1.5-1.5 5-1.6a1.7 1.7 21.6 0 0 1.1-.5l.2-.2a2.8 2.8-69.1 0 1 1.9-.8q2.5-.2 4.8-1.3a4 3.8-59.7 0 1 1.3-.4q5-.6 7.7-1.4 3-1 8.6-1.1 9-.2 14.8.2a1.6 1 12.8 0 1 .2 0l10.6 2.3a2.5 1.2 5.5 0 1 .4 0l6.7 2.4a5.1 4.4-15.6 0 1 1 .4q3.8 2.3 7 3a1.8 1.8 74.9 0 1 1 .6q2 2.3 4.7 3.2a3.8 3.6-14.6 0 1 1.2.7q1.5 1.3 7.8 7.7 2.2 2.4 2.8 4.5a1.6 1.5-77.6 0 0 .5.8q3 2.8 3.5 6.9a2 2 23 0 0 .4 1c1.7 2.2 1.6 8 1.8 9.8a.8.8 18.2 0 0 .2.4l.3.2a.2.2-82.2 0 1 .1.2q.8 6 0 10-1.5 7.6-1.6 9.7 0 .5-.7 2a7 6.9-28.5 0 0-.5 1.6q-1 6-4 10.8c-2 3.6-3.7 7.6-7 11.3q-4.4 4.7-9.9 9.5a2.2 2.2-73.8 0 1-.8.5c-2.3.7-4.2 3.2-6.2 4.3q-13 7.8-17.5 9.4c-1.7.5-3.2.7-4.6 1.5-2 1.1-4.3 1.1-6.4 2.3a5.5 5.4 23.5 0 1-1.6.6q-2.6.6-5.2 1.7a2.9 2.8 28.2 0 1-.8.3l-4.8.6a2 2-70.3 0 0-1 .5q-.8.8-1.2.7-1.5 0-10 1.7-7.4 1.4-19.8.2a3.6 3.6 58.3 0 1-1-.3q-3.4-1.3-9-1.3-.8 0-2-1.1a1.3 1.3 72.2 0 0-.6-.4l-5.9-1a.9.9-10 0 1-.6-.4q-.3-.5-.8-.6-1.8-.3-3.2-1.2c-1.9-1.3-4.1-2.2-5.9-3.7q-2-1.7-12.1-12.1-1-1-3.8-6.1a3.3 3.3-62 0 1-.4-1.4q-.2-2.5-1.4-4.4a2.2 2.1-67 0 1-.3-.8z"/><path fill="#ffd3c0" d="m252.7 136.6-14.5 14.1a4.4 4.3-77.8 0 1-1.3 1q-2.5 1-5 3.3a6.6 6.3-79.7 0 1-1.4 1l-8.6 4.8q-6.5 3.8-9.2 4.6c-1.5.4-3.4.9-4.6 1.6-2.1 1-4.4 1-6.5 2.3a4 3.8-63.7 0 1-1.4.5q-3.4.4-6.3 1.5a7.7 7.4 30.2 0 1-1.7.4c-3.9.5-7.7.5-12.4 1.5q-7.3 1.4-13.8-.3c-4-1-7.7-.7-11.3-1.3a2.4 2.4 64.6 0 1-.9-.3q-1.7-1-4-1.4a3 3-26.5 0 1-1-.3l-3.7-1.9-3.8-1.7q-3.8-1.7-4.4-2.3-6.5-5.9-10-9.9-2.8-3.4-6.5-10.8a1.4 1.2-67.9 0 1 0-.2l-1-4.1a.8.8-74.2 0 0-.2-.4q-.8-.8-1-3-.9-10.3 0-17.4a7.6 7.4-30 0 1 .7-2.1q1-2.2 1.3-5.4a5 5 14.4 0 1 .7-1.9q1.1-1.8 1.4-3.6a1.1 1.1-11.4 0 1 .5-.8q1.2-.8 1.3-3a1.3 1.3-11 0 1 .8-1c1.5-.7.7-3 2.2-4.2q1.3-1 3.5-4.4 1.7-2.5 3.4-4.4 8-8.8 17.5-14.9a.7.6-72.3 0 1 .1 0q1.2-.5 3-1.8 4.1-3.1 12.6-6.8.6-.2 1-.8a1.6 1.6 17 0 1 1.3-.7q1.9 0 2.9-1.3a2.1 2.1 20 0 1 1.6-.7q3 0 4.4-1.4a2.2 2.2 21.4 0 1 1.4-.6q3.7-.1 6.8-1.5a7.2 7-57.4 0 1 2.3-.5c2.6-.2 4.8-.4 7.6-1q11.2-2.5 22 0c2.7.7 5.5.6 7.6 1.5l11 3.9a2.8 2.7 73.7 0 1 .8.4q1.2 1 2.8 1.3a1.8 1.8 41.3 0 1 1.2.6q2.3 2.8 4.7 3.3a2.5 2.5-16.1 0 1 1.2.7l9.5 9.4a2.8 2.8 20.7 0 1 .8 1.8q0 1.6 1 2.2a1.7 1.7 13.6 0 1 1 1.3q0 1.8 1.2 2.7a.9.9-80 0 1 .2.4l2.2 7q1 9.8 0 18.8a2.3 2.1-27.5 0 1-.4.9l-.4.7a2.7 2.6 67 0 0-.4.9q-1.1 6.2-3.3 10.9l-.4.6a1.7 1.7-19.3 0 0-.5 1q-.4 3.7-3.5 7a.3.3-14.9 0 0 0 .1l-1.6 3.3a2.7 2.5-11.5 0 1-.5.8m218.7 57.6-.5.3q-.3.1-.4 1v.3l-1 2a.8.8 57.4 0 1-1.5-.3l-.1-3a.7.7-32.7 0 0-1.4-.4q-.7 1.4-1.6 2a1.8 1.8 77.6 0 0-.6 1l-.4 1.8a1.4 1.4 81 0 1-.6.9q-1.5.8-1.3 3a1 1 86.2 0 1-1 1.2l-5.2.3a1.7 1.7 3.3 0 1-1.8-2c.1-1 .2-1.5.8-2.6q2-3.7.7-7.6a.5.5 42.7 0 0-1 0l-1 4.6h-.5l-1.3 4.5a1.6 1.6 76.8 0 1-.4.7q-1 1-1.5 3a.9.9-.6 0 1-.7.8q-2 .4-4 .2a1.8 1.8-18 0 1-1-.6l-4.7-5a1 1-76.4 0 1-.2-.4l-3.3-10.2a1.3 1.3-7.6 0 1 1.3-1.7l2.4.2a1.2 1.1-10.4 0 1 .7.4l2.3 3.2a.7.7 35.2 0 0 1.3-.2q.8-2.6-1.2-3.7a1 1-76.5 0 1-.5-.9l-.3-6.1a1 1-85.7 0 0-.8-1h-.3a.6.6 7.3 0 0-.7.5l-.2 4.8a.8.8-5.2 0 1-.6.8q-3.5.7-3.7-2.3a2 2 23.6 0 0-.4-1.1q-1.2-1.5-1.3-4.1-.2-6.3 4.3-10a1.8 1.8 23.5 0 1 1-.5q3.3-.2 4.4.4 2.7 1.6 5.4 1.7a1.3 1.2-4.3 0 1 1.1 1l.2.6a1 1 24.1 0 0 1.7-.6q0-2-1.2-3.1a1.5 1.5 17.8 0 1-.5-1q-.6-6-3.3-11l-4-8a5.8 5.5-67.5 0 1-.4-1q-1.6-6.3-5.7-11.3a3.3 3.3 14.8 0 1-.5-.9q-2.3-5.5-5.5-9.2a3.3 3.3 15 0 1-.7-1q-.7-2.3-3-4.7a5.6 5.4 8 0 1-.8-1q-2.1-3.3-4.2-5.6c-2.9-3.3-5-7-7.6-9.7L402 91a7 7 82.3 0 0-1.3-1q-4.5-2.7-6.7-5a5 4.9 79.5 0 0-1.3-.8q-2.9-1.4-4.8-3.3a2.6 2.6 72.4 0 0-1.3-.6q-1.7-.4-3-1.4a1.5 1.4-18.3 0 0-.6-.3l-4.3-1a1 .9 68.3 0 1-.2-.2 6.1 6.1 0 0 0-7-.3c-2.4 1.3-4.5 1.3-6.8 3.4q-4.1 3.9-7.4 6.5a2.7 2.6 85.6 0 0-.7.8l-.5 1a2.6 2.4 83.3 0 1-.5.6l-4.6 5a1 .9 80.5 0 0-.2.3q-.5 1.7-2 3.8-3.7 5-7.1 12.7a2.8 2.6 79.7 0 1-.5.8q-1 1-1.2 2.8a1 1 71.5 0 1-.3.6l-2.3 2.7a.4.4 58.6 0 1-.8-.2q-.4-2-1-2.9-.8-1.5-5.9-6.2a3 3-15.8 0 0-1.2-.7q-1.6-.4-4.2-2.4a1 1-68.5 0 1-.4-1l.3-3.3a1 1 68 0 1 .3-.5c3.2-4 5.5-9.6 7.3-13a4.8 4.6-11.4 0 1 .6-.9q2.3-2.6 4-5.8a5.7 5.6-10.4 0 1 .8-1.2l2-2.3q2-3.5 3.2-4.8 4.3-4.6 7.9-7.7a3.5 3.3-75.4 0 1 1-.7q3-1.2 5.1-3.7a1.5 1.5-74.5 0 1 1-.5q3-.5 6-2L370 57a12.8 12.6 44.5 0 1 3.9 0l9 1.4a1.9 1.9-20.3 0 1 1 .4q1.6 1.4 4.8 1.4a1.3 1.2 71.4 0 1 1 .5q.9 1.2 2.9 1.5a1.7 1.6-16.3 0 1 1 .5q2.4 2.7 5.2 3.7a2.4 2.2 75.3 0 1 1 .5q3.1 3.2 7.5 5.7a5 5 82.1 0 1 1 .7l20.2 20.2a2.7 2.5 9 0 1 .3.5q2.8 4.2 4.8 6.6c2.4 2.7 4.8 7 7.6 9.9l.7 1.5a5.8 5.7-74 0 0 .8 1.4q6.8 9.3 12 20.1l4.3 8.6c2.2 4.3 4 8.7 6.2 13q2.5 4.9 3.2 9.9c0 .6.3.8.7 1.2a1.4 1.4-73.4 0 1 .5.9q.4 3.4 1.6 6.3a6 6-59.6 0 1 .4 1.6q1 8.8.1 17.8 0 .7-.4 1.4"/><path d="M219 72.2q.5 0 .5.7a.7.7-81.7 0 0 .5.7l1.2.4a1 1 4.7 0 1 .7.8q.4 2.7-.4 4.5-.7 1.5-2 2.6l-.5.1-.4-.1q-1.4-1-2-2.6-.9-1.8-.4-4.6a1 1-4.4 0 1 .7-.7l1.2-.4a.7.7 82 0 0 .5-.7q0-.7.4-.7m-73 21.4 1 .3a1.1 1.1-83.8 0 1 .9 1l.2 5.9a1.1 1.1 88 0 1-1 1.1l-4.1.2a.8.8-10.2 0 1-.8-.5q-1.2-3.6-.3-6.4a1.9 1.9 84.4 0 1 .8-1q1.5-.8 2-1.9a.4.4-61.8 0 1 .6-.2q.3.3.3.9a.7.7 9 0 0 .5.6m34.2 18.2q.3 1-.2 2.2l-3.5.2a.7.7 62 0 0-.4 1.2c1.3 1 3.9 1.2 4-1.3l.8-.1a1.5 1.5 52.9 0 0 .4-2.5l-1.1-.5 4.8-1.2a1.2 1.2-83.8 0 0 .8-.6q.8-1.7 3-1.2a.7.7 15.1 0 0 .7-.5q.4-1 1.6-1.6a1 1 83.5 0 0 .5-.7l.4-2a1.1 1 75 0 1 .3-.6l6.3-6.4a.7.7-82 0 1 .2-.2l2.9-1.5a2 1.3 12.3 0 1 .3-.1q5.6-1.3 11 .3a2.2 2.1 74.1 0 1 .9.5l5.3 5a2.5 2.5 19.8 0 1 .8 1.6q0 1.8.8 2a1.7 1.7-80.1 0 1 1.1 1.7l-.2 11.2a1.2 1.2-12 0 1-.7 1l-.3.2a1 1-13.7 0 0-.5.9q0 2.5-1.6 3.7a1 1 78.1 0 0-.3.6l-.3 1.6a.3.3 77.5 0 1-.1.1l-4.4 5.3a1.6 1.3-5 0 1-.2.3q-3.3 2.4-3.4 2.7c-.8 1.3-3 .5-3.9 2a1.1 1.1-82.6 0 1-.5.4l-6.5 2.2a2 2 32 0 1-.5.1q-8.2.7-15.3-.4a.5.4-23.2 0 1-.1 0l-4.5-2a1.2 1.1-9 0 1-.3-.1l-3.4-3a.4.4 67.5 0 0-.2 0l-1.8-.5a.8.8-88.5 0 1-.7-.7q-.4-2.3-3.4-5.1a2 2 13.5 0 1-.5-.9l-.8-4.3q-.1-.7-.5-.8l-.3-.2a1.3 1.3 33 0 1-.2-1q.7-4 4-6.5a1.5 1.5-64.2 0 1 .9-.3z"/><path fill="#62240e" d="M170.6 114.3a.5.5 34.3 0 1 .8-.2l3.7 3.7a.7.7-22.4 0 0 .5.2h5a.5.5-60.6 0 0 .2-.1q3-2 3.5-4.9a1 1-3 0 1 .7-.7q2.2-.6 3.1-1.6a2.6 2.2 41.7 0 1 3.5 0c3.7 3.4 8 .6 8.7-3.7a1 1-3.7 0 1 .7-.8l2.3-.7a1 1 81.3 0 0 .7-1v-7.7a.7.7 87.8 0 1 .6-.7q3.5-.2 4 .1 2.5 1.3 4.5 2a1.9 1.8 76.8 0 1 .7.5l3.7 3.7a1.9 1.8-67.7 0 1 .6 1.3V115a1 1 88.8 0 1-1 1l-5.3.2a1.1 1-51 0 0-.3 0l-7.2 2.6a.5.3-68.9 0 0-.2.1l-5.5 5.6a1 1-14.5 0 0-.2.3q-.9 2.8-2 4.2a1.2 1.2-26.8 0 0-.3.8v5.3a.8.8-6.3 0 1-.6.7q-2 .4-3.8 0l-10-2.2q-2.4-.5-7-3.8a1.2 1.1-88.4 0 1-.4-.4l-3.9-6.8a1.3 1.2-66.4 0 1-.1-.3q-1.1-4.7.3-8"/><path fill="#fff" d="M198.2 103.6a.6.6 45.9 0 1-.4-.8v-.1A5.3 2-73.6 0 1 201 98h.1a5.3 2-73.6 0 1 .4 5.7v.1a.6.6 49.1 0 1-.8.5z"/><path fill="#fff" d="M192.3 108.2a1 1-9.2 0 1 0-1.6l1.5-1.6a3.1 2.3-47 0 1 3.8-.7 3.1 2.3-47 0 1-.4 4l-1.5 1.5a1 1-13 0 1-1.5 0z"/><path fill="#0099cb" d="M313.4 181.5a.5.5-54.4 0 1-.9.1q-.5-.8-1.4-1.6a1.3 1.3 9.7 0 1-.5-.6l-4.1-12.2a3.4 2.7 38 0 1-.2-.5q-1.5-10.9 0-22.5a2 2 12 0 1 0-.6l4.2-11a1 1 75.7 0 1 .2-.3q.9-1 1.4-3.3.5-2.2 5.4-12a6.8 6.2 69.2 0 0 .4-1q1.2-4 3.6-7.3a1.4 1.4 17.6 0 1 1.1-.6q2 0 3 .7 3 2.3 10 9.8a1.5 1.5 22.3 0 1 .4 1q.2 2.8-.5 4.2-4.8 9.8-8 19.3a2.7 2.6 75.2 0 1-.5.9c-1.1 1.3-.9 2.8-1.9 4q-1 1.3-1.3 4.3a2.5 2.4 68.6 0 1-.6 1.4l-.4.5a2.8 2.8 75.3 0 0-.5 1l-7 20.4a.8.7-12.6 0 1-.2.3l-.3.3a1.5 1.4 74.4 0 0-.4.8z"/><path fill="#a0e281" d="m304.1 172.3-7.6-.9-3.4-.7c-3.6-.7-7.4.8-10.9 1.5q-.7-5.5.4-10.7l1.7-7.7c1-4.4 2.9-8.1 4.4-12.3q2.3-6.4 6.9-12.3a5.4 5 78.3 0 0 .4-.8q1.4-2.8 3.6-5.1a2 2-56.7 0 0-.7-3.3q-.8-.4-2-1.8a2.3 2.1-72.9 0 1-.5-1q-.8-3.4-.3-6.9a.6.6-61.7 0 1 1-.3q1.5 1.7 3.3 2.2a2.4 2.3 72.3 0 1 1 .5l5.1 4.6a2.4 2.3 72.6 0 0 1 .6q2 .4 4.1 2.5a1.2 1.2 22.8 0 1 .3.8q.1 1.8-1 2.9a2 1.9 75 0 0-.4.9c-.7 2.2-.8 3.2-1.8 5.4q-3.2 6.6-3.7 8.3-1.7 5-2.8 11.5-1.7 9.4 2 22"/><path fill="#50a627" d="m180.3 111 1 .5a1.5 1.5 52.9 0 1-.3 2.5h-.8q0 .1-.1 0 .5-1.3.2-2.2z"/><path fill="#ffd3c0" d="m19 167.1.1-.2a.2.2 75 0 1 .3.2l.7 12.9q.2 3.8 1.1 4.8a.6.5 21 0 1 .2.3l1 6a1.8 1.8 16 0 0 .6 1l.2.1a.9.9-76.9 0 1 .4.6l.8 4.2a1.6 1.5-73.5 0 0 .4.9l.4.4a1.8 1.8 18.2 0 1 .5 1q.5 3.2.9 4 5.3 10.4 7.4 15.3 1.2 2.7 3.3 6 1.4 2.3 3.2 6.2.4 1 5 6a.9.9 19.9 0 1 .2.4l.7 4.5a.5.5-9.8 0 0 .6.4h.4a.6.6 86 0 0 .4-.5q.3-5.1.1-10.1 0-3.3 2.6-5.2a1.8 1.8 25.7 0 1 1-.3q3.8-.2 5 .1a4.8 4 10.3 0 1 3.5 4.3q0 .6 1.6 2a1.1 1.1 20.2 0 1 .3.8v4a.7.7-8.5 0 1-.4.6q-3 1-4.4-1.2a.4.4 50.5 0 0-.6 0l-.1.1a.2.2-48.5 0 0 0 .3q1.5 1.3 1.7 2.1a1 1-89.6 0 0 .7.7q1.4.4 1.6 3a1 1 14 0 0 .5.7q.8.5 1.5 2.1a1 1-62.6 0 0 1.8-.6l-.4-2.4a1 1-86.4 0 0-.7-.8q-.9-.3-1-.7a.6.6-15.7 0 1 .4-.8c3.3-.7 3.8.8 6.4 1.9a1.4 1.4-89.6 0 1 .8.7q.7 1.8 1.6 3a1.9 1.8 20.9 0 1 .5 1c.5 3.3 1.3 9-2.6 11a.9.9 31.3 0 1-.5.2l-4.3-.2a.4.4-2.3 0 0-.4.4q.3 2.3 0 3a1.6 1.6-51.3 0 1-1 .8c-2.9 1-7 0-9.9-.3a1.4 1.4 71.4 0 1-1-.4l-.2-.7q-.2-.5-.6-.7-.2-.1-1 .2a.8.8 42.3 0 0 0 1.5q1 .3 2 1.7a1.3 1.2 86.8 0 0 .4.5l.8.4a.8.8 58.6 0 1-.4 1.6h-3.8a1 1 74.4 0 1-.8-.5q-.9-1.4-3-1.6a2.3 2.2-18 0 1-1.3-.7L37 256a1.5 1.5 13.9 0 1-.4-.6q-1-2.8-3.4-5.2a3.6 3.5-80.8 0 1-.8-1.1q-1.2-2.7-3.6-5.3a7.3 7.2 10.2 0 1-1-1.4l-6.3-11.6q-.2-.5-.5-.7a2.3 2.3-74.7 0 1-.7-1.3l-.7-3.6a1.7 1.7-73.5 0 0-.4-1c-1.3-1.2-1-3-2.4-4.3-.8-.8-.7-2.9-2-4a1.5 1.4 16 0 1-.4-.8l-.8-4.1a1.6 1.6-73.7 0 0-.5-1H13a1 1-79.6 0 1-.5-.8l-.8-4.3a1 1 17.8 0 0-.3-.6l-.7-.7a.7.7-74.3 0 1-.2-.3l-.9-4.3a1.6 1.6 16.2 0 0-.4-.9l-.3-.2a1.1 1-77.7 0 1-.4-.6l-1-4.9a1.1 1.1 16 0 0-.2-.6q-.8-.7-.9-2l-1-10.5a1.2 1.2-70 0 0-.3-.7q-.7-.8-.8-2.7-.4-7.6 0-24.8 0-2.8.5-4c1.2-3 1-4.2 1.6-7.7a3.6 3.6 62.3 0 1 .3-1.2q1-2 1.7-4.8a2 1.9 73.2 0 1 .4-.8q2.3-2.6 4-6.2l7.7-7.7a1.5 1.5 13.7 0 1 .6-.4l2-.6a2 2 13.2 0 0 .9-.5q1-1 2.8-1.4a2.2 2.2 17.1 0 0 1.2-.6l.3-.3a2 2-70.5 0 1 1.1-.6q9.7-1 17.8.2a2.1 2-23.7 0 1 .8.3q2.2 1.2 5 1.8a2.4 2.4 69.5 0 1 1 .4q1 .8 2.8 1.3a2.4 2.3 72.4 0 1 1 .5c2.8 2.5 5.8 3.8 8.7 6.4q.6.6 2.4 1.2a2.5 2.4-12.7 0 1 .9.5l4.3 4a5 4.8-10 0 0 1.2.9q2.5 1.2 4.9 3.1a.5.5-29 0 1-.3.8l-4.3.6a2.9 2.9-71.8 0 0-1.7.9q-.6.6-1.9.8a3 3 18.1 0 0-1.7.9l-3.6 3.5a2 2 73.8 0 0-.5 1l-.5 2.4a.4.4 28.7 0 1-.7.2l-6.2-6.2a.7.7 79.8 0 0-.2-.2l-9.5-4.8q-6.3-2-13.9-.9-3 .4-3.4 1.4a1 1-76.9 0 1-.9.6c-2.3 0-6 4-6.7 6.2-.7 2-2.1 2.6-2.5 4.9a1.4 1.4-15.4 0 1-.5.8q-.7.6-.8 1l-.8 9.2a.8.8 77.3 0 1-.3.6H19a.8.8-14.3 0 0-.4.7l-.2 7.8a.2.2 61.1 0 0 .4.1"/><path fill="#fff" d="M180 114h.3c-.2 2.6-2.8 2.4-4.1 1.4a.7.7 62 0 1 .4-1.2z"/><path fill="#ffd3c0" d="M217.5 118.2a.6.6-55.4 0 1 .2 1.1q-1.5 1-1.7 2.7a2.8 2.8-18.7 0 1-1 2q-3 2.5-3.3 5a1 1 0 0 1-.8.7q-2 .3-2.6 1.1c-1.3 1.8-3.4.7-4.7 2.6a1 1 15.4 0 1-.8.5l-3.5.1a1.3 1.3-1.3 0 1-1.4-1.2c0-4.8 4.5-8.5 8.5-12a.5.3-71.6 0 1 .2-.2l5.3-2.3a.6.3 14.9 0 1 .2 0q3.3-.6 5.4-.1"/><path fill="#a0e281" d="M115.4 122v11q-2.4-5.4 0-11.1"/><path fill="#0099cb" d="M66.1 146.5q1.2-.2 1.7-1.2c1.2-2 3.8-4.1 6.8-6.9a1.7 1.7 23.3 0 1 1.2-.4h6.7a1.6 1.5-21.9 0 1 1 .5l7.6 7.7a1.5 1.4 11.6 0 1 .3.4q1.5 3.2 3.4 5.2 2.8 2.9 3.5 4.7c2 4.4 2.1 10.3 1.5 14.2a1.4 1.4-19 0 1-.4.8q-2.4 2.4-3.7 5.5a1 .8-19.9 0 1-.1.2l-2.3 2.8a.6.6 41.6 0 1-.9 0c-1.2-1.1-3.6-4-4.5-5.6-1.7-3-2.9-4.3-4.5-7.4q-.5-1-2.5-3.3a4.8 4.5 12.5 0 1-.6-.9q-1.5-3-4.2-5.7l-10.2-10a.3.3-28 0 1 .2-.6"/><path fill="#a0e281" d="M322 165.2q0-.5.7-1.2a1.2 1.1 78.9 0 0 .4-.6q3-9.8 3.7-11.1 2.1-4.1 3.7-8.2a.5.5 44.9 0 1 .9 0l1 2.3a3.6 3.5 17.9 0 0 .3.6q5.4 8.5 9.9 18.3a1.5 1.4-83.9 0 0 .4.6q.8.7 1 1.2a.7.7 84 0 1-.7.8q-4.5.3-9-.7-3.5-.9-5.7-1l-6-.4a.8.7 1.4 0 1-.5-.6"/><path fill="#0099cb" d="M277 167.3a.6.6-15.4 0 1 .8.4l.3 7.6a3.8 3.8 35.4 0 0 .2 1q2.4 8.4 2.9 9.5 4.6 12.8 14.4 22.3c3.5 3.4 7 5.7 11 9q.8.7 2.5 1.1a1 1-82.5 0 1 .7 1c0 4.7 1.4 8.6 2.3 13.1q1.7 9 3.7 16.2l.2 2.3a9.6 9.5 33.8 0 0 .5 2.4q.8 2.2 1.7 8.6.6 3.7 5 22.4.8 3.6 1 6c.1 3 1.3 5.2 1.6 8.1q.4 2.7 1.2 5.2c1 3.3 1 5.8 2 8.6q.5 1.2.7 3.4 1 8.6 3.2 15 1.4 4.2 1.1 6.3a1.4 1.4-13.5 0 1-.6 1q-5.7 3.8-10.7 7.8-1 .7-3.5.5a.8.8 85.2 0 1-.7-.6q-.3-1.4-5.3-10-6.2-10.5-12.6-19.1-5-6.9-16.9-17.5a4.5 4.5 76 0 0-1.4-.8l-2.6-1.3q-10.6-5.7-20.5-.5a6.8 6.8-18.5 0 0-3 3l-3.5 6.8a4.6 4.5-28.5 0 0-.5 1.6q-.9 8.2 0 16.4.7 6.1 3.6 16.1l1 3.4q.8 2.2 1 3.5.6 3.8 2.9 8.6 1 2.2 1.3 3.8c.4 2 1.4 3 2 5q.3 1.2 2.3 6.3a2 2-16.2 0 1-1.5 2.7l-5.6 1.1a1.4 1.3-64.2 0 0-.5.2q-2 1.2-7.4 1.7a2 1.9-65.4 0 0-1 .4q-1.1.8-2 .9-4.4.3-7.3 1.2c-3.3 1-7.1 1.3-9.3 1.6a3.4 3.1-58 0 0-.8.2q-2.3 1-5.3 1-11.8.5-23 2.2-3.6.5-13.5-.2c-2.9-.1-6.2-1.4-9-1.4l-15.4-.5q-1.5 0-2.4-.6-1.6-.9-2.2-1l-3-.3a1.1 1.1-.8 0 1-1-1q-.2-2.6-1.3-3a1 1-81.6 0 1-.5-.7c-.4-3-2.2-5.6-2.4-8.3q-.1-2.1-1.2-3.3a2.1 2 23 0 1-.5-1.2q-.2-3.3-1.6-4.9a1.6 1.6 22.1 0 1-.4-.9q-.3-2.8-1.4-4.8a3.8 3.7 25.6 0 1-.5-1.3q-.6-3.7-1.1-5l-6.3-19.2q-.8-2.3-1-3.9c-.3-2.8-1.6-5-2-7.7q-.3-2.2-1.2-3.2a1.9 1.9-69.6 0 1-.4-1q-.5-3.7-1.7-6.5a4.3 4-61.7 0 1-.4-1.3q-.4-3.2-1-5.2-1.2-3.2-1.3-4.4-.1-2.5-1-3.6a2.4 2.4-66.8 0 1-.6-1.4q-.3-3.3-1.1-5.2-1-2.4-1.2-4.4-.2-3-.6-4.5-1.9-6.1-1.8-7.6 0-.4-1-2.4a5.6 5.5-60.7 0 1-.5-2q-.2-3-1-4.8c-1.5-3.6-1-6.5-2.5-9.7a3.2 3.1 30 0 1-.3-1l-.8-7.6a1 .9-62.9 0 0 0-.3c-2-3.2-1.6-7.3-2.5-9.7-1.2-3.2-1-6.8-2.3-10a5.3 5.3-59 0 1-.4-1.7c-.3-3.5-.5-6-1.5-9.2q-.8-2.8-1.2-7.7a1 1-59.6 0 0 0-.4l-1-2.4a5 4.9-59.2 0 1-.4-1.5l-.6-7.3a1.2 1.2 15.6 0 0-.5-.9q-.7-.5-.9-1.4a.4.4-84.8 0 1 .5-.4q1 .4 1.3 1a.7.6-1.6 0 0 .3.3l12.7 4.2a4.7 4.3-30.7 0 0 1 .2c2.4.2 5.2.3 6.2 1.3a1.3 1.2 67.2 0 0 .8.3c6.6.6 12.8 2.6 19.4 2.6q20.7.2 36.8-.2 3.3-.1 7-1c4.5-.8 9.1-.5 13.4-2q1.6-.7 5.8-1a7 6.6-52 0 0 1.2-.1q18.8-4.6 36.2-11.3l3.7-1.6c1.6-.8 3.3-1 5.5-2q8.8-4 19-9.5"/><path fill="#50a627" d="M282.2 172.2c3.5-.7 7.3-2.2 10.9-1.5l3.5.7 7.5.9q2.2 9.6 9.6 16.6a3.4 3.3 77.3 0 0 1 .7c3.9 1.5 6.7 3.4 11 2a.5.5 45.6 0 0 0-1q-2.4-.9-7.4-3.4-3.1-1.6-2-5.2 2-6.8 4-11.5a.8.8-78.4 0 1 .7-.6l13 .3a4 3.9-37 0 1 .8 0l10.5 2.1a.6.6-86.3 0 1 .5.6q.1 1.3 2 4.8 1.3 2.4 2 5.7.5 2.7 1.6 5.8 2 6 2.6 10.7c.5 3.6 1.7 6.8 2 10.9q.4 11-.1 23.1-.2 3.4-1.2 5l-1 5.8a1.9 1.8-24 0 1-.4.7c-1.5 2.2-1 4.7-2.4 7q-.5.6-1 3.6a5.6 5.3 66 0 1-.6 1.5q-1.5 2.8-6 10.3c-2.6 4.5-6.4 8.6-9.5 13q-2 2.7-5 3.6a1 1 66 0 1-1.1-.5q-.8-1.3-1.1-3.2-4.2-20.6-8.1-37.3c-.4-1.6-.5-2.7-.6-4.1a12.2 12-56.4 0 0-.5-2.7q-1.3-3.8-1.7-6.9c-.3-2.4-1.7-4.9-1.6-7.9a.6.6 9.5 0 1 .8-.5q3.5 1 6.7.4a.7.7 43.7 0 0 0-1.3c-1-.2-2.2-.4-3.3-1.2q-1.5-1.2-3-1.4a1.6 1.6-15.6 0 1-.9-.5q-.9-1-2.6-1.4a2.8 2.7 71 0 1-1.3-.6q-2.4-2.2-4.9-3.6a7.1 7 81.6 0 1-1.5-1q-10.3-10.2-13.7-16.2-4.3-7.6-5.6-11.3-.9-2.7-2.6-11"/><path fill="#a0e281" d="m106.4 207-10 5.8a6 6-81.2 0 0-1 .7l-3.2 3-.4-17.5q0-6.8 3.1-13.4 2.6-5.2 6.1-10.8a.2.2-33 0 1 .5.1l.8 8.5q.1 1.2 1 3a2.6 2.4 29.5 0 1 .3.8z"/><path fill="#50a627" d="M471.4 194.2q.4 1.5-.9 1.6v-.3q.4-.4.4-1l.5-.3"/><path fill="#62240e" d="M470.9 194.5q0 .6-.4 1 0-.9.4-1"/><path fill="#ffd3c0" d="M467.8 198a1.1 1-50.6 0 1 0 1.5 1.1 1-50.6 0 1-1.5.3 1.1 1-50.6 0 1 0-1.5 1.1 1-50.6 0 1 1.4-.3"/><path fill="#50a627" d="m106.4 207 4.3 20.7a3.8 3.1 32.1 0 0 .3.7c.9 2 1.1 5.2 1.1 7q0 .8 1.2 4.5 1 3.3 1.1 7.2a.9.9-76.5 0 0 .4.8q1 .5.8 1.7a.5.5 28.8 0 1-.8.3q-4.5-4.7-7-7-4.4-4.3-6.4-7.4-5.2-8-7-13.4-1.4-4.3-2.2-5.6l3.3-3a6 6-81.2 0 1 1-.7z"/><path d="M59.9 257a1.3.9-178.6 0 1 1.4-.9 1.3.9-178.6 0 1 1.3 1 1.3.9-178.6 0 1-1.4.8 1.3.9-178.6 0 1-1.3-1"/><path fill="#ffd3c0" d="M279.6 326.3a.8.8 19 0 0-1.3.7l4.1 14.2q2.4 8 4.7 13.9 6.7 17.8 15.3 34c1.7 3.3 2.8 6.1 4.6 9.2 1.8 3 3.3 6.6 5.3 9.7 4 5.9 6.3 9.2 8.2 13q.8 1.3 2.3 3a3.6 3.6-78.4 0 1 .8 1.1q1.3 3.4 4.7 6.3c1.7 1.4 2.5 2.7.7 4.6q-3.4 3.7-7.5 7.5a2.4 2.3-43.3 0 1-3.3 0c-2.6-2.8-4.7-6.4-7.3-9.3-3.3-3.6-5.7-6-7-8.7a4.8 4.6 12 0 0-.7-1.1c-2.3-2.5-3.7-5.2-5.7-8l-3.6-5c-4-5.8-7.4-12.1-11-18.3q-2.2-3.6-5-9.3l-4.7-9.4q-2-3.6-4.3-9.6-1.2-3.5-4.3-9.7v-.1l-4.3-13.6a.8.6 38 0 1 0-.2q-.8-4.1-1.5-5.7a7.2 7-60.4 0 1-.7-2.5q-.3-4.8-1.8-11-.5-2.3-.1-12.6a1.6 1.5 55.7 0 1 0-.4l1.8-5.3a6.6 6.6 83 0 1 2.7-3.4c5.5-3.6 10.8-3 16.8 0 8.5 4.4 15 9.9 19.8 18.5a1.3 1.3-54.5 0 1 .2.9q-.9 4-2.5 8.8-2.4 7-7.9 11.4a1.5 1.5-27.9 0 1-2.4-.7l-3-9.8a1.7 1.6-73.2 0 0-.2-.5z"/><path fill="#0265cb" d="m320.4 348.8 1.8-.6q.8-.2 1.5-1 2.8-2.9 5.3-3.5a1.2 1.2 5.4 0 0 .8-.6l3.8-3.6a1.7 1.6 84.3 0 0 .4-.5q.8-1.5 2.5-1 .7.1 2.2 1.6l10.4 10.7a2 1.9-74.5 0 1 .5.8q.7 3.2 1.1 4.1c1.8 3.5 1.7 9.2 1 12q-.6 3-3.6 9.3a6.8 6.5-10.7 0 1-1.3 1.9l-11 10.8a6.6 6.3-81 0 1-1.3 1q-4.1 2.3-6.7 4.8a3.3 3.3-79 0 1-1 .6q-5.4 2.5-9.4 5.8a2 2 17.4 0 1-.7.4q-2.5.7-3.9-2-3.2-6.1-4.1-7.5c-4-6.1-5.8-10.9-10-19.4-.4-1-.9-2.9-1.5-4q-5.7-11.5-9.1-21.5a3.3 3.3 60.6 0 1 1-3.5q4.5-3.8 8.4-11.2a3.5 3.4-28.2 0 0 .4-1.2q.5-4 2.6-7.8a.5.5 42 0 1 .9 0 264 264 0 0 1 21.7 38.2q.9 1.8 1.4 3.5a.8.8-4.5 0 0 .7.6q.6.1 2-.6a.3.3 40.6 0 0 0-.6q-.8-.2-1.1-2.2c-.4-2.2-1.6-3.3-2-5.6q-.3-1.6-1.5-3.5-.8-1.2-1.2-3.6a.7.7 2 0 0-.5-.6h-.2a.3.3-80.2 0 1-.3-.5m-160.8 34q0 .4.2.7a1.2 1.1-22.3 0 0 .7.2l21.6.5a.8.8-33.4 0 1 .2 0l3 1q7.3.7 21.5.3 3-.1 4.2-.6 2.4-.9 4.1-.9c8.6 0 12.9.5 18.9-1.3 3-1 6.4-.6 10-1.9q2.3-.8 6.1-1a2.3 2.3 24.5 0 0 1.3-.5c2-1.6 5.2-1.2 8.1-2.3q2-.7 6.4-1.4c4-.7 3.5 1.3 4.7 3.7q4.3 8.8 8.6 16.3 6 10.6 8.7 14.7a1 1-31.6 0 1-.3 1.4q-3.3 1.8-4.8 2-2.5.3-5 1.3-3 1-7.7 1.1c-2.4 0-3.8.6-6.2 1.3a8.4 8.3 34.6 0 1-2 .4q-7.1.5-8.3.8-4 1.3-8 1.3l-47 .2a.8.8 87 0 0-.8.9 1 1 87.8 0 0 .9.8l8.3.4a.7.7 86.8 0 1 .7.5q.6 4.5 3.5 9.6a5.8 5.6-66.5 0 1 .6 1.5l.6 2.9a2 2-66.8 0 0 .2.5c3 5.7 5 12.2 7.7 17.5l11 21.8c2.2 4.4 3.3 7.6 2.5 12.4a1.4 1.4 72.2 0 1-.3.7q-3.8 4-9.6 6a5 4.8-56.3 0 1-1.2.2q-10 .8-21.4 0a1.8 1.8 64 0 1-1-.3q-1.8-1.3-2.2-3.1-.4-1.9-1.2-3.4-4.6-9.4-7.6-18.1a2 2-76.4 0 0-.4-.8c-1.2-1.2-.8-3-2.2-4.3a1.5 1.5-73.1 0 1-.5-1q-.2-1.8-1.3-3a2 2 17.3 0 1-.6-1l-.7-3.8a1.4 1.4-71.4 0 0-.3-.6l-.4-.4a1.4 1.2-80.7 0 1-.2-.4l-3.2-9a.3.2 19.6 0 0 0-.1l-.8-.8a1.6 1.6-69.8 0 1-.5-1q-.3-3.8-1.2-4.7a2.6 2.5-71.6 0 1-.7-1.5q-.3-2.2-1.2-3.8c-1-2-1-3.7-2.2-5.2a2 2-70.4 0 1-.4-.9c-.6-3-.6-4.1-1.8-7q-2-4.9-3.2-8.8a2 2-76.1 0 0-.5-.7q0-.2-.2-.3L164 402a5.4 5.3 19.8 0 0-.8-1.7l-.5-.7a1.5 1.4 21.3 0 1-.4-.9q-.3-3-1.6-5a2 2 22.7 0 1-.4-.8q-.3-1.8-1.9-5.2-.5-1.1-.3-5a.7.7-9.1 0 1 .4-.6q.4-.1 1 .2a.4.4 24.4 0 1 .1.5"/><path fill="#fff" d="m307.7 450.8-.2-8.8.8-3.7a.6.6-50 0 1 1.1 0l1.3 2.9a1 1-1.2 0 0 .6.6l1.6.5a1 1-.5 0 1 .6.6q.7 1.9.7 4.2a.8.8 4.2 0 0 .7.7q3.2.6 5.2-1a2 2 19 0 1 .9-.4c3-.7 5-3.3 8-6.2q3.1-3 3.1-7.1a1.2 1.2 71 0 1 .5-1q1.3-1 1.2-3.1 0-.7-.5-1h-.4a1 1 5.7 0 1-.7-.9l-.5-2.7a.4.4 11.3 0 0-.2-.3q-1.2-.7-2 1.5a.6.6-39.8 0 1-1.2 0l-.3-1.7a1.8 1.8-26.2 0 1 .6-1.7q1.9-1.7 2.2-1.8 3.1-1 5.4.6a5.8 5.7-17.5 0 0 1.3.6q3.4 1.2 6 5.1a2.8 2.8 21 0 1 .5 1q1.4 6-.4 13.3a1.6 1.5-14.7 0 1-.4.9q-1.2 1-1.8 3.4a1.4 1.4-16.5 0 1-.4.7l-7.8 7.8a1.3 1.3 9.7 0 1-.4.3l-1.6.6v.1h.4q-2.5 1.2-4.7 1.8-.4.1-.8.6a1.6 1.6 19.2 0 1-1.1.6l-11 .4a1.8 1.8 65.6 0 1-1.4-.5l-3.9-3.9a1.9 1.9 16.3 0 1-.5-.9z"/><path fill="#a0e281" d="M307.7 450.8q-3.2-4.5-.2-8.8z"/><path fill="#ffd3c0" d="M223.8 500.4c.3 1 .2 3.2.9 5q3.2 8.3 4.3 10.6c1.8 3.5 2.6 7 4.5 11 2 4.2 4 10.3 6.7 15.3q2.2 4.2 2.7 5.6c2.6 7 6.7 13.7 10.2 20.8l11.6 22.6a5.3 5 12.3 0 0 .8 1.1q2.3 2.5 2.8 4.5a1.8 1.7 11.3 0 0 .7 1c1 .7 1 2.2 1.5 3.3q2.5 4.4 4 6.2c1.8 2.2 2.5 4.5 4.7 7a2 2 16.9 0 1 .5.8q1 3.2 0 6a1.5 1.5-13.2 0 1-.3.5l-3.7 3.6a1.6 1.5-75.3 0 1-.6.4q-2.6.8-4.9 0a2 2 31.3 0 1-.8-.6q-4.5-5.2-7-10.8a8.5 8.4 13.4 0 0-1.3-2l-2.5-3a2.5 2.2 17.5 0 1-.3-.6q-2.3-5.4-5.3-9a3.5 3.2 13.8 0 1-.5-.7q-2.8-5.6-3.4-6.4-2.2-3-3.6-5.7l-3.2-6q-3.2-4.8-7.6-13.5c-5-9.9-8-15.3-13.3-26l-3.6-7.4c-2-4.7-4-8-6.4-13q-1.8-4-2.9-5.6a2.3 2.2-70.1 0 1-.3-.8q-.4-1.9-1.4-2.8a1.2 1.2 12.2 0 1-.3-.4l-4.3-10.6a.5.5 76.3 0 1 .4-.7q2-.2 4 .6c3.9 1.3 9.9 2.1 13.7 0q.9-.5 2.7-.7a.7.7 76 0 1 .8.4"/><path fill="#fff" d="M281.3 611.5a.3.3 44 0 1-.6 0q-.4-2.3-2-3.7a2 2 16.9 0 1-.5-1.1q-.5-2.3-4-5.7a.8.8-19.1 0 1 .8-1.5l5.7.8a1 1-23.2 0 1 .5.2l6.2 4.2a.8.7 88 0 1 .2.3l6.2 9.8a1.6 1.6 29.2 0 1 .2.8v12.7a1.7 1.7 71.5 0 1-.7 1.4q-1.2 1-1.4 3a1.5 1.5-16.6 0 1-.6 1q-1.3 1-1.4 3a1.3 1.3 69.3 0 1-.4.8l-2 2.1a1.4 1.4-69.3 0 1-1 .5q-2 .1-2.6 1a1.4 1.4-75.9 0 1-1 .7q-7.3.7-13.6-.2a1 1 80 0 1-.7-.5q-.6-1-1.9-1-3 .2-3-2.4a1.4 1.3-68 0 0-.3-1c-3.2-3-5.5-6.5-5.5-11q0-7.8.3-9.2 0-.5.5-.6.7-.1.9.6.8 3.6 4.2 6.3a.6.6 63 0 1-.4 1q-1 .1-1.4.8a.7.7 28.8 0 0 .3 1q1 .5 1.7 1.6a1.6 1.5-12.8 0 0 1.1.6q6.6.9 11.3 0a2.2 2.1-64 0 0 .8-.2q8.7-5.5 6.5-17.8a.6.6 66.9 0 0-1-.4q-1.2.9-1.4 2"/></svg>